<?xml version="1.0" encoding="iso-8859-1"?>
<!-- Generator: Adobe Illustrator 19.0.0, SVG Export Plug-In . SVG Version: 6.00 Build 0)  -->
<svg version="1.1" id="Layer_1" xmlns="http://www.w3.org/2000/svg" xmlns:xlink="http://www.w3.org/1999/xlink" x="0px" y="0px"
	 viewBox="0 0 503.467 503.467" style="enable-background:new 0 0 503.467 503.467;" xml:space="preserve">
<g transform="translate(5 1)">
	<path style="fill:#F2EDDA;" d="M428.067,429.933l-51.2,51.2l-25.6-25.6l-25.6,25.6L291.533,447L257.4,481.133l-17.067-17.067
		L206.2,498.2l-34.133-34.133L137.933,498.2l-51.2-51.2l-51.2,51.2V37.4c0-18.773,15.36-34.133,34.133-34.133h273.067V88.6
		c0,18.773,15.36,34.133,34.133,34.133H462.2v341.333L428.067,429.933z"/>
	<path style="fill:#FFD0A1;" d="M462.2,122.733h-85.333c-18.773,0-34.133-15.36-34.133-34.133V3.267L462.2,122.733z"/>
</g>
<path style="fill:#51565F;" d="M40.533,503.467c-0.853,0-0.853,0-1.707,0c-1.707-0.853-2.56-2.56-2.56-4.267V38.4
	c0-21.333,17.067-38.4,38.4-38.4h273.067c0.853,0,2.56,0.853,3.413,0.853l85.333,85.333c1.707,1.707,1.707,4.267,0,5.973
	c-1.707,1.707-4.267,1.707-5.973,0l-84.48-84.48H74.667C58.453,7.68,44.8,21.334,44.8,37.547v450.56l43.52-43.52
	c1.707-1.707,4.267-1.707,5.973,0l47.787,47.787l30.72-30.72c1.707-1.707,4.267-1.707,5.973,0l30.72,30.72l30.72-30.72
	c1.707-1.707,4.267-1.707,5.973,0l13.653,13.653l30.72-30.72c1.707-1.707,4.267-1.707,5.973,0l30.72,30.72l22.187-22.187
	c1.707-1.707,4.267-1.707,5.973,0l22.187,22.187l47.787-47.787c1.707-1.707,4.267-1.707,5.973,0l26.453,26.453V127.147h-81.067
	c-21.333,0-38.4-17.067-38.4-38.4V46.08c0-2.56,1.707-4.267,4.267-4.267s4.267,1.707,4.267,4.267v42.667
	c0,16.213,13.653,29.867,29.867,29.867h85.333c2.56,0,4.267,1.707,4.267,4.267v341.333c0,1.707-0.853,3.413-2.56,4.267
	c-1.707,0.853-3.413,0-4.267-0.853l-30.72-30.72l-47.787,47.787c-1.707,1.707-4.267,1.707-5.973,0l-22.187-22.187l-22.187,22.187
	c-1.707,1.707-4.267,1.707-5.973,0l-30.72-30.72l-30.72,30.72c-1.707,1.707-4.267,1.707-5.973,0l-13.653-13.653l-30.72,30.72
	c-1.707,1.707-4.267,1.707-5.973,0l-30.72-30.72l-30.72,30.72c-1.707,1.707-4.267,1.707-5.973,0l-47.787-47.787L43.947,501.76
	C43.093,502.613,41.387,503.467,40.533,503.467z M381.867,366.933h-51.2c-2.56,0-4.267-1.707-4.267-4.267s1.707-4.267,4.267-4.267
	h51.2c2.56,0,4.267,1.707,4.267,4.267S384.427,366.933,381.867,366.933z M296.533,366.933H211.2c-2.56,0-4.267-1.707-4.267-4.267
	s1.707-4.267,4.267-4.267h85.333c2.56,0,4.267,1.707,4.267,4.267S299.093,366.933,296.533,366.933z M177.067,366.933h-51.2
	c-2.56,0-4.267-1.707-4.267-4.267s1.707-4.267,4.267-4.267h51.2c2.56,0,4.267,1.707,4.267,4.267S179.627,366.933,177.067,366.933z
	 M364.8,315.733H228.267c-2.56,0-4.267-1.707-4.267-4.267c0-2.56,1.707-4.267,4.267-4.267H364.8c2.56,0,4.267,1.707,4.267,4.267
	C369.067,314.027,367.36,315.733,364.8,315.733z M194.133,315.733h-68.267c-2.56,0-4.267-1.707-4.267-4.267
	c0-2.56,1.707-4.267,4.267-4.267h68.267c2.56,0,4.267,1.707,4.267,4.267C198.4,314.027,196.693,315.733,194.133,315.733z
	 M347.733,264.533h-51.2c-2.56,0-4.267-1.707-4.267-4.267c0-2.56,1.707-4.267,4.267-4.267h51.2c2.56,0,4.267,1.707,4.267,4.267
	C352,262.827,350.293,264.533,347.733,264.533z M262.4,264.533h-34.133c-2.56,0-4.267-1.707-4.267-4.267
	c0-2.56,1.707-4.267,4.267-4.267H262.4c2.56,0,4.267,1.707,4.267,4.267C266.667,262.827,264.96,264.533,262.4,264.533z
	 M194.133,264.533h-68.267c-2.56,0-4.267-1.707-4.267-4.267c0-2.56,1.707-4.267,4.267-4.267h68.267c2.56,0,4.267,1.707,4.267,4.267
	C198.4,262.827,196.693,264.533,194.133,264.533z M381.867,213.333H313.6c-2.56,0-4.267-1.707-4.267-4.267
	c0-2.56,1.707-4.267,4.267-4.267h68.267c2.56,0,4.267,1.707,4.267,4.267C386.133,211.627,384.427,213.333,381.867,213.333z
	 M279.467,213.333h-153.6c-2.56,0-4.267-1.707-4.267-4.267c0-2.56,1.707-4.267,4.267-4.267h153.6c2.56,0,4.267,1.707,4.267,4.267
	C283.733,211.627,282.027,213.333,279.467,213.333z M211.2,145.067h-85.333c-2.56,0-4.267-1.707-4.267-4.267
	c0-2.56,1.707-4.267,4.267-4.267H211.2c2.56,0,4.267,1.707,4.267,4.267C215.467,143.36,213.76,145.067,211.2,145.067z"/>
<g>
</g>
<g>
</g>
<g>
</g>
<g>
</g>
<g>
</g>
<g>
</g>
<g>
</g>
<g>
</g>
<g>
</g>
<g>
</g>
<g>
</g>
<g>
</g>
<g>
</g>
<g>
</g>
<g>
</g>
</svg>
