<?xml version="1.0" standalone="no"?>
<!DOCTYPE svg PUBLIC "-//W3C//DTD SVG 1.1//EN" "http://www.w3.org/Graphics/SVG/1.1/DTD/svg11.dtd" >
<svg xmlns="http://www.w3.org/2000/svg">
<metadata></metadata>
<defs>
<font id="salinaregular" horiz-adv-x="466" >
<font-face units-per-em="2048" ascent="1638" descent="-410" />
<missing-glyph horiz-adv-x="593" />
<glyph unicode="&#xd;" horiz-adv-x="593" />
<glyph unicode=" "  horiz-adv-x="593" />
<glyph unicode="&#x09;" horiz-adv-x="593" />
<glyph unicode="&#xa0;" horiz-adv-x="593" />
<glyph unicode="!" horiz-adv-x="479" d="M88 158q0 53 29 98q41 61 110 61q27 0 62 -11t62.5 -45t27.5 -87q2 -14 2 -22q0 -63 -35 -105.5t-88 -50.5q-10 -2 -29 -2q-61 0 -101 44t-40 120zM88 983v57q8 80 50 126t102 46q10 0 30 -4q88 -16 107 -94q6 -23 10 -39t4 -33q0 -33 -22 -131q-29 -110 -47 -194 l-15 -103l-8 -104q0 -39 -3 -61.5t-11 -34.5q-16 -25 -45 -25q-25 0 -45 21l-15 28l-16 226q-10 100 -43 213z" />
<glyph unicode="$" horiz-adv-x="897" d="M57 301q0 86 34 126t89 40t79 -36t60 -167q10 -33 72 -57q23 -10 60 -10q23 0 45 6q53 14 87.5 53t34.5 94q0 66 -45 108t-229 140l-113 55q-16 6 -24 15q-27 20 -57 63l-27 43q-29 59 -29 127v21q4 14 4 20l4 21q14 59 34 90.5t61 68.5q76 68 165 68l7 37q2 20 7 34.5 t7 22.5q16 43 63 43q27 0 56.5 -25.5t29.5 -64.5q0 -25 -8 -41l60 -8q141 -39 190 -139q25 -53 25 -101q0 -45 -21 -80q-31 -49 -82 -49q-33 0 -54 21.5t-34.5 40t-36.5 57.5l-20 39q-8 18 -30.5 31.5t-57.5 13.5q-23 0 -33 -2q-14 -4 -36.5 -14.5t-41.5 -28.5 q-33 -27 -33 -72q0 -68 76 -110l166 -82l51 -27q111 -61 159 -125.5t63 -167.5q2 -14 2 -43q-1 -45 -13 -88q-57 -193 -243 -242q-16 -6 -54 -10q8 -16 9 -41q0 -43 -28 -70.5t-65 -27.5q-49 0 -67 45q-8 20 -8 37q-2 10 -2 31q0 20 2 30q-156 0 -246 121q-63 84 -64 166z " />
<glyph unicode="%" horiz-adv-x="1435" d="M59 936q0 129 78 205t207 76q66 0 145 -23q31 -10 68 -29.5t107.5 -67.5t136.5 -48q84 0 192 96l31 29q6 6 29 6h24q57 0 58 -47q0 -16 -9 -33q-29 -61 -64.5 -118.5t-105.5 -143.5q-150 -188 -280 -414q-178 -303 -222 -359.5t-124 -76.5q-18 -6 -43 -2q-43 12 -27 59 q20 63 76 145q63 96 215 291l199 289l59 90l37 53q-14 -2 -43 -2q-49 0 -88 17l-47 24q0 -18 2 -36.5t0 -32.5q0 -162 -76 -248t-209 -86q-20 2 -33 2q-152 0 -222.5 96t-70.5 289zM254 877q0 -61 11 -93t35 -55.5t60 -23.5q39 0 68 26q20 18 26.5 64.5t6.5 162.5 q0 19 -12 52q-27 49 -78 49q-33 0 -58.5 -17.5t-39 -45t-17.5 -81.5zM774 279q0 358 309 358q141 0 217 -84t76 -244q0 -300 -258 -329q-16 0 -35.5 -2.5t-27.5 -2.5q-162 0 -242 144q-16 31 -27.5 70.5t-11.5 89.5zM969 279q6 -55 27.5 -101.5t74.5 -46.5q33 0 59.5 23.5 t37 61.5t10.5 114q0 74 -26 110.5t-71 36.5q-22 0 -34 -4q-35 -12 -56.5 -48t-21.5 -101v-45z" />
<glyph unicode="&#x26;" horiz-adv-x="1171" d="M51 348q0 90 51 176q74 113 181 146l-62 57l-35 43q-49 72 -49 160q0 96 64.5 174t177.5 102q35 8 82 8q25 0 60.5 -4t86.5 -28q88 -39 126 -95.5t38 -146.5q0 -68 -27.5 -117t-111.5 -127l-31 -24l92 -82l97 -96q4 16 4 22q0 20 -25 55l-20 39q-8 16 -9 37 q0 57 63.5 63.5t135.5 6.5q98 0 133 -19.5t31 -64.5q-6 -35 -25 -55q-32 -29 -59 -52q-12 -10 -29 -37q-23 -39 -49 -92l-20 -47l47 -74l37 -61l10 -16l22 -47q25 -66 32 -110t7 -77q0 -125 -104 -145q-25 -4 -35 -4q-72 0 -109 116l-12 43l-10 43q-6 27 -43 109l-25 -25 q-127 -106 -284 -106q-37 0 -80 6q-104 14 -162.5 48t-101.5 102q-59 98 -60 196zM285 371q0 -74 58 -124t149 -50q57 0 98 28.5t61 77.5q-31 51 -70.5 95t-115.5 110l-33 27q-49 0 -91 -37t-54 -99q-2 -10 -2 -28zM356 922q0 -33 23 -66q25 -27 51 -41l29 -12q20 12 24 16 q10 8 27 27l22 28q18 29 19 58q-1 62 -62 76q-20 4 -32 4q-10 0 -24.5 -3t-22.5 -5q-53 -20 -54 -82z" />
<glyph unicode="(" horiz-adv-x="524" d="M74 709v45t2 47q0 139 39 260q33 98 106 219l51 76q61 80 103.5 113.5t73.5 33.5q8 0 25.5 -7t28.5 -21.5t7 -34.5q-8 -43 -19.5 -70.5t-68.5 -146.5q-33 -66 -60 -168q-33 -123 -32 -226q0 -84 1 -165.5t15 -159.5t30.5 -135.5t43 -119t43 -95t29 -54t12.5 -37.5 q0 -41 -22.5 -64.5t-57.5 -18.5q-55 6 -113 83l-80 111l-8 12l-35 64q-39 78 -65.5 166t-40.5 198z" />
<glyph unicode=")" horiz-adv-x="526" d="M14 18q-6 16 8.5 58.5t79.5 179.5q31 68 61 180.5t30 212.5q4 29 4 61.5v51.5q0 111 -16.5 201t-33 147t-43.5 117l-73 155q-10 16 -11 33q0 84 74 84q57 0 119 -84l80 -110l8 -13l35 -63q39 -78 65.5 -166t40.5 -199q2 -16 4.5 -51t2.5 -88v-47q0 -139 -36 -248.5 t-110 -230.5l-51 -76q-39 -49 -67.5 -80t-49.5 -45q-10 -6 -25.5 -13.5t-33.5 -7.5q-43 0 -62 41z" />
<glyph unicode="*" horiz-adv-x="702" d="M49 989q0 14 3 28.5t22 35.5q35 41 63 41q35 0 96 -64l64 -59l-21 84l-22 96q8 66 74 66q33 0 53 -18.5t20 -43.5l-12 -84l-10 -86l70 64q66 61 96 61q25 0 52.5 -33t27.5 -63q0 -31 -23 -41l-72 -27l-104 -35q72 -25 104 -30l80 -19q25 -16 25 -61q0 -18 -4 -39.5 t-27 -50.5q-29 -29 -49 -15l-86 72l-74 51l15 -102q6 -49 6 -80q0 -74 -62 -74q-14 2 -22 2q-68 0 -68 58q0 37 21 92l30 92l-86 -74l-69 -59q-43 -14 -76 28q-18 23 -18 52q0 27 18 49l74 31q25 10 82 47l-88 34l-89 37q-14 8 -14 37z" />
<glyph unicode="," horiz-adv-x="409" d="M59 176q0 33 13 57q37 78 129 78q23 0 53 -10q82 -29 94 -147q2 -10 2 -31q0 -14 -2 -30.5t-2 -24.5l-10 -43q-27 -72 -74 -117q-57 -57 -96 -77.5t-66 -16.5q-29 6 -24 30q6 37 20 68l35 88l-27 37q-45 82 -45 139z" />
<glyph unicode="-" horiz-adv-x="612" d="M57 457l2 26q8 45 39 56.5t146 11.5h202l48 -2q25 -8 41 -35t16 -63q0 -8 -4 -21q-4 -12 -8 -20q-18 -29 -42 -35t-106 -6h-88l-160 -4q-86 0 -86 92z" />
<glyph unicode="." horiz-adv-x="409" d="M59 158q0 53 29 98q41 61 111 61q27 0 61.5 -11t62 -45t27.5 -87q2 -14 2 -22q0 -63 -35 -105.5t-88 -50.5q-10 -2 -28 -2q-61 0 -101.5 44t-40.5 120z" />
<glyph unicode="/" horiz-adv-x="987" d="M10 18q0 6 4 19l23 26q20 23 66.5 89.5t228.5 345.5l295 450l8 13q109 186 135.5 217.5t91.5 48.5q14 4 41 4q41 0 57.5 -10.5t10.5 -24.5q-18 -45 -65.5 -119.5t-268.5 -412.5l-436 -664q-8 -6 -15 -8q-18 -8 -69 -23q-27 -6 -49 -4q-27 2 -42.5 17.5t-15.5 35.5z" />
<glyph unicode="0" horiz-adv-x="1073" d="M59 612q0 78 11.5 135.5t38.5 126.5q115 287 364 322q20 2 35.5 3t28.5 1q10 0 26.5 -1t36.5 -3q252 -37 363 -322q31 -74 43 -163q4 -23 7 -68t3 -88q0 -272 -139 -426q-131 -145 -342 -145q-219 0 -345 157q-131 164 -131 471zM311 594l2 -51q0 -186 64 -279 q57 -82 155 -82h9q100 0 160.5 98.5t60.5 313.5q0 80 -8 129q-18 92 -47 148.5t-73 87t-93 30.5q-80 0 -142 -69q-25 -29 -46 -79t-31.5 -108.5t-10.5 -138.5z" />
<glyph unicode="1" horiz-adv-x="1077" d="M295 1012q0 33 31 57l57 45l80 57l61 37q14 8 33 9q55 0 65.5 -47.5t10.5 -88.5l2 -172l2 -92q0 -49 2 -147.5t2 -145.5q0 -158 4 -225.5t2 -77.5l8 -8q29 -25 62 -55q25 -25 36 -43.5t15 -36.5q4 -27 -14 -49.5t-45 -22.5l-76 -6h-25l-159 -2h-70q-31 0 -51.5 20.5 t-20.5 51.5q0 14 6 26q18 49 101 103q8 6 8 24q-2 37 -5 98.5t-3 163.5v9l-2 278v31l-2 112q-16 2 -30.5 6.5t-35.5 16.5q-49 29 -49 74z" />
<glyph unicode="2" horiz-adv-x="1075" d="M119 846q0 61 18 121q72 213 324 245q14 0 31.5 2.5t27.5 2.5q35 0 53 -3q23 -6 31 -6q139 -27 220 -101.5t96 -178.5q6 -41 6 -74q0 -113 -113 -248q-27 -31 -76 -80t-145 -135l-43 -39l-53 -49l-99 -96l31 -2h18l43 -2l35 -4q90 0 141.5 23.5t116.5 107.5q18 25 62 24 q20 0 61 -9t41 -66q0 -61 -65 -201q-29 -63 -40.5 -80.5t-32 -29t-46.5 -11.5q-35 0 -80 39q-8 8 -23.5 14t-60.5 6q-47 0 -207 -16q-14 -2 -26 -2h-15q-98 0 -153.5 57.5t-55.5 157.5q0 76 72 143l20 19l162 145l15 10l165 158q55 51 75 74.5t26 50.5t6 47q0 98 -109 135 q-23 8 -51 9q-14 0 -22 -3q-63 -10 -101.5 -45.5t-38.5 -83.5q0 -35 10.5 -53t63.5 -80q25 -31 25 -69q0 -43 -34 -71t-89 -28q-16 0 -25 2q-78 8 -135 84t-57 189z" />
<glyph unicode="3" horiz-adv-x="1073" d="M106 389q0 88 36 151.5t79 92.5t92 29q41 0 67 -26t26 -71q0 -12 -6.5 -33.5t-13.5 -39t-28 -52.5q-8 -14 -8 -47v-18q4 -16 4 -25q20 -139 160 -162q12 -2 35 -2q39 0 74 15q117 51 116 168q0 35 -18.5 91t-79.5 96t-192 67q-18 4 -29.5 27.5t-11.5 70.5q0 45 67 110 l12 11l62 55q23 18 51.5 49t46.5 51h-45q-137 0 -180 -12t-117 -82q-16 -16 -34.5 -25.5t-41.5 -9.5q-41 0 -65.5 22.5t-24.5 63.5t17.5 86t49.5 99.5t48 71t41 16.5q29 0 44 -5t64 -34h140h55l78 2q90 0 130 -14.5t67.5 -58.5t27.5 -85q0 -51 -19.5 -82.5t-103.5 -109.5 l-14 -15l-76 -77l27 -9l30 -14q100 -43 151.5 -110.5t66.5 -176.5q4 -14 4 -30.5v-30.5q-1 -103 -54 -191q-57 -94 -123.5 -138t-183.5 -60q-16 -2 -37.5 -3t-31.5 -1q-49 0 -91 8l-51 12q-180 55 -248 203q-41 88 -41 182z" />
<glyph unicode="4" horiz-adv-x="1081" d="M61 530q0 25 4.5 52.5t30 67.5t140.5 184l157 210q72 98 118 134t97 36q92 0 127 -22.5t49 -95.5q8 -35 10.5 -129.5t2.5 -229.5l2 -162q41 -12 53 -12l59 -8h9q8 0 12 -4q14 -12 26.5 -45t12.5 -57q0 -78 -150 -78l-24 2v-23l2 -12v-23q-2 -8 22.5 -21t57.5 -28 q18 -6 18 -33q0 -23 -16.5 -53t-55.5 -71q-70 -74 -127 -109t-100 -35q-18 0 -37 6q-57 16 -57 74q0 14 6 27l33 61q31 47 30 80l-2 72v24v51l-149 2l-137 -2h-19q-205 0 -205 170zM307 563h84l74 -2h20h37l43 2v68v33v57v33l2 65v76q-45 -45 -97 -110.5t-120 -159.5z" />
<glyph unicode="5" horiz-adv-x="1075" d="M109 322q0 100 28.5 152t59 55t55.5 3q55 0 75.5 -33.5t20.5 -123.5q0 -139 139 -178q31 -8 66 -9q119 0 172 142q14 31 14 76q0 16 -2 26q-8 98 -64.5 152.5t-142.5 54.5q-39 0 -71.5 -13.5t-59.5 -25.5q-12 -6 -37.5 -9t-52.5 -3q-94 0 -124.5 16.5t-30.5 75.5 q0 14 3 38.5t5 39.5q14 74 21 129t7 119q12 125 42 168t124 43q57 0 166 -17l37 -2q33 0 61.5 -1t51.5 -1q27 0 42 6t46 25q12 10 41 10q14 0 22 -2q63 -10 64 -78q0 -33 -15 -76q-23 -76 -58.5 -117.5t-63.5 -41.5q-14 0 -23 8l-57 49q-14 12 -47 20.5t-95 8.5l-67 -4 l-33 -5l-12 -45l-8 -45l-23 -123q76 43 172 43q47 0 102 -12q250 -53 295 -323q6 -37 7 -76q0 -37 -7 -74q-29 -168 -136 -266t-271 -98q-213 0 -330 116q-53 53 -80.5 109.5t-27.5 116.5z" />
<glyph unicode="6" horiz-adv-x="1075" d="M96 541q0 43 6 110q0 70 10.5 113t32.5 102q127 348 430 348q160 0 248 -73q59 -49 86 -97.5t27 -97.5q0 -25 -10 -55q-31 -80 -103 -80q-33 0 -58.5 20.5t-33.5 32.5l-4 4l-39 70q-41 76 -115 76q-63 0 -124 -53q-31 -29 -54.5 -74t-34.5 -109l-6 -47l33 17 q131 59 217 59q45 0 105 -16q125 -35 197.5 -136.5t72.5 -253.5v-32q-4 -25 -4 -37q0 -35 -10 -65.5t-33 -71.5q-66 -115 -163 -166.5t-237 -51.5q-109 0 -200.5 54.5t-149.5 144.5q-33 51 -49 104.5t-33 182.5q-2 23 -3 41t-1 37zM362 383q0 -68 44 -125q27 -37 66.5 -57.5 t82.5 -20.5q96 0 156 82q27 37 39 82q2 16 5 31.5t3 34.5q0 53 -25 96q-33 57 -74 81.5t-104 24.5q-37 0 -76 -16q-117 -53 -117 -168v-45z" />
<glyph unicode="7" horiz-adv-x="1073" d="M145 913q-4 18 0.5 37t22.5 66l20 51l19 47q43 113 88 113q27 0 102 -33l328 -4q74 0 107.5 -23.5t54.5 -91.5q4 -20 4 -31q-1 -36 -21 -71l-18 -29l-18 -31l-162 -241q-10 -14 -24.5 -44t-35.5 -85q-27 -70 -33 -122t-6 -183v-82q0 -186 -127 -187q-55 0 -96 48.5 t-59 148.5q-4 18 -6 36.5t-2 45.5q0 133 82 299q29 59 47 89t45 60q55 59 108 123t103 129q8 8 8 21q0 18 -23.5 29.5t-66.5 11.5q-25 0 -62 -6q-96 -16 -122.5 -27.5t-86.5 -61.5q-41 -35 -71 -77q-16 -20 -68 20q-25 23 -31 55z" />
<glyph unicode="8" horiz-adv-x="1077" d="M106 377q0 152 119 252l33 26l18 15l-32 45q-68 98 -68 188q0 74 47 156q90 154 328 153q61 0 119 -26q94 -37 145 -102.5t51 -157.5q0 -63 -17.5 -117.5t-57.5 -101.5l-21 -21l31 -20q137 -109 157 -260q2 -12 3 -23v-25q-1 -161 -142 -284q-51 -45 -128 -71t-169 -26 q-84 0 -160 29q-219 82 -249 297q-6 37 -7 74zM336 360q0 -106 106 -161q35 -20 82 -21q80 0 129 40t66 112q4 29 4 43q0 125 -127 172q-41 12 -74 12q-72 0 -123 -46t-61 -118zM389 887q0 -12 4 -33q18 -84 96 -96q25 -4 37 -4q57 0 90 34.5t33 92.5q0 18 -4 47.5t-39 58.5 t-84 29q-30 -1 -65 -19q-68 -41 -68 -110z" />
<glyph unicode="9" horiz-adv-x="1073" d="M94 799v30q4 25 4 35q10 78 45 140q63 115 160.5 165t239.5 50q111 0 202 -53.5t148 -145.5q33 -51 48 -103.5t32 -175.5l4 -43v-73q0 -94 -12 -165t-35 -134q-131 -348 -432 -349q-160 0 -248 74q-111 96 -111 195q0 27 11 57q29 80 102 80q31 0 56.5 -20.5t35.5 -34.5 l41 -74q41 -76 117 -76q63 0 125.5 56.5t87.5 181.5l4 47l-31 -14q-131 -61 -221 -62q-47 0 -102 16q-125 35 -198 138.5t-73 257.5zM315 784q0 -49 25 -94q33 -57 74 -81.5t104 -24.5q37 0 76 16q63 31 91 81t28 134q0 45 -19 82q-8 16 -26 41q-55 78 -152 78 q-94 0 -154 -80q-25 -37 -36 -86l-9 -41q-2 -16 -2 -25z" />
<glyph unicode=":" d="M88 158q0 53 29 98q41 61 110 61q27 0 62 -11t62.5 -45t27.5 -87q2 -14 2 -22q0 -63 -35 -105.5t-88 -50.5q-10 -2 -29 -2q-61 0 -101 44t-40 120zM88 623q0 55 29 96q45 63 112 63q16 0 56.5 -11t67 -46t26.5 -86q2 -14 2 -23q0 -63 -35 -105t-88 -52q-8 -2 -25 -2 q-61 0 -103 44t-42 122z" />
<glyph unicode=";" d="M88 176q0 33 12 57q37 78 129 78q23 0 54 -10q82 -29 94 -147q2 -10 2 -31q0 -14 -2 -30.5t-2 -24.5l-10 -43q-27 -72 -74 -117q-57 -57 -96 -77.5t-66 -16.5q-29 6 -25 30q6 37 21 68l35 88l-27 37q-45 82 -45 139zM88 623q0 55 29 96q45 63 112 63q16 0 56.5 -11 t67 -46t26.5 -86q2 -14 2 -23q0 -63 -35 -105t-88 -52q-8 -2 -25 -2q-61 0 -103 44t-42 122z" />
<glyph unicode="?" horiz-adv-x="788" d="M29 899q0 238 247 301l62 10q20 2 35.5 3t23.5 1q100 0 183.5 -36.5t132.5 -109.5t49 -159q0 -111 -78 -202q-16 -20 -63.5 -59.5t-96.5 -78.5q-14 -10 -29.5 -31.5t-27.5 -50.5l-6 -14l-15 -41l-16 -31q-18 -23 -45 -22q-23 0 -37 14q-33 33 -33 105q2 18 2 28 q0 35 28 75t116 128q16 14 35 43q33 51 32 94q0 72 -38.5 111t-110.5 39q-25 0 -49.5 -8.5t-42.5 -20.5q-35 -25 -35 -59q0 -25 18 -43q33 -29 66 -47q59 -37 59 -84q0 -43 -53 -84q-37 -27 -86 -27q-51 0 -103.5 27.5t-88 84t-35.5 144.5zM250 158q0 35 4 53t22 45 q43 61 113 61q27 0 51 -8q92 -29 101 -133q0 -162 -121 -180q-10 -2 -29 -2q-61 0 -101 44t-40 120z" />
<glyph unicode="A" horiz-adv-x="1685" d="M-33 59q0 12 4 33l9 25q18 49 59 67.5t123 18.5l20 -2l43 -4q10 -2 31 -2h18q16 4 25 4q133 16 222 133t171 395l107 346q29 86 28 127q0 66 -94 98q-12 2 -24 7q-10 2 -31 2q-49 0 -109 -25q-37 -14 -64.5 -41t-45 -69t-17.5 -82q0 -45 22.5 -75t57.5 -30l84 -2 q51 0 76 -57q6 -16 6 -37q0 -45 -24 -86q-43 -76 -160 -76h-27q-18 4 -28 4q-127 23 -199 117t-72 239q0 78 35 154q55 125 156.5 192.5t257.5 67.5q5 1 16 1q26 0 85 -4q83 -5 155 -5q113 0 191.5 -4t146.5 -6h71.5h40.5q68 0 87.5 -6.5t39.5 -36.5q14 -20 15 -47 q0 -27 -15 -47l-67 -43q-29 -18 -33 -23q-20 -18 -21 -45q0 -27 54 -209l12 -39q25 -78 49.5 -158.5t30.5 -107.5q43 -195 49 -213q20 -66 121 -96q28 -10 28 -57q0 -19 -3 -35.5t-15 -43.5q-16 -31 -33 -43l-243 -225l-27 -16q-29 -14 -57 -15q-18 0 -34 6.5t-30 16.5 q-47 41 -47 80q0 35 45 98l29 45q43 80 43 137q0 49 -31 158l-10 33l-41 4l-31 2q-35 2 -63.5 3t-57.5 1h-59l-86 -2l-23 -2l-20 -57q-129 -338 -277.5 -479.5t-355.5 -141.5q-139 0 -214 51.5t-75 128.5zM981 786l53 -4q27 0 82 2t86 2l-10 43l-14 58q-14 51 -28.5 102 t-27.5 86l-12 37l-16 45l-19 -43q-47 -113 -66.5 -182.5t-27.5 -145.5z" />
<glyph unicode="B" horiz-adv-x="1437" d="M0 434q0 113 55 203q88 141 185 141q61 0 104 -39t43 -92q0 -16 -4 -36.5t-23 -45.5q-29 -35 -51 -65q-14 -16 -23.5 -38t-14.5 -50.5t-5 -42.5q0 -111 107 -193q119 -90 303 -90h37q27 4 39 4q176 18 270 98t94 207q0 117 -45 189.5t-160 122.5q-72 30 -152 30h-5 q-33 0 -68 -6l4 -90q35 0 68 -23q49 -35 49 -90q0 -39 -29 -67l-258 -236q-14 -14 -43 -14q-27 0 -55 14q-59 31 -60 101q0 29 7.5 42t52.5 83q6 8 11 42.5t7 65.5v311l2 330q0 49 -14 68.5t-63.5 38t-66.5 43t-17 47.5q0 47 45 69q23 12 62.5 14t96.5 3h138l145 -6l92 -2 q72 0 98.5 -2.5t75.5 -18.5q106 -35 163.5 -114.5t57.5 -192.5q0 -16 -2 -33.5t-2 -28.5q-16 -123 -125 -213l-69 -43q137 -16 229 -130.5t92 -274.5q0 -57 -16 -129q-6 -25 -14.5 -51t-20.5 -49q-61 -127 -166.5 -202t-279.5 -108l-93 -14q-20 -2 -39.5 -3t-46.5 -1 q-98 0 -207.5 24.5t-191.5 66.5t-144.5 105.5t-95.5 129.5q-63 125 -63 241zM682 1264q0 -37 2 -115t2 -117l8 -82l43 -4q272 0 273 150q0 25 -11 61q-18 66 -73.5 88.5t-196.5 22.5z" />
<glyph unicode="C" horiz-adv-x="1736" d="M-35 942q0 35 6 70q16 113 83 195.5t169 119.5q55 20 127 21q68 0 148 -21q41 -8 149 -53l68 -29l28 -12l23 22l14 19l17 20l20 25q12 16 27 31q27 29 68.5 61.5t105.5 58.5l57 21q74 20 148 20q176 0 288.5 -105.5t112.5 -254.5q0 -14 -2 -31.5t-2 -27.5 q-18 -139 -114.5 -222.5t-245.5 -83.5q-74 0 -157 21.5t-173 66.5l-53 29l-11 -76q-4 -59 -6 -85.5t-2 -47.5q0 -141 34 -244.5t91 -160.5q92 -92 193 -92q84 0 151 63l29 31q45 63 45 172q0 88 5 109.5t38 51t78 29.5q80 0 125 -82q26 -49 26 -120v-5q0 -88 -45 -192 q-74 -166 -237 -242q-102 -45 -232 -45q-25 0 -54.5 3t-62.5 12q-209 51 -317 235q-115 193 -115 518q0 104 9.5 154.5t42.5 126.5l-19 12l-16 8l-52 23q-113 47 -196 47q-133 0 -158 -115q-4 -12 -4 -41q0 -114 107 -114h2q49 0 116 30q12 4 19 4q23 0 62.5 -28.5 t39.5 -89.5q0 -72 -61 -127q-70 -63 -187 -64q-12 0 -45 4q-131 20 -218 126t-87 251zM979 1122q55 -47 127 -70.5t133 -23.5q63 0 98 26.5t43 73.5q2 8 2 15v14q0 78 -98 113q-20 6 -31 8q-10 2 -32 2q-53 0 -108.5 -27.5t-102.5 -85.5z" />
<glyph unicode="D" horiz-adv-x="1507" d="M-2 936v32.5t4 41.5q23 170 92.5 266t227.5 168q135 61 340 61q88 0 174 -18q152 -31 260 -94.5t190 -165.5q121 -154 152 -377q4 -27 6 -58.5t2 -62.5q0 -23 -1 -42.5t-9 -80.5q-23 -141 -71 -243.5t-124 -178.5q-102 -102 -244 -147q-76 -25 -138 -30t-281 -5h-132 q-82 0 -110.5 6t-39.5 21.5t-18.5 34t-7.5 28.5q0 57 113 103q31 12 43 77.5t12 257.5v250v74q0 45 -16 72q-6 10 -45 63q-20 25 -21 53q-1 6 -1 11q0 54 57 67l57 10q27 6 53.5 8.5t52.5 2.5q127 0 160 -82l-39 -185l-6 -258l-2 -100l-2 -158v-149l72 4q186 0 308 142.5 t122 363.5v31q0 12 -2 28.5t-2 24.5q-12 109 -58.5 200t-119.5 152q-88 74 -179.5 98.5t-248.5 24.5q-43 0 -81 -11.5t-81 -31.5q-80 -39 -127 -106.5t-47 -135.5q0 -74 49 -127l65 -67q16 -16 27 -45q4 -10 6 -25q2 -12 2 -22q0 -35 -22 -70q-31 -49 -99 -57q-8 -2 -26 -2 q-47 0 -89 29.5t-89 99.5q-12 16 -29 53q-39 80 -39 176z" />
<glyph unicode="E" horiz-adv-x="1597" d="M-29 1081q0 45 9 80q41 182 182 253t475 71l88 -2l178 -4h133h133l27 22q33 20 68 21q76 0 102 -66l80 -199q20 -53 20 -90q0 -66 -77 -88q-6 -2 -21 -2q-18 0 -35 8q-27 16 -39 27q-8 8 -53 66q-68 90 -350 90l-37 -4h-8l2 -387l14 -5l31 -4q10 -2 18 -2h11 q78 0 143 103q10 16 41 16q27 0 51 -16l29 -31l53 -104q80 -154 80 -238q0 -78 -72 -98q-18 -6 -35 -6q-29 0 -62.5 29.5t-113.5 117.5q-10 12 -32.5 14t-57.5 2q-57 0 -102 -16l-2 -78l-2 -63v-133v-142l166 -4q156 0 235.5 37t175.5 164q12 16 35 16q31 0 65.5 -30.5 t34.5 -63.5t-30 -106l-82 -201q-25 -57 -88 -70q-20 -4 -29 -4q-51 0 -84 39l-145 4l-283 4l-98 4l-43 2l-144 2q-25 0 -43 13q-45 27 -45 77q0 18 10.5 43t38 44.5t84.5 42.5q4 2 10.5 22.5t10.5 59t5 128t1 158.5v144.5t2 146.5q0 231 -26.5 317t-108.5 86q-33 0 -88 -16 q-76 -25 -117 -83t-41 -136q0 -59 25.5 -92t56.5 -33l51 25q43 18 78 18q96 0 117 -102q2 -8 2 -25q0 -53 -40 -103.5t-106 -72.5q-35 -10 -71 -10q-31 0 -65 6t-75.5 20.5t-77.5 43t-68 74.5t-53.5 128t-21.5 141z" />
<glyph unicode="F" horiz-adv-x="1495" d="M-6 1059q0 86 26 158q35 92 86.5 145t149.5 96q47 20 107.5 24.5t246.5 4.5h195l383 -6q14 18 31 26q33 20 63 21q47 0 88 -55.5t88 -182.5l29 -80l2 -8v-43q-23 -80 -92 -80q-25 1 -41 11q-29 18 -60.5 46.5t-68.5 75.5q-23 27 -82.5 40.5t-196.5 13.5q-29 0 -71 -13 l4 -327q37 -4 53 -4q33 0 67 6q4 12 10.5 25.5t16.5 27.5q35 49 86 49q45 0 82 -39q29 -27 59 -108l76 -211q4 -12 4 -23q0 -29 -20.5 -56.5t-52.5 -39.5q-16 -6 -33 -6q-31 0 -67 28.5t-83 94.5q-10 16 -28 22q-31 14 -76 15h-43l-60 -5l2 -253q31 -6 70 -29q53 -37 53 -90 q0 -49 -47 -94l-10 -9l-123 -106l-10 -8l-70 -64q-77 -69 -137 -69h-2q-66 0 -90 69q-10 27 -10 37q0 20 67 113q31 45 41 116.5t10 266.5l5 282l2 68l4 178q0 92 -37 141t-109 49q-31 0 -55.5 -6t-32.5 -10q-10 -4 -45 -24q-59 -41 -82.5 -87.5t-23.5 -111.5 q4 -55 32.5 -86t75.5 -31q27 0 58 12l45 21q12 4 24 4q23 0 49 -14q51 -33 52 -115q0 -72 -66 -126t-164 -54q-23 0 -44 4t-36 6l-59 18q-215 92 -215 359z" />
<glyph unicode="G" horiz-adv-x="1761" d="M-37 969q0 106 66 209q23 37 47 61q113 121 270 121q39 0 107.5 -9.5t203.5 -80.5l48 -29l24 31q86 98 177 152.5t168 63.5t124 9q41 0 81 -6t75 -16q129 -45 198.5 -136.5t69.5 -210.5q0 -25 -2 -36q-16 -139 -119.5 -229.5t-271.5 -90.5q-61 0 -103 10 q-106 25 -156 48.5t-104 70.5v-51q0 -70 5.5 -100.5t27.5 -71.5q55 -104 176 -133q35 -8 72 -8q88 0 151 63l58 76q43 57 63.5 66.5t100.5 9.5q76 0 102.5 -9.5t44.5 -44.5l-37 -209q-2 -27 -3 -64.5t-1 -66.5v-108q0 -25 -4 -43.5t-20 -75.5q-2 -12 -9 -27q-2 -6 -12 -28 q-53 -109 -178 -173.5t-303 -64.5q-72 0 -151 20.5t-140 52.5t-105.5 76t-76 105.5t-31.5 120.5q0 123 113 147q25 4 32 5q25 0 51.5 -13.5t48 -45.5t87.5 -156q14 -33 86 -68q29 -12 49 -17.5t53 -5.5q270 0 270 295l-6 60l-10 -13l-18 -14q-96 -86 -234 -86q-53 0 -131 16 q-111 25 -195.5 100t-138.5 201q-23 53 -35 101.5t-12 97.5q0 31 6 72t17 84l16 55l-39 16l-8 5l-94 43l-15 6q-27 12 -59.5 18t-54.5 6q-59 0 -100.5 -26.5t-59.5 -75.5q-6 -23 -6 -43q0 -45 26.5 -78t71.5 -41q8 -2 29 -2q51 0 145 31q14 4 30.5 -7.5t37.5 -48.5 q14 -23 14 -61q0 -35 -14 -65q-23 -55 -84.5 -90t-136.5 -35q-59 0 -111.5 17t-105.5 58q-147 109 -148 314zM932 1102q63 -47 134 -71.5t134 -24.5q49 0 90 16t61.5 47t20.5 66q0 41 -31 75q-23 25 -64.5 44.5t-86.5 19.5q-35 0 -61.5 -5t-61.5 -22q-117 -53 -135 -145z " />
<glyph unicode="H" horiz-adv-x="1716" d="M10 70q0 10 6.5 42.5t38.5 65.5q23 23 41.5 31t53.5 8q16 0 44.5 -3t49.5 -5l51 -4q102 0 174 35.5t135 121.5q53 76 71.5 176.5t18.5 362.5l2 238q0 166 -166 166q-51 0 -100 -25q-113 -53 -125 -156q-4 -37 -4 -49q0 -110 105 -110h2q37 0 73.5 9t57.5 9q88 0 104 -102 q1 -9 1 -18q0 -65 -64 -117q-74 -60 -195 -60q-61 0 -127 33q-94 45 -149.5 137t-55.5 213q0 66 19 133q37 139 148.5 221t285.5 82l315 -18h57.5t65.5 2h37q84 0 113 -53q10 -20 10 -41q0 -20 -14 -45l-74 -47q-45 -31 -55.5 -50.5t-10.5 -81.5v-108l2 -115q57 0 174 -2 t177 -2l2 113l4 96v37q0 55 -10.5 71.5t-65.5 47.5l-45 32q-25 25 -25 60q0 31 21 51q31 37 90 37l366 -10q23 0 48.5 -30t25.5 -60q0 -48 -94 -93q-47 -23 -58.5 -95.5t-11.5 -323.5v-267v-159l13 -7l36 -16q72 -37 72 -92q0 -49 -57 -105l-43 -41l-23 -20l-207 -178 q-20 -16 -49 -17q-25 0 -49 11.5t-43.5 34t-19.5 51.5q0 27 22 71l53 76q18 23 33 78t15 133v43l-3 86l-4 150q-68 6 -133 6q-37 0 -110.5 -2t-110.5 -2v-70q0 -61 -7 -120.5t-32 -143.5q-33 -106 -74 -176t-120 -144q-141 -133 -328 -163l-57 -7q-150 0 -232 52.5 t-82 130.5z" />
<glyph unicode="I" horiz-adv-x="1026" d="M0 1087q0 37 11.5 75t29.5 77q72 154 202 196t466 42q2 0 44 4t142 4q78 0 106 -23q33 -31 33 -76q0 -47 -33 -63l-71 -35q-37 -14 -51 -74q-4 -18 -6.5 -62t-2.5 -249v-319l2 -80l2 -78l29 -4q43 -12 67.5 -42t24.5 -67q0 -35 -24 -69q-16 -20 -39 -42t-105 -96l-8 -6 l-74 -71q-55 -51 -81 -67q-21 -12 -45 -12q-6 0 -13 1q-45 0 -74.5 29.5t-29.5 70.5q0 14 7 33.5t20.5 40t42 56.5t39 149.5t10.5 421.5v153.5t2 159.5v55.5t2 53.5q0 16 -4 24q-14 43 -50 66.5t-94 23.5q-31 0 -78 -10q-113 -25 -147 -154l-6 -57q0 -135 106 -135 q20 0 51 10l58 25q6 4 20 4q31 0 62 -31q35 -29 35 -94q0 -59 -40 -107.5t-118 -72.5l-41 -11q-29 -4 -45 -4q-141 0 -256 133q-39 49 -58.5 125t-19.5 178z" />
<glyph unicode="J" horiz-adv-x="1085" d="M29 88q0 20 8 41t22 39q25 31 55.5 46t73.5 15q70 0 193 -45q29 -8 45 -8q35 0 90 19.5t93 64.5t63 133q12 39 17 93.5t5 191.5l2 246v245q-10 113 -139 113h-33q-6 0 -55 -10t-92 -60q-10 -12 -17 -20q-6 -8 -12 -25q-20 -41 -20 -88q0 -51 22 -86q33 -47 60 -47 q16 0 51 19.5t55 19.5q23 0 49 -8q94 -27 94 -115q0 -29 -17 -61.5t-54 -69.5q-59 -63 -170 -63h-35q-25 6 -37 8q-117 27 -191.5 128t-74.5 245q0 45 4 67q12 76 43 139q68 139 183.5 187.5t348.5 48.5q86 0 146.5 -2t122.5 -4l51 2q10 1 20 1q80 0 99 -75q4 -25 4 -33 q-1 -49 -101 -90q-33 -16 -45 -91t-12 -267q0 -31 2 -94.5t2 -96.5q0 -303 -30.5 -433t-120.5 -236q-96 -119 -254 -170q-90 -27 -168 -27q-166 0 -256 62.5t-90 150.5z" />
<glyph unicode="K" horiz-adv-x="1619" d="M0 1042q0 53 3 85t11 67q37 127 137.5 209t243.5 96q14 2 39 2q10 0 119 -6t154 -6q20 -2 40.5 -2h43.5h67.5t71.5 2h22q18 0 54 -16l22 -15q31 -29 31 -67q0 -25 -17 -48l-75 -43q-49 -29 -59.5 -54t-10.5 -122v-84l-4 -118l106 120q166 188 166 232q0 27 -22 72 q-12 25 -33 63q-2 5 -2 9q0 20 33 46q20 16 49 17l330 -6l26 -5q70 -25 70 -94q0 -37 -33 -57q-10 -6 -108 -66l-146 -178l-59 -74l-13 -16l-67 -94l2 -72q0 -113 10 -192q16 -92 23 -127q33 -172 61.5 -239.5t118.5 -180.5q33 -43 70 -74q63 -53 118.5 -86t104.5 -46 t100 -13q84 0 201 57l57 27l19 8q41 24 79 24h3q55 0 91 -41.5t36 -107.5q-1 -88 -130 -178q-49 -35 -120.5 -58.5t-157.5 -23.5q-14 -2 -32.5 -2h-28.5q-125 0 -241 48t-245 159q-147 125 -219 279.5t-102 422.5q-2 18 -4.5 57t-2.5 101v127l-112 -113v-151l4 -56l33 -12 q76 -41 75 -86q0 -63 -159 -205q-94 -82 -131 -112q-51 -41 -95 -41q-70 0 -96 69q-10 27 -10 39q0 20 31.5 66.5t54 79t32 125t9.5 288.5v144.5t2 146.5v139q0 84 -6 114t-31 56q-39 43 -108 43q-16 0 -37 -4t-45 -10q-131 -45 -150 -160v-49q12 -119 94 -119q43 0 129 35 q4 3 10 3q18 0 48 -23q23 -16 38 -41t15 -52q0 -84 -60.5 -144t-162.5 -60q-31 0 -47.5 2t-51.5 12q-109 33 -161 81t-88 155q-10 25 -15 41q-10 37 -10 81z" />
<glyph unicode="L" horiz-adv-x="1501" d="M-29 1047q0 47 9 86q29 152 135 245q90 76 202 97q63 10 127 10q74 0 153 -1t161 -1h54.5t74.5 2h35q35 0 61.5 -16.5t33.5 -42t7 -42.5q0 -29 -22.5 -47t-81.5 -43q-33 -12 -41.5 -73.5t-8.5 -259.5v-334v-19v-180l9 -207l43 -2q158 0 216 21.5t173 124.5l55 61 q12 16 37 16q33 0 67 -32q31 -25 31 -64q0 -53 -74 -221l-47 -105l-20 -24q-41 -35 -72 -35t-98 37q-8 2 -42 3t-71 1h-133l-133 -2l-111 -2q-119 0 -157.5 6t-59.5 29q-31 35 -30 65q0 57 108 95q33 10 40 78.5t7 320.5v319q0 250 -29.5 312.5t-160.5 62.5q-33 0 -68 -16 q-16 -8 -41 -27q-74 -53 -79 -103t-5 -73q0 -67 34 -103q29 -30 66 -31q6 0 13 1l65 18q43 14 66 15q41 0 68.5 -26t27.5 -71q0 -86 -57 -143q-62 -65 -171 -65h-3h-25q-27 0 -39 2q-166 27 -254 190q-45 86 -45 193z" />
<glyph unicode="M" horiz-adv-x="1867" d="M27 78q0 39 16 65q25 43 68 58.5t131 15.5l67 -2l41 -2q29 0 51.5 3t53.5 11q139 45 196.5 216t57.5 573l6 110q0 172 -152 172q-12 0 -45 -4q-94 -14 -146.5 -72.5t-52.5 -144.5q0 -25 11 -59q25 -66 102 -66q29 0 51 11l45 20q12 4 21 4q20 0 50 -15.5t49.5 -47 t19.5 -66.5q0 -86 -95 -149q-55 -39 -133 -39q-45 0 -110 20q-205 63 -250 309q-6 35 -6 68q0 51 22.5 124t62.5 126t105.5 99t126 61.5t180.5 15.5h17l330 -8l67 -2q37 -6 60.5 -29.5t50.5 -87.5l8 -23l61 -161l56 -131l20 51l23 57l16 43l49 123q43 104 81 126t179 22h107 l116 -7l7 -2l28 -12q35 -27 35 -82q0 -39 -17 -54t-89 -42q-33 -10 -47 -78l-11 -293l-4 -297l-2 -151q27 0 45 -9q74 -31 74 -94q0 -57 -57 -116l-136 -121l-26 -27l-45 -41q-70 -63 -125 -63q-41 0 -72 33.5t-31 64.5q0 49 78 139q12 14 20.5 45t16.5 105v8l8 354v19 l4 104l2 148l-65 -113l-6 -12l-39 -82q-31 -63 -53.5 -87t-61.5 -34q-14 -4 -39 -4q-53 0 -94 51t-80 172l-20 55q-10 25 -21 45q-2 6 -26 45l-2 -61l-3 -16q0 -137 -4 -214t-8 -176q0 -53 -31 -190q-45 -186 -190 -326q-78 -72 -141.5 -104.5t-125 -50t-114.5 -17.5h-33 q-53 0 -92 9q-92 18 -142 70t-50 114z" />
<glyph unicode="N" horiz-adv-x="1724" d="M29 70q0 16 2 22q16 63 49 90t108 27q16 -2 56.5 -3t77.5 -1q18 -2 55 2q102 16 156.5 56t107.5 143q27 47 42 110.5t15 163.5q0 313 -6 397q-16 215 -127 215q-41 0 -101.5 -18.5t-103.5 -75.5t-43 -123q0 -47 22.5 -85t51.5 -44t33 -6q23 0 100 35q18 10 43 6 q43 -4 71 -41t28 -96q0 -68 -70 -120t-168 -52q-27 0 -55.5 3t-73.5 21q-156 63 -209 228q-22 65 -22 129v6q0 72 24 143q49 133 158 211l18 12l19 11l49 24q43 18 87 27.5t95 9.5q37 0 81 -3t108.5 -11t121.5 -8q45 0 107 6q23 0 37 -6q6 -2 33 -21q12 -10 18 -16 q16 -16 35 -41q8 -8 31 -43q53 -80 120 -187l95 -123l2 70v43v49q0 47 -18.5 66.5t-80.5 40.5q-25 6 -41 51q-8 18 -8 39q0 39 43 58.5t137 19.5h115l14 -2l86 2q76 0 107 -10.5t51 -38.5q12 -23 12 -51q0 -42 -26 -56l-72 -39q-43 -20 -52 -109.5t-9 -410.5v-309 q12 0 37 -8q86 -35 86 -107q0 -41 -33 -76l-131 -123l-123 -112q-59 -45 -90 -45q-8 0 -37 8q-53 16 -70 63q-8 23 -8 43q0 25 33 79t57 95q4 8 11.5 29t7.5 70l4 67v33q2 51 2 66q0 25 -20.5 60.5t-116.5 176.5q-76 113 -103 150q-53 78 -113 145v-43v-24l-4 -299v-148 q0 -49 -4 -78q-10 -41 -14 -63l-18 -64q-39 -117 -101.5 -205t-146.5 -149q-164 -119 -342 -119q-31 0 -45 2q-88 8 -138.5 29.5t-74.5 54.5q-41 55 -41 105z" />
<glyph unicode="O" horiz-adv-x="1312" d="M92 735v47q0 121 23 217q16 70 45 127q41 84 65.5 123t42.5 58q55 49 111 49q35 0 70 -23l36 37q72 72 133.5 98.5t147.5 26.5q156 0 263.5 -114.5t168.5 -370.5q27 -113 27 -254q0 -63 -6 -135q-18 -201 -73 -326t-149 -203q-84 -66 -157.5 -93.5t-177.5 -27.5 q-27 0 -54.5 2t-54.5 9q-168 33 -270 141q-109 115 -164 330q-16 68 -21.5 127t-5.5 155zM348 698q0 -104 13.5 -169.5t39.5 -125.5q43 -90 101.5 -142t104.5 -58t61 -6q68 0 120 36.5t103 122.5q76 139 76 430q0 59 -6.5 97.5t-18.5 87.5q-29 104 -47 144t-61 91l-37 37 q-27 20 -60 21q-59 0 -88 -60q-12 -23 -16 -49.5t-4 -58.5q-1 -51 29 -79q23 -22 49 -22q7 0 14 2l65 19q31 12 58 12q59 0 88 -67q8 -18 8 -43q0 -66 -58.5 -119.5t-148.5 -53.5q-18 0 -37.5 1.5t-56.5 7.5l-47 14q-72 29 -112 77t-74 152l-11 39q-27 -78 -37 -156.5 t-10 -181.5z" />
<glyph unicode="P" horiz-adv-x="1302" d="M0 946q0 102 43 211q55 135 172 221t291 113q27 2 53.5 5t63.5 3q70 0 149 -12q172 -29 276.5 -95.5t158 -140t83.5 -196.5q12 -53 13 -107q0 -72 -12.5 -129t-37.5 -108q-55 -115 -150 -177.5t-216 -62.5q-84 0 -170 33l-41 18l-4 -92q7 1 15 1q28 0 52 -13 q55 -31 56 -88q0 -33 -17 -51l-49 -56l-6 -6l-141 -125l-31 -26l-39 -37q-53 -51 -94 -52q-23 0 -47 13q-63 31 -64 90q0 41 17 65q6 10 55 72q25 31 36 115t11 278v97.5t2 93.5v42t2 36q0 31 -12 47q-23 25 -38 43t-20.5 36.5t-5.5 41.5q0 78 82 83h56l57 -2h33 q123 0 123 -75q0 -43 -27 -105l-16 -37q-6 -12 -7 -34q0 -16 9.5 -55.5t42.5 -73.5q55 -63 139 -64q23 0 51 6q133 31 164 195q4 33 4 49q0 137 -115 235q-123 104 -313 105q-176 0 -289 -86q-104 -80 -104 -191q0 -41 13 -74.5t28.5 -55t64.5 -68.5q16 -16 23.5 -36 t7.5 -44q0 -31 -14 -62q-38 -75 -109 -75h-2q-72 0 -152 82q-25 27 -45 64.5t-39.5 93t-19.5 124.5z" />
<glyph unicode="Q" horiz-adv-x="1331" d="M88 725q0 51 6 106q14 139 36 224.5t54 144.5q72 133 152 196.5t209 94.5q57 14 123 14q238 0 397 -194q170 -207 170 -545q0 -45 -2 -70.5t-8 -87.5l-15 -96q-29 -166 -52 -229.5t-75 -118.5q43 -45 78 -77t92 -75l68 -47q86 -59 154.5 -87t136.5 -28t141.5 28t179.5 89 q10 6 27 6q16 0 41 -6q96 -20 96 -153q0 -45 -26.5 -85t-92.5 -85q-43 -31 -98 -54q-31 -12 -60.5 -22t-79.5 -19.5t-106 -9.5q-135 0 -317 99q-68 37 -131 96q-72 66 -170 184l-62 74l-34 41q-115 -63 -250 -64q-236 0 -387 162q-160 170 -191 487q-2 35 -3 61t-1 46z M362 635q0 -25 4.5 -52.5t8.5 -47.5q18 -92 43.5 -148.5t70.5 -101.5q6 23 11 32q6 14 18 31q31 39 81 58.5t134 19.5q53 0 92 -16.5t74 -57.5l21 -28q23 63 32 120.5t9 159.5l-3 158q0 104 -10 162.5t-28 99.5q-29 78 -46.5 109.5t-39.5 54.5q-80 86 -177 86 q-84 0 -157 -62q-43 -37 -74 -99t-53 -169q-10 -53 -11 -164v-145z" />
<glyph unicode="R" horiz-adv-x="1366" d="M-2 987q0 53 13.5 107.5t37.5 103.5q45 88 106.5 143.5t166.5 100.5q76 33 168 44t225 11q102 0 188 -27q68 -20 135 -61q113 -70 169.5 -149.5t68.5 -190.5q2 -16 3 -31.5t1 -36.5q0 -145 -75 -241t-212 -133l-63 -13q10 -39 20.5 -72.5t28.5 -78.5 q51 -137 104.5 -229.5t114.5 -155.5q104 -109 194.5 -161t182.5 -52q111 0 262 76l59 32q12 6 29 7q16 0 53 -11q96 -27 97 -131q0 -43 -21 -84q-33 -66 -97.5 -108.5t-187.5 -79.5q-66 -18 -139 -19q-94 0 -187 28t-194 87q-63 39 -127.5 104.5t-138.5 170.5 q-41 59 -86 159q-55 119 -100 252q-27 76 -44.5 136.5t-33.5 142.5l-62 6l2 -203l25 -8q84 -37 84 -90t-96 -160q-111 -121 -158 -160t-78 -39q-84 0 -108.5 45t-24.5 66q0 23 23 51q2 2 43 47q8 8 19 41t26 94q8 29 8 98.5v153.5v230v73q0 37 -9.5 54.5t-54.5 64.5 q-18 18 -18 43q0 49 45 76t156 27q157 0 157 -85q0 -42 -36 -139q-8 -27 -9 -92v-20q49 -12 97 -13q37 0 55 5q217 35 217 208q0 27 -6 56q-16 84 -100.5 143.5t-225.5 73.5q-12 2 -28.5 2h-24.5q-33 0 -77 -6t-87 -17q-117 -29 -176 -92t-59 -143q0 -68 45 -131l69 -86 q20 -20 21 -62q0 -51 -37 -88t-90 -37q-18 0 -41 7q-96 29 -162 151q-45 82 -45 215z" />
<glyph unicode="S" horiz-adv-x="1327" d="M74 367q0 35 6 65q27 125 86 193.5t172 103.5q66 18 119 19q98 0 157 -56q37 -37 37 -84q0 -61 -53 -90q-29 -14 -60.5 -23.5t-84.5 -9.5q-14 -2 -25 -6q-25 -12 -51 -43q-33 -39 -33 -102q0 -49 25 -98q33 -66 119.5 -105t207.5 -39q123 0 203 72t94 182q4 33 4 47 q0 162 -147 258q-49 31 -82 45.5t-227 85.5l-41 17q-131 66 -188.5 137.5t-57.5 173.5q0 12 2 29.5t2 27.5q12 100 82 179q66 82 147.5 107.5t145.5 25.5q14 0 39 -4q96 -16 112 -25q4 2 9 4q4 2 38 31q14 14 40 18t40 4q78 0 105 -77l84 -234q6 -16 6 -33q0 -59 -66 -82 q-29 -8 -36 -8q-39 0 -144 107l-29 30q-16 16 -33.5 26.5t-54.5 23.5l-38 8q-10 2 -33 2q-53 0 -90 -25q-63 -39 -64 -106q0 -61 53 -103q35 -27 146.5 -72.5t204.5 -78.5q31 -12 47 -20.5t71 -43.5q100 -66 156.5 -173t56.5 -242q0 -299 -254 -451q-72 -43 -142.5 -63.5 t-166.5 -20.5q-162 0 -273.5 38t-195.5 122q-37 35 -61.5 71.5t-44.5 81.5q-41 94 -41 183z" />
<glyph unicode="T" horiz-adv-x="1308" d="M-2 1044q0 92 41 187q59 127 165.5 186.5t293.5 59.5q90 0 227 -17l143 -22q8 -2 27 -2q27 0 60.5 11t63.5 32.5t68 62.5l25 33q12 18 51 18q25 0 51 -8q96 -31 97 -139q0 -27 -11 -68q-30 -125 -188 -166q-27 -8 -59 -8q-23 0 -52.5 4t-54.5 6l-65 7l-2 -95l-2 -84 l-7 -303l-2 -133v-18l2 -156q12 2 42 -4t54.5 -33.5t24.5 -60.5q0 -51 -28 -76l-291 -270q-23 -23 -58 -23q-47 0 -78.5 37t-31.5 64q0 43 76 151q23 31 28.5 71t6.5 106.5t1 129.5v17l5 207l2 237v133v131q-51 20 -88 21q-117 0 -178.5 -31t-90.5 -104q-16 -49 -16 -82 q0 -53 28.5 -86t77.5 -33q25 0 37 4q14 4 60 29q12 4 22 4q25 0 51 -17q55 -33 56 -100q0 -66 -56.5 -128t-201.5 -62q-39 0 -78 14t-82 41q-78 49 -122 136t-44 189z" />
<glyph unicode="U" horiz-adv-x="1642" d="M-2 1079q0 61 16.5 113.5t46.5 99.5q70 104 163 151.5t255 47.5q61 -6 132 -10t184 -4h43h45q20 4 28 4q23 0 37 -8q39 -18 46 -46t7 -53q0 -27 -15 -42t-62 -36.5t-59.5 -67.5t-12.5 -229v-120v-41v-37v-31v-29v-24q0 -37 -1 -74t-1 -72v-20q0 -190 45 -269t149 -79 q111 0 156 115.5t45 402.5v330v57v100q-4 51 -24 66l-50 26q-63 37 -63 93q-4 33 17.5 56.5t56.5 27.5l80 4l227 -4q59 0 79.5 -4.5t39.5 -18.5q35 -29 34 -74q1 -46 -40 -69l-62 -31q-45 -20 -65.5 -72.5t-20.5 -185.5q0 -154 29 -410l6 -127q0 -180 -49 -280.5 t-172 -173.5q-94 -57 -234 -58q-160 0 -258 72t-149 217q-25 66 -25 168l2 66l4 239v64l2 233q0 141 -28.5 201.5t-104.5 60.5q-39 0 -94 -15t-95 -61.5t-50 -113.5q-2 -8 -2 -14v-15q0 -55 28 -97q24 -37 46 -37q3 0 7 1l99 19q12 4 22 4h21q88 0 104 -99q2 -11 2 -23 q1 -63 -57 -116q-68 -63 -168 -63q-27 0 -42 4t-22 4l-59 18q-195 80 -217 316z" />
<glyph unicode="V" horiz-adv-x="1665" d="M-29 1028q0 70 7.5 116t29.5 91q127 248 361 248h28l226 -6h188q86 0 111.5 -5.5t47 -28t21.5 -57.5q0 -43 -26 -57l-82 -41q-18 -10 -29.5 -32.5t-11.5 -59.5l76 -309q20 -86 41.5 -170t37.5 -137l25 -86l27 -93l26 97l23 75l78 281l10 39q43 166 47 184q25 94 39 131 q6 14 0 27q-12 31 -24.5 39t-76.5 35q-39 18 -51 63q-4 20 -4 27q0 47 76 66.5t264 19.5q106 0 138 -4t53.5 -18.5t34 -37t12.5 -45.5q0 -29 -17 -51l-67 -43q-59 -39 -88 -135q-45 -160 -88 -313l-13 -45q-145 -600 -188 -700.5t-160 -100.5l-37 2h-49q-61 0 -82.5 16.5 t-38.5 71.5l-14 45l-64 240l-110 419q-66 291 -114 392.5t-126 101.5q-33 0 -79 -13.5t-80.5 -46t-47.5 -81.5q-4 -16 -6 -31.5t-2 -28.5q0 -70 37 -109.5t70 -39.5q16 0 53 14l18 8l31 15q10 4 25.5 9t38.5 7q43 0 74.5 -31.5t31.5 -83.5q0 -8 -4 -32q-16 -78 -85 -127.5 t-171 -49.5q-16 0 -39.5 3.5t-36.5 5.5q-117 23 -199.5 121t-95.5 239z" />
<glyph unicode="W" horiz-adv-x="2246" d="M-29 1059q0 35 6 71q31 199 158 279t406 80l172 -6l190 6q29 0 54.5 -25.5t25.5 -62.5q0 -23 -10 -39l-84 -59l-17 -13q-47 -43 -47 -88q0 -47 99 -393l92 -367q35 119 63.5 230.5t57.5 253.5q39 190 49 234t22 71q4 10 -6 24q-16 20 -55 45l-49 23l-19 12q-23 23 -22 51 q0 14 2 23q12 80 119 80h110l271 -2q55 0 77 -60q6 -14 6 -18q2 -6 3 -16q0 -41 -103 -99q-23 -12 -34 -32.5t-11 -57.5q0 -68 62 -289l6 -22l61 -279l8 -34l29 -121l78 276q55 205 82.5 318.5t27.5 160.5t-18 65.5t-68 37.5l-22 12q-35 27 -35 68q0 20 11.5 39.5t33 34 t55 16.5t80.5 2l299 -8q33 0 55.5 -24.5t22.5 -63.5q0 -10 -4 -27q-11 -45 -66 -74q-31 -16 -41 -26.5t-18 -32.5l-14 -37l-6 -20l-181 -695l-26 -102l-47 -170l-13 -47l-22 -88q-16 -55 -44 -76t-91 -21h-50h-40q-90 0 -113 78q-2 10 -51 232l-56 262l-16 92l-16 96 l-25 -88l-35 -129q-63 -256 -81.5 -361.5t-38 -138t-72.5 -36.5l-11 -2l-77 2h-45h-23q-70 0 -95.5 67.5t-109.5 470.5l-26 111q-98 401 -113 450q-61 211 -154 211q-35 0 -84 -10t-86 -41q-71 -60 -71 -149q0 -16 4 -41q12 -49 48 -81t75 -32q14 0 26 6l72 35q35 18 59 18 q47 0 84 -73q10 -20 11 -56q0 -31 -13.5 -63.5t-40.5 -63.5q-67 -73 -191 -73h-3q-195 0 -307 180q-55 90 -56 209z" />
<glyph unicode="X" horiz-adv-x="1589" d="M-35 55q0 16 6 35q18 59 78 86q29 12 64 12q31 0 61.5 -1t63.5 -1l49 2q115 12 183.5 58.5t139.5 159.5l39 63l78 127l125 209l-27 43l-28 45l-113 180q-68 117 -112 163t-89 46q-20 0 -55 -10q-115 -33 -115 -170v-21q4 -16 9 -32q29 -96 108 -97q29 0 68 17l51 30l16 7 q45 8 51 8q18 0 32 -9.5t39.5 -38t25.5 -79.5q0 -49 -28 -93t-85 -71l-47 -21q-53 -18 -107 -18q-96 0 -192 59q-78 49 -125 137.5t-47 190.5q0 41 4 64q12 78 51 143q68 111 153 153t259 42l39 2l241 2h52l26 -9q53 -23 54 -65q0 -29 -27 -62l-60 -69l-4 -6q-8 -8 -8 -19 q0 -10 5 -25.5t16.5 -35t60.5 -90.5l62 -99l51 97l20 41l25 47q20 39 20 63q0 35 -69 78q-8 6 -13 12q-12 20 -12 54q0 41 19.5 58t80.5 26h175h65q31 0 59 4q29 0 58 -13q53 -25 53 -80q0 -29 -16 -51l-72 -45q-45 -29 -66.5 -59.5t-113.5 -190.5l-6 -12l-111 -182 l109 -180q121 -203 135 -217.5t98 -32.5q20 -4 37 -52q8 -25 8 -40q0 -53 -67 -107l-252 -215q-23 -18 -64 -18q-29 0 -49 10q-37 18 -45 49t-8 47q0 35 32 82q2 2 70 90q12 16 12 47q0 27 -9 56.5t-32 66.5l-22 37l-25 37l-18 31l-51 81l-31 -53l-49 -80l-29 -47l-104 -168 q-63 -104 -106.5 -157.5t-86.5 -92.5q-139 -123 -313 -137q-16 -2 -32.5 -2h-24.5q-129 0 -200 51.5t-71 124.5z" />
<glyph unicode="Y" horiz-adv-x="1439" d="M-29 1096q0 66 17.5 119t52.5 102q59 88 133 129t195 41q12 0 106 -3t187 -3l124 4q23 0 41.5 -11.5t34.5 -41.5q10 -16 10 -41q0 -33 -18 -48l-57 -36q-45 -27 -45 -60q0 -37 67 -153l78 -144l57 113q84 145 84 190q0 31 -22.5 54.5t-79.5 54.5q-14 10 -14 29 q0 20 16 45q12 25 43 34l55 11q49 10 106.5 14t110.5 4q106 0 163 -32.5t57 -77.5q0 -16 -7 -29q-12 -27 -29.5 -39t-74.5 -35q-20 -8 -49 -52t-117 -208q-59 -113 -115 -199q-33 -51 -39 -63q-18 -33 -18 -96v-61t2 -75v-98l45 -18q78 -31 78 -86q0 -23 -9.5 -50.5 t-45.5 -62.5q-49 -49 -165 -151.5t-175 -102.5q-37 0 -72 41q-23 29 -23 55q0 45 80 154q18 27 27.5 101.5t9.5 234.5l-4 127q-4 20 -35 76q-47 80 -86 147q-29 47 -57.5 101.5t-61.5 119.5q-82 168 -159 168q-41 0 -88 -33q-68 -43 -82 -129q-2 -12 -2 -36q0 -59 28 -105 q41 -61 84 -61q31 0 70 26l29 19l14 10q23 16 57 16q49 0 80 -36.5t31 -92.5q0 -35 -14 -69l-21 -41q-66 -96 -250 -97q-143 0 -240.5 126t-97.5 311z" />
<glyph unicode="Z" horiz-adv-x="1116" d="M66 147q0 66 59 164l115 197l41 67l125 205l73 125l99 166l34 59l74 123l-63 4q-154 0 -220.5 -26.5t-140.5 -126.5q-16 -18 -41 -29q-12 -4 -35 -4q-61 0 -88 62q-10 25 -10 34q0 14 14 52q27 66 52 124l4 15l22 72q14 47 30.5 63t49.5 16q20 0 56 -6t69 -37l428 9 q76 0 125 -45.5t49 -108.5q0 -20 -8 -48t-37 -81q-37 -68 -143 -244l-92 -155l-234 -377l-63 -101l-70 -108h57q250 0 331 31.5t179 173.5q12 20 52 20q11 0 24 -2q74 -10 74 -90q0 -43 -21 -102l-69 -201q-27 -76 -111 -76q-16 0 -35 6l-55 31l-555 -6q-29 0 -61.5 19.5 t-55.5 51.5q-29 41 -28 84z" />
<glyph unicode="_" horiz-adv-x="1298" d="M59 0v74h1180v-74h-1180z" />
<glyph unicode="`" horiz-adv-x="372" d="M59 1092q0 45 37 67q20 14 45 15q47 0 80 -54l80 -131q18 -33 12 -59q-6 -72 -77 -72q-7 0 -23 4q-31 10 -51 43l-86 133q-16 25 -17 54z" />
<glyph unicode="a" horiz-adv-x="888" d="M55 217q0 23 7.5 57.5t36 77.5t88 76t169.5 59q37 8 69 12.5t75 4.5q35 0 51 -2l6 41q0 55 -34 85q-25 22 -56 22q-10 0 -21 -3q-35 -8 -63.5 -20.5t-97.5 -51.5l-33 -20q-23 -14 -41 -14q-45 0 -76 47q-14 23 -14 45q0 41 34.5 79t107.5 58.5t143.5 25.5t91.5 5 q135 0 201.5 -59.5t66.5 -170.5q0 -12 -2 -28.5t-2 -24.5q-8 -76 -12.5 -124t-4.5 -87q0 -66 17.5 -96.5t73.5 -79.5q25 -23 24 -53q0 -44 -35 -60q-31 -14 -65 -18q-139 0 -171 21.5t-32 117.5l-2 99v110q-43 16 -84 17q-33 0 -57 -9q-82 -27 -113 -84q-6 -16 -6 -28 q0 -39 29 -43l38 -4l17 -2l47 2l29 -4q69 -12 69 -66q0 -22 -12 -47q-51 -98 -221 -98q-102 0 -169 68.5t-67 166.5z" />
<glyph unicode="b" horiz-adv-x="927" d="M10 1024q0 12 6 23q55 70 102.5 106.5t96.5 50.5q20 4 33 4q35 0 59.5 -16t24.5 -41v-125v-266l2 -35v-45l39 39q94 82 192 82q90 0 170 -68q133 -111 133 -364q0 -74 -23.5 -136.5t-68.5 -119.5q-37 -45 -79 -75t-79.5 -40t-70.5 -10q-72 0 -121 39t-49 92 q0 41 22.5 71.5t49.5 30.5l86 -4q49 0 91 53.5t42 132.5q-2 18 -2 29q0 39 -11.5 65.5t-33.5 49.5q-49 53 -115 53q-68 0 -127 -59q-29 -31 -40 -88.5t-11 -188.5l4 -78l2 -45q0 -106 -34 -124.5t-198 -18.5q-37 4 -56 29.5t-11 58.5q8 29 22.5 50.5t59.5 66.5q8 8 8 39 q0 27 -2 104.5t-2 136.5l-2 11l4 303v28v111q-6 -2 -21 -2q-8 0 -30.5 6t-42 31.5t-19.5 52.5z" />
<glyph unicode="c" horiz-adv-x="778" d="M59 367v37.5t4 44.5q14 125 83 213t173 118q25 8 65 14.5t65 6.5q98 0 187 -54.5t89 -136.5q0 -43 -35 -71q-16 -14 -39.5 -23.5t-50.5 -5.5l-80 53q-10 10 -24.5 17.5t-22.5 11.5q-31 12 -59 12q-51 0 -90 -38t-52 -105l-4 -49q0 -102 44 -156.5t120 -54.5q35 0 53 4 q8 2 35 12q53 18 74.5 27.5t34.5 15.5q10 6 22 6q43 0 74 -57q10 -20 10 -41q0 -49 -41 -95t-123 -77q-57 -23 -129 -23h-22q-14 0 -38 3.5t-32 5.5q-20 8 -28 10q-104 33 -166 102.5t-86 192.5q-10 41 -11 80z" />
<glyph unicode="d" horiz-adv-x="917" d="M59 379v29q0 94 33 167.5t90 129.5q100 92 211 92q37 0 72 -6.5t84 -28.5l41 -25l-2 113l-2 10l-4 68q0 8 -14.5 12t-55.5 11t-41 44q0 20 11.5 41t45.5 54q51 47 136 100q33 20 63 20q57 0 74 -69q4 -14 4 -72q0 -63 -1 -126.5t-1 -129.5v-61v-379l2 -174 q4 -10 17.5 -25.5t45.5 -50.5q23 -23 23 -60q0 -39 -27 -57q-14 -12 -41.5 -19t-79.5 -7q-94 0 -128.5 30.5t-34.5 128.5v72q6 37 8 55v23q0 170 -33 244.5t-109 74.5q-25 0 -61 -10q-123 -37 -123 -205q0 -190 168 -190q39 0 59 4q4 1 9 1q33 0 51 -56q4 -16 4 -29 q0 -51 -44 -95t-116 -51h-49q-113 10 -181.5 84t-96.5 228q-6 43 -7 90z" />
<glyph unicode="e" horiz-adv-x="827" d="M59 397q0 115 48.5 205t128 142.5t172.5 52.5q121 0 210 -50.5t120.5 -132.5t31.5 -141q0 -76 -49 -117t-133 -41h-170l-33 2l-102 5q0 -61 42 -97.5t113 -36.5q25 0 45.5 3.5t45 14.5t79.5 44q16 10 43 14q96 0 97 -94q0 -72 -87.5 -132.5t-224.5 -60.5 q-143 0 -240.5 85t-127.5 241q-4 20 -6.5 46t-2.5 48zM268 467h99h34l64 2q27 0 59.5 12.5t32.5 50.5q0 16 -10 33q-33 45 -111 45q-74 0 -121 -41t-47 -102z" />
<glyph unicode="f" horiz-adv-x="624" d="M10 717q0 78 133 78l17 -2q-4 37 -4 55q0 59 25.5 127.5t70.5 120t102 80.5q41 20 79 28t79 8q98 0 172 -53t84 -131q2 -10 2 -31q0 -61 -33 -94t-90 -33q-39 0 -69.5 30t-55.5 95l-8 33q-4 16 -20 16q-39 0 -72 -30.5t-39 -83.5l-6 -49v-17v-67l20 2q100 0 132 -6.5 t49.5 -31t17.5 -52.5q0 -51 -43 -72q-16 -8 -43 -10t-104 -2l-29 2l-2 -148v-166q0 -82 10 -100q4 -10 59 -53q33 -29 45.5 -46.5t12.5 -37.5q0 -23 -17.5 -44.5t-48.5 -29.5l-20 -2h-295q-39 0 -64 31q-8 8 -14 23.5t-6 23.5q0 37 65 84q37 27 46.5 49t9.5 90q0 39 -1 75 t-1 68v29v12l6 136l-25 -3q-59 0 -85.5 16.5t-34 45.5t-7.5 37z" />
<glyph unicode="g" horiz-adv-x="929" d="M37 -174q0 72 76 104q31 14 59 15q25 0 46.5 -9.5t36.5 -25.5t56 -76q53 -76 144 -76q31 0 61 9q90 20 127 67q16 18 16 51q0 43 -29.5 65.5t-113.5 22.5q-270 0 -355 25t-85 111q2 14 2 22q4 33 29.5 64.5t85.5 68.5l34 19l-32 20q-113 82 -113 193q0 51 29 112 q20 41 51 71t81 53.5t104 34.5t128 11h55l-12 35q-14 49 -14 92q0 109 119 148q23 8 51 8q49 0 90 -27q49 -27 72 -80q10 -25 10 -43q0 -33 -21.5 -58.5t-46 -31.5t-47.5 -6q-29 0 -63 16l-15 9q-18 8 -30 -17q-3 -5 -3 -12q0 -23 32 -62q40 -51 104 -110q20 -20 35 -80 q2 -12 2 -37q0 -47 -19 -96q-29 -72 -109.5 -117t-242.5 -63l-37 -2q-23 0 -39 -15.5t-16 -35.5q0 -14 11 -30t35.5 -20t106.5 -4l123 4h68q113 0 175 -56t62 -148q0 -51 -22.5 -104.5t-69.5 -92.5t-135 -78q-119 -49 -252 -49q-86 0 -147.5 10t-98.5 27q-66 27 -102 69 q-47 49 -47 105zM297 520q-1 -7 -1 -13q0 -36 28 -67q32 -37 118 -37q61 0 96 26t44 65q1 9 1 18q0 38 -29 68q-35 38 -105 38q-66 0 -106 -27.5t-46 -70.5z" />
<glyph unicode="h" horiz-adv-x="940" d="M-2 86q0 18 10 39l58 35q35 20 44 46.5t9 102.5q0 41 -1 78t-1 72v28v11l2 270v31v112q-6 -2 -21 -2q-8 0 -20 4q-33 12 -51.5 35t-18.5 49q0 16 9.5 36t41.5 50l21 19l80 53q33 20 48 29.5t33.5 16.5t34.5 7q37 0 60.5 -29.5t23.5 -82.5v-37v-31v-27q0 -43 -1 -82.5 t-1 -76.5l-4 -142l11 9l32 26q104 80 178 80q16 2 50 -2q23 0 40 -5t42 -17q61 -31 80.5 -71t19.5 -134v-80v-60v-139l24 -8q70 -31 70 -92q0 -27 -14 -47l-72 -68q-88 -82 -135 -112q-39 -25 -72 -25q-43 0 -69.5 24.5t-26.5 61.5q0 14 6 27l19 45l18 34l14 27q10 18 11 62 q0 37 -1 73.5t-1 73.5v33l-11 88q-10 71 -78 71h-2q-8 0 -24 -4l-35 -16q-49 -31 -67.5 -70t-18.5 -125v-67q0 -76 8 -93.5t60 -49.5q33 -20 49 -48q8 -14 8 -34q0 -43 -43 -60l-35 -6l-51 -2h-16l-252 -2q-35 0 -60 41q-12 25 -12 47z" />
<glyph unicode="i" d="M8 92q0 31 76 72q10 4 28.5 22.5t18.5 40.5v160q0 141 -10 156q-31 4 -71 14q-35 9 -35 55q0 7 1 15q2 18 19.5 38.5t58.5 51.5l51 39l19 12l45 31q27 16 57 16q51 0 60.5 -40t13.5 -100.5t4 -203.5l-4 -104q-6 -49 -8 -66.5t-2 -42.5q0 -33 14 -53q8 -12 62 -58 q39 -33 45 -69q1 -5 1 -10q0 -20 -14 -36q-16 -22 -45 -26l-53 -6h-8h-168q-82 0 -109.5 10t-37 39t-9.5 43zM61 1034q0 12 5 37q18 102 108 131q23 6 43 6q104 0 139 -100q12 -37 13 -74q-1 -76 -54 -123q-49 -43 -102 -43q-68 0 -121 70q-31 41 -31 96z" />
<glyph unicode="j" horiz-adv-x="462" d="M-242.5 -79q25.5 50 86.5 50q49 0 97 -47q14 -14 21 -32.5t13 -61.5q8 -33 50 -39q25 0 43 14.5t38 51.5q10 23 14.5 83t4.5 191l-2 254v66v63q-23 4 -57 16q-63 31 -64 76q0 20 12 33l56 51q45 41 75.5 64.5t60.5 39t54 15.5q59 0 80 -51q8 -25 8 -74q0 -31 -2 -113 t-2 -120v-310v-72.5v-37.5v-29q0 -32 -6 -63q-27 -137 -91.5 -211t-183.5 -99q-35 -8 -75 -8q-51 0 -97 17q-159 57 -159 190q0 43 25.5 93zM63 1032q0 104 70 150q40 26 83 26h3q51 0 88 -31.5t45 -76.5t8 -74q0 -110 -106 -147q-23 -6 -45 -7q-23 0 -46.5 8.5t-48 29 t-38 49t-13.5 73.5z" />
<glyph unicode="k" horiz-adv-x="880" d="M8 72q0 18 10 34l41 46q51 45 60 73l2 152l2 90l-2 131v72l-2 141v23v84q-6 -1 -11 -1q-32 0 -59 21q-39 31 -39 70q0 20 13 36l49 54q53 47 97 75.5t62.5 31.5t24.5 3h14q49 0 63.5 -58t14.5 -232v-216v-26v-88l64 63l41 43l26 31q20 25 64.5 51.5t97.5 35.5t88 8 q51 0 79 -31t28 -70q0 -59 -45 -78q-16 -8 -43 -16.5t-97 -22.5q-10 -2 -28.5 -8t-49.5 -23l-26 -12l-23 -12l72 -62q82 -86 141 -206l37 -74q12 -16 24.5 -26.5t45.5 -35.5q24 -17 24 -50q0 -21 -10 -44.5t-42 -39t-95 -15.5q-18 0 -48 3t-48 5q-70 10 -95.5 24.5 t-25.5 47.5q0 29 24 82q4 12 4 20q0 27 -17 61.5t-66 100.5q-23 35 -89 82l-20 14l8 -123v-92q-2 -18 18.5 -41.5t92.5 -75.5q10 -6 10 -22q0 -25 -20.5 -47.5t-79 -28.5t-213.5 -6q-37 0 -62.5 2t-44.5 10q-41 16 -41 62z" />
<glyph unicode="l" horiz-adv-x="471" d="M14 90q0 20 12.5 33.5t44 36t41 42t9.5 66.5q0 29 -2 106t-2 107v19v284v31l-2 115l-31 -2q-33 6 -51.5 28.5t-18.5 51.5q0 18 12.5 41.5t36.5 42.5l84 61q78 53 117 53q41 0 64 -51q4 -10 6 -43t2 -88v-244q0 -94 2 -192.5t4 -190.5v-131v-45q-2 -6 6 -14q8 -10 39 -39 l57 -51q12 -10 13 -29q-1 -22 -15 -45q-16 -27 -54 -36t-136 -9q-137 0 -175 6t-50.5 38t-12.5 48z" />
<glyph unicode="m" horiz-adv-x="1339" d="M18 76q0 43 76 82l17 14q10 14 20 29q6 16 6 75v142v102q-4 4 -12 6q-10 2 -55 12.5t-45 69.5q0 29 14 51q61 106 174 138q27 8 53 8q68 0 80 -88v-31l29 27q113 98 213 98q90 0 164 -88q20 -25 26 -39l47 41q37 33 61.5 50.5t47.5 23.5q49 18 94 18q84 0 133 -66.5 t49 -185.5l2 -127v-71v-56q14 0 31 -10q61 -35 62 -90q0 -45 -41 -80l-119 -100q-55 -45 -71.5 -56.5t-35.5 -11.5q-8 -1 -15 -1q-29 0 -51 18q-28 24 -28 61l37 84l25 84q8 27 12 63.5t4 71.5q0 70 -20.5 148.5t-88.5 78.5q-18 0 -56 -15t-58.5 -50t-20.5 -92v-56.5v-31.5 q0 -82 10 -105q4 -10 64 -76q18 -20 33 -57q4 -16 4 -22q0 -51 -53 -62l-72 -8q-76 -8 -135 -8q-57 0 -88 10t-46.5 31.5t-15.5 48.5q0 20 13 39l40 35q25 20 38.5 57t13.5 96q0 31 -6.5 85t-16.5 116.5t-86 62.5q-27 0 -51 -12q-39 -20 -60.5 -53t-21.5 -88q-8 -74 -8 -129 q0 -45 9 -75t38 -77q23 -39 53 -69q10 -10 1 -28t-40 -34q-8 -4 -22 -6q-8 -2 -82 -8t-119 -6q-51 0 -74.5 6t-42.5 20q-37 37 -37 66z" />
<glyph unicode="n" horiz-adv-x="921" d="M20 86q0 31 21 41l55 33l25 20q16 18 20 42t4 91v111l-4 102q-8 -2 -16 -2q-23 0 -47 13q-45 27 -45 73q0 31 24 60q53 66 189 137q12 6 26 6q57 0 70 -65q6 -25 4 -58l-2 -26l14 16l39 37q29 29 41 39q27 23 56 32q53 20 106 21q82 0 137.5 -49t55.5 -123 q0 -33 2 -100.5t2 -100.5l2 -127q39 0 67.5 -33.5t28.5 -54.5q0 -31 -76 -119q-63 -70 -100 -99.5t-74 -43.5q-10 -4 -29 -4q-63 0 -81 63q-4 20 -5 29q0 25 39 88q14 18 19.5 50t5.5 114v41l-6 104l-8 80q-4 20 -28 35.5t-56 15.5q-35 0 -62 -16l-24 -14 q-29 -25 -41.5 -52.5t-18.5 -86.5l-2 -41l-4 -64q0 -70 9 -93.5t57 -55.5q16 -10 28.5 -22.5t20.5 -28t8 -35.5q0 -53 -33 -54q-74 -12 -145.5 -18t-108.5 -6q-53 0 -82.5 8t-46.5 22q-31 29 -31 68z" />
<glyph unicode="o" horiz-adv-x="856" d="M57 397q0 23 2 33q16 170 115.5 267.5t253.5 97.5h51q25 -6 35 -9q121 -20 203 -128.5t82 -266.5v-33q-4 -25 -4 -34q-43 -338 -365 -338q-156 0 -252 85t-117 253q-2 25 -3 43t-1 30zM266 387q0 -111 41 -160t121 -49q76 0 119 47t43 150q2 27 2 37q0 117 -82 172 q-41 26 -81 26h-3q-45 0 -81 -23.5t-58 -70.5q-10 -29 -15.5 -46t-5.5 -48v-35z" />
<glyph unicode="p" horiz-adv-x="960" d="M16 596q0 43 72 96l27 21l41 32q68 51 110 52q53 0 88 -74l11 -31l26 27q92 74 184 74q86 0 170 -62q76 -53 119 -176q27 -74 27 -168q0 -31 -2 -47q0 -23 -5.5 -46t-15.5 -54q-29 -88 -63.5 -140.5t-85.5 -85.5q-68 -41 -152 -41q-76 0 -123 33t-59 86q-4 16 -4 27 q0 39 22.5 67.5t49.5 28.5l82 -6q16 -2 35.5 4t43.5 27q66 51 66 145q-2 18 -2 27q-8 78 -51 123t-107 45q-29 0 -53 -9q-117 -33 -117 -211v-356q12 0 33 -8q63 -29 63 -90q0 -39 -34 -74l-21 -18q-199 -162 -244 -162q-25 0 -46 18.5t-27 40t-6 33.5q0 25 43 96 q12 18 14 65.5t2 252.5v65v168v25l-2 92q-10 -2 -19 -2q-47 0 -75 45q-14 23 -15 45z" />
<glyph unicode="q" horiz-adv-x="927" d="M59 383q0 152 67 252t179 135q61 18 98 18q45 0 109 -28l45 -23l21 -10q23 51 69 78q16 10 38 16t38 6q68 0 84 -57l10 -63l-6 -101l-2 -602l29 -8q61 -29 61 -74q0 -23 -8 -42t-33 -52q-31 -45 -74 -80q-57 -49 -103 -71.5t-79 -22.5q-41 0 -60.5 31.5t-19.5 50.5 q0 23 21.5 72t44.5 96l-2 233l-4 199l-2 49q0 209 -129 209q-31 0 -75 -15.5t-76 -58.5t-32 -102q-2 -14 -2 -27v-22q0 -94 46 -130t159 -36q39 0 65.5 -24.5t26.5 -59.5q0 -6 -6 -26.5t-23.5 -43t-52.5 -49.5q-47 -35 -116 -35q-49 0 -102.5 21.5t-96.5 62.5 q-51 47 -79 131t-28 203z" />
<glyph unicode="r" horiz-adv-x="647" d="M14 598q0 23 19 53q8 18 39 39q104 82 139 102q27 15 48 14q7 0 13 -1q20 -4 33.5 -21.5t32.5 -62.5l6 -21l18 23q10 10 21 20q8 8 23 17q25 18 54 28.5t52 10.5q109 0 139 -131q4 -14 4 -45t-4 -45q-10 -45 -39 -76q-18 -18 -41.5 -29.5t-44.5 -11.5q-31 0 -37 16 l-36 70q-8 20 -31 35q-12 6 -25 6q-25 0 -37 -23.5t-15 -64.5t-3 -178v-33q0 -59 5 -74.5t32 -34.5l43 -20q31 -14 41 -26.5t14 -41.5q2 -10 2 -18q-1 -38 -29 -56q-34 -22 -137 -22h-133h-35q-29 0 -58.5 1t-43.5 21q-27 29 -27 58q0 51 78 82q25 8 36 38.5t11 98.5 q0 45 -6 123l-4 110l-37 7q-80 12 -80 63z" />
<glyph unicode="s" horiz-adv-x="768" d="M29 215q0 33 16 54.5t41 28.5t39 7q33 0 94 -43q14 -10 119 -88q25 -18 59 -18q25 0 54 12q34 15 34 47q0 11 -4 23q-6 27 -40.5 47t-149.5 61l-25 8q-203 57 -203 209q0 18 3 29q10 80 44.5 123t114.5 71q18 6 37 10.5t41 4.5q45 0 100 -19l43 -16q6 18 21 33 q32 32 72 32h2q41 0 63 -30l25 -45l30 -76l25 -72q2 -6 2 -20q0 -61 -53 -72q-25 -4 -33 -4q-31 0 -67.5 23.5t-114.5 93.5q-18 14 -37 14q-29 0 -59 -25q-18 -16 -19 -38q0 -25 16 -37q33 -23 69 -38.5t161 -58.5l39 -18q125 -72 125 -192q0 -37 -13 -74 q-47 -156 -233 -174q-53 0 -86 5t-70 23l-22 -22q-47 -39 -88 -39q-51 0 -111.5 97.5t-60.5 162.5z" />
<glyph unicode="t" horiz-adv-x="593" d="M-29 659q0 16 12.5 46t39.5 59q16 18 61 61q12 10 26.5 32t34 58.5t32.5 52t32.5 28t40.5 12.5q55 0 72 -56l12 -67q4 -39 5 -68t1 -51l80 -2q55 0 79.5 -5t39.5 -20q32 -28 32 -61q0 -31 -20.5 -50.5t-57 -28.5t-118.5 -9h-33l-2 -125v-141q0 -82 4 -100.5t27 -24.5 q20 -6 32 0q10 4 48 39q23 20 51 20q45 0 67 -45q10 -27 11 -49q0 -66 -53.5 -119t-147.5 -65q-14 -2 -39 -3q-203 0 -203 252l-2 47l-2 318l-35 2l-20 2h-43q-63 0 -64 61z" />
<glyph unicode="u" horiz-adv-x="903" d="M4 586q0 53 72 106l63 47l13 11l34 20q47 25 74 25q39 0 57 -72l5 -14l8 -439q0 -69 105 -69h3q10 0 43 10t56.5 40t23.5 75v22l2 62l2 79q-16 0 -41 11q-73 37 -73 98q0 27 16 47q8 12 20.5 23.5t28.5 23.5l86 62q35 27 55.5 36t36.5 9q49 0 60.5 -42t11.5 -227v-59 l-2 -162q0 -102 11 -130.5t81 -94.5q10 -10 10 -26q0 -22 -32 -52q-12 -10 -54.5 -15t-120.5 -5q-53 0 -82.5 24.5t-39.5 69.5q-31 -43 -76 -70q-63 -39 -133 -39q-78 0 -134.5 46t-70.5 124q-6 35 -6 103v59l2 35l-2 51l-2 113q-8 -2 -23 -2q-41 0 -64.5 27.5t-23.5 58.5z " />
<glyph unicode="v" horiz-adv-x="880" d="M-31 692q0 29 27 58l18 14q25 10 40.5 12t62.5 2h96l121 2h6q37 0 57 -49q10 -16 6 -33q-2 -23 -12 -37t-41 -40.5t-31 -49.5q0 -31 68 -188l39 -111l43 93q23 49 50.5 106t27.5 86t-23 59q-2 4 -37 46l-16 18q-12 12 -12 31q0 23 22.5 45t83.5 28h10l80 -4q16 0 57.5 3 t57.5 3q31 0 57 -10q51 -18 52 -71q0 -25 -15 -46l-53 -47q-53 -45 -92 -127q-45 -98 -109 -315l-8 -27q-33 -92 -47 -118.5t-35 -26.5q-51 0 -85 -2t-64 -4q-63 0 -95 74q-12 29 -65 180l-14 33l-31 77q-41 100 -51 127q-25 63 -30 86t-22.5 38.5t-76.5 51.5q-16 10 -17 33 z" />
<glyph unicode="w" horiz-adv-x="1239" d="M-14 696v10q0 46 34 58q38 14 183 14q94 0 124.5 -8t43 -29.5t12.5 -38.5q0 -29 -78 -122q-4 -4 0 -19q2 -10 23 -76l28 -90l2 -6q14 -37 19.5 -52t30.5 -63l26 86l4 11q29 76 39 104q27 70 27 94q0 27 -25 60q-29 33 -45 53q-6 10 -6 23q0 14 13.5 36.5t59.5 30.5t177 8 q68 0 88 -4t37 -18q27 -27 26 -56q0 -43 -57 -86q-20 -14 -20 -47q0 -29 12 -66.5t43 -105.5l51 -108l25 69q31 82 61 166q10 31 10 51q0 25 -18 48q-33 35 -59 63q-8 8 -9 25q0 25 33 51q14 12 65.5 17t131.5 5q86 0 122 -26q33 -23 33 -58v-8q-4 -31 -18.5 -48t-63.5 -52 q-20 -14 -62 -105.5t-83 -207.5q-18 -49 -33.5 -106.5t-25 -107t-27.5 -57.5t-104 -8h-31q-49 0 -60 6q-8 4 -24 45l-59 170l-13 31l-28 76l-43 -115q-49 -135 -71 -175t-44 -40h-64q-90 0 -109.5 9t-35.5 61l-18 55l-17 47l-33 100l-63 193l-4 8q-23 78 -27 88 q-12 29 -80 78l-12 8q-4 2 -8 12q-6 14 -6 39z" />
<glyph unicode="x" horiz-adv-x="860" d="M12 74q0 20 12.5 39.5t31 34t67.5 40.5q4 4 18 21q35 45 37 47l10 12l45 60l19 24l41 51l-74 95l-14 20q-55 70 -65.5 81t-53.5 42q-23 18 -32 41t-9 37q0 61 68 67h133h41h10l16 -2l37 -4q68 -6 68 -65q0 -41 -37 -115q-6 -10 -6 -22q0 -43 55 -86l27 34q49 78 49 97 q0 16 -33 55q-12 12 -12 33q0 39 49 61q8 6 22.5 9t40.5 3h9l131 -6l67 -2q23 -6 39 -28q10 -16 10 -33q0 -25 -27.5 -54.5t-90.5 -68.5q-12 -8 -37 -38t-56 -71l-43 -57l46 -74q33 -53 61 -92q23 -31 45 -53l12 -10l58 -47l32 -31q18 -23 19 -49q0 -41 -41 -64 q-14 -8 -86 -8h-127q-72 0 -91.5 4t-35.5 18q-25 23 -25 56q0 45 50 94q6 6 -1.5 30.5t-44.5 80.5l-24 32l-31 -34q-43 -68 -43 -99t43 -74q10 -10 10 -30q0 -12 -12 -36t-49 -34l-96 -6h-84h-43q-49 0 -66 10q-39 20 -39 64z" />
<glyph unicode="y" horiz-adv-x="892" d="M-49 -162q0 53 34.5 88t88.5 35q59 0 100 -67l31 -60q4 -16 28 -16q14 0 37 11t45.5 40t44.5 80l13 35l-129 297q-55 127 -111 254q-23 45 -90 90q-27 18 -27 75q4 51 45 60.5t220 9.5l14 -2l49 2q41 0 64 -14q38 -18 38 -58q0 -20 -8 -30l-45 -56q-39 -45 -39 -73 q0 -29 74 -177l51 -110l33 74q78 180 78 221q0 43 -82 139q-6 10 -6 21q0 29 30 49q14 10 50 10h20h168l74 -2q27 -2 45 -26q15 -21 15 -42q0 -5 -1 -10q-2 -14 -16 -35.5t-37 -48.5q-49 -51 -66.5 -92t-99.5 -270l-27 -76q-113 -291 -169 -382t-150 -130l-57 -21 q-47 -10 -80 -10q-53 0 -105 21q-63 29 -96 64.5t-45 88.5q-4 14 -4 43z" />
<glyph unicode="z" horiz-adv-x="763" d="M43 102q0 35 26.5 76t55.5 80q37 47 78 94l135 166l37 47l37 51q-25 6 -43 7q-37 0 -76 -19.5t-125 -77.5l-16 -12q-14 -10 -29 -10q-14 0 -35 10q-29 16 -29 51q0 31 25 97l39 96l10 22q33 51 68 51q23 0 63 -22l64 -31l217 6q63 0 90 -8q65 -20 65 -86q0 -41 -28 -82 q-66 -88 -158 -200l-88 -113l-51 -72l-39 -53l39 -4q70 0 120 25.5t126 105.5q12 12 32 12q25 0 53.5 -19.5t28.5 -60.5q0 -50 -59 -161l-41 -74q-12 -18 -34.5 -26.5t-31.5 -8.5q-16 0 -94 39q-25 12 -78 12q-47 0 -174 -12q-35 0 -66.5 1t-58.5 11q-55 23 -55 92z" />
<glyph unicode="&#xa1;" horiz-adv-x="483" d="M88 188l68 299q4 18 9 43t5 60l8 102q0 76 16.5 99.5t43.5 23.5q25 0 41 -18.5t18 -30.5l18 -225q0 -45 11.5 -99.5t29.5 -113.5l33 -107q6 -12 6 -33q0 -27 -18 -86q-37 -109 -141 -108q-18 0 -29 2q-61 10 -90 55t-29 137zM96 1044q0 12 4 41q20 106 119 123q10 2 29 2 q61 0 101 -44t40 -119q0 -41 -10 -68q-45 -92 -129 -92q-27 0 -51 8q-102 31 -103 149z" />
<glyph unicode="&#xa2;" horiz-adv-x="815" d="M59 438q0 264 177 391q29 20 62.5 37t74.5 29l-8 33q0 115 47 114q86 0 99 -7t13 -60v-68l-2 -12l49 -12q55 -18 94.5 -44t61.5 -57q31 -39 31 -86q0 -70 -66 -98q-14 -4 -20 -6q-18 -4 -39 0q-31 6 -51 18q-4 4 -54 39l-28 17q-43 16 -74 16q-57 0 -95 -45t-46 -125 q0 -49 4 -85t18 -65q45 -94 125 -94q10 -2 27 -2q31 0 67 17q45 25 76 39t62 16q45 0 75.5 -28.5t30.5 -73.5q0 -16 -6 -39q-16 -47 -67.5 -89t-137.5 -69l-51 -12l10 -33q6 -41 6 -68q0 -43 -19.5 -56t-68.5 -13q-45 4 -59.5 14t-14.5 49q0 27 3 45l6 72q-145 27 -234 143 q-41 55 -59.5 112.5t-18.5 145.5z" />
<glyph unicode="&#xa3;" horiz-adv-x="1048" d="M23 113q0 53 34 100q45 68 164 82l41 2l23 49q14 49 14 107q0 33 -6 63l-47 2l-58 2q-59 0 -90 43q-16 23 -16 47q0 45 43 74q31 20 68 21h28l19 -3l14 -2q-23 57 -32 108.5t-9 82.5q0 141 99.5 236.5t262.5 95.5q45 0 114 -13.5t123 -55.5t86 -98.5t32 -107.5 q0 -63 -43 -110q-35 -35 -80 -35q-49 0 -80 41q-8 10 -17.5 27.5t-13.5 27.5q-29 72 -49 95.5t-44.5 27.5t-41.5 4q-111 0 -110 -152v-38q0 -6 8 -48l14 -65l6 -25l53 7l74 2q133 0 133 -97q0 -49 -30.5 -69.5t-108.5 -20.5h-90l-14 2l-2 -26l-5 -37l-4 -35l-4 -21 q-6 -43 -24 -100l-11 -31l41 -20l15 -4l37 -12l24 -9q66 -16 99 -16q51 0 73.5 38t50.5 154q4 18 62 19q59 0 97 -48t38 -134q0 -23 -2 -35q0 -16 -5 -34.5t-15 -41.5q-37 -76 -89.5 -111.5t-130.5 -35.5q-94 0 -245 61q-20 8 -51 23.5t-54 29.5q-14 10 -63 -22 q-4 -2 -15 -15q-18 -20 -39.5 -45.5t-83.5 -36.5q-20 -4 -32 -4q-74 0 -119 74q-16 29 -16 66z" />
<glyph unicode="&#xa5;" horiz-adv-x="1591" d="M35 1096q0 66 17.5 119t51.5 102q59 88 133 129t195 41q12 0 106.5 -3t186.5 -3l125 4q23 0 41 -11.5t35 -41.5q10 -16 10 -41q0 -33 -18 -48l-58 -36q-45 -27 -45 -60q0 -37 68 -153l78 -144l57 113q84 145 84 190q0 31 -22.5 54.5t-80.5 54.5q-14 10 -14 29q0 20 16 45 q12 25 43 34l56 11q49 10 106.5 14t110.5 4q106 0 162.5 -32.5t56.5 -77.5q0 -16 -6 -29q-12 -27 -30 -39t-75 -35q-23 -8 -49 -49t-116 -211q-59 -113 -115 -199q-63 -104 -64 -149q0 -10 4.5 -29.5t10.5 -48.5l6 -22h147q76 0 131.5 -1.5t71.5 -16.5t16 -34 q0 -20 -12 -31.5t-31.5 -15.5t-66.5 -4h-78l-176 -2l24 -49h119h17h74.5h37.5q53 0 67.5 -13.5t14.5 -35.5q0 -18 -15.5 -33.5t-90.5 -15.5h-76l-107 2q29 -12 29 -41q0 -35 -41 -74q-76 -70 -82 -76q-33 -31 -86 -74l-104 -88q-29 -12 -45 -12q-45 0 -72 21q-45 35 -45 71 q0 47 80 158l18 35q14 37 8 69l-284 2q-242 0 -297 4.5t-78 24.5q-12 12 -12 29q0 16 12 29q23 18 93.5 22t293.5 4l287 -4l-2 49l-295 -4h-105q-160 0 -201.5 4t-59 19.5t-17.5 33.5q0 20 18.5 35t93.5 15q68 0 134.5 -1t134.5 -1h303q0 74 -14.5 106.5t-118.5 214.5 q-27 45 -58.5 105.5t-60.5 115.5q-82 168 -160 168q-41 0 -88 -33q-68 -43 -82 -129q-2 -12 -2 -36q0 -61 29 -103q41 -63 80 -63q25 0 73 26.5t99 32.5q49 8 80.5 -22.5t31.5 -90.5q0 -20 -4 -45.5t-30 -68.5q-66 -96 -250 -97q-143 0 -240.5 126t-97.5 311z" />
<glyph unicode="&#xa8;" horiz-adv-x="602" d="M57 967q0 16 5.5 50t40 53.5t61.5 19.5q72 0 92 -68q10 -35 10 -55q0 -51 -35 -82q-31 -29 -69 -29q-47 0 -84 47q-8 8 -14.5 27.5t-6.5 36.5zM334 967q0 16 5 50t40 53.5t61 19.5q72 0 92 -68q2 -4 5.5 -23.5t3.5 -31.5q0 -55 -33 -82q-31 -29 -70 -29q-47 0 -84 47 q-8 8 -14 27.5t-6 36.5z" />
<glyph unicode="&#xaa;" horiz-adv-x="839" d="M-14 365v170h872v-170h-872zM-6 676q0 12 2 18l4 13q16 43 90 43l10 -2l23 -3l37 3q66 8 110.5 67t85.5 197l54 172q14 41 14 65q0 33 -47 47q-16 4 -29 4q-23 0 -56.5 -13t-51.5 -52q-10 -25 -11 -43q0 -51 41 -51l43 -2q25 0 37 -29q4 -8 4 -20q0 -18 -12 -41 q-23 -37 -80 -37q-18 0 -29 2q-135 23 -135 178q0 39 19 76q27 63 78 97t129 34q16 2 58 -1t69 -3q61 0 98 -2t72 -4q43 0 74.5 -1.5t42 -15.5t10.5 -29q0 -14 -9 -22l-32 -23q-27 -18 -27 -34t27 -103l6 -20l39 -133q23 -100 24 -105q10 -35 62 -49q18 -8 12 -43 q0 -11 -8 -25q-8 -16 -17 -22l-120 -113l-15 -8q-14 -8 -28 -8q-18 0 -31 12q-25 23 -25 41q0 16 23 49l14 23q23 41 23 65q0 23 -17 82l-4 17l-20 2h-17l-90 2h-43l-10 -2l-10 -29q-66 -168 -140.5 -239.5t-177.5 -71.5q-68 0 -105.5 25.5t-37.5 64.5zM500 1040l26 -2l84 2 l-4 23l-8 29l-27 94l-6 18l-8 23l-10 -23q-23 -57 -32 -91t-15 -73z" />
<glyph unicode="&#xad;" horiz-adv-x="612" d="M57 457l2 26q8 45 39 56.5t146 11.5h202l48 -2q25 -8 41 -35t16 -63q0 -8 -4 -21q-4 -12 -8 -20q-18 -29 -42 -35t-106 -6h-88l-160 -4q-86 0 -86 92z" />
<glyph unicode="&#xaf;" horiz-adv-x="612" d="M57 940q0 33 16.5 53.5t41.5 20.5h385q53 0 53 -76q0 -78 -49 -78h-387q-37 0 -54 43q-6 18 -6 37z" />
<glyph unicode="&#xb4;" horiz-adv-x="370" d="M59 934q0 27 15 49l80 129q33 57 79 57q18 0 39 -10q39 -20 39 -67q0 -29 -18 -60l-74 -123q-35 -55 -82 -55q-23 0 -43 14q-35 23 -35 66z" />
<glyph unicode="&#xb7;" d="M88 557q0 57 29 98q45 63 112 64q16 0 56.5 -11.5t67 -46t26.5 -86.5q2 -14 2 -22q0 -66 -34 -108t-89 -50q-8 -2 -27 -2q-59 0 -101 44t-42 120z" />
<glyph unicode="&#xb8;" horiz-adv-x="284" d="M59 -150q0 57 43 78q18 8 43 9q59 0 74 -48l6 -36v-140q0 -59 -45 -75q-18 -8 -43 -9q-37 0 -57.5 24.5t-20.5 63.5v133z" />
<glyph unicode="&#xba;" horiz-adv-x="839" d="M-14 365v170h872v-170h-872zM137 948q0 33 2 51q0 66 9.5 103t23.5 69q25 49 34 64.5t21 26.5q29 25 56 24q18 0 34 -10l19 18q61 61 139 62q80 0 132 -55.5t85 -186.5q8 -41 9 -97t1 -97q-8 -100 -35.5 -163t-74.5 -102q-76 -61 -168 -61q-37 0 -55 4q-162 33 -217 238 q-14 55 -15 112zM266 958q0 -47 7.5 -84.5t19.5 -62.5q45 -92 110 -102q8 -2 25 -2q63 0 111 79q37 68 36 215q0 52 -12 93q-10 35 -20.5 62.5t-32.5 55.5l-18 19q-14 10 -29 10q-33 0 -45 -28.5t-10 -55.5q0 -27 14 -41t31 -8l32 8q16 6 31 6q31 0 43 -32q4 -12 4 -21 q0 -33 -29.5 -60.5t-74.5 -27.5l-47 4l-23 8q-37 14 -56.5 38t-37.5 77l-4 18q-25 -68 -25 -168z" />
<glyph unicode="&#xbf;" horiz-adv-x="788" d="M29 297q0 84 45 156q23 41 53.5 70.5t138.5 113.5q10 10 26.5 31.5t29.5 50.5l6 14l14 39l16 31q14 23 45 22q23 0 37 -14q33 -31 33 -131q-4 -37 -29 -74q-31 -45 -116 -129l-35 -43q-33 -53 -33 -94q0 -72 39 -111t111 -39q55 0 91 27t36 62q0 25 -19 40l-63 50 q-61 37 -62 84q0 41 56 82q33 27 86 26q51 0 102 -27.5t88 -84t37 -148.5q0 -12 -2 -28.5t-2 -24.5q-23 -158 -183 -221q-51 -20 -97 -28.5t-95 -8.5q-152 0 -253 89t-101 218zM248 1047q0 12 4 40q20 106 119 123q8 2 26 2q59 0 101.5 -44t42.5 -119q-1 -45 -13 -68 q-41 -94 -127 -94q-20 0 -51 10q-102 31 -102 150z" />
<glyph unicode="&#xc0;" horiz-adv-x="1685" d="M-33 59q0 12 4 33l9 25q18 49 59 67.5t123 18.5l20 -2l43 -4q10 -2 31 -2h18q16 4 25 4q133 16 222 133t171 395l107 346q29 86 28 127q0 66 -94 98q-12 2 -24 7q-10 2 -31 2q-49 0 -109 -25q-37 -14 -64.5 -41t-45 -69t-17.5 -82q0 -45 22.5 -75t57.5 -30l84 -2 q51 0 76 -57q6 -16 6 -37q0 -45 -24 -86q-43 -76 -160 -76h-27q-18 4 -28 4q-127 23 -199 117t-72 239q0 78 35 154q55 125 156.5 192.5t257.5 67.5q18 2 101 -3t155 -5q113 0 191.5 -4t146.5 -6h71.5h40.5q68 0 87.5 -6.5t39.5 -36.5q14 -20 15 -47q0 -27 -15 -47l-67 -43 q-29 -18 -33 -23q-20 -18 -21 -45q0 -27 54 -209l12 -39q25 -78 49.5 -158.5t30.5 -107.5q43 -195 49 -213q20 -66 121 -96q29 -10 28 -60q0 -16 -3 -32.5t-15 -43.5q-16 -31 -33 -43l-243 -225l-27 -16q-29 -14 -57 -15q-18 0 -34 6.5t-30 16.5q-47 41 -47 80q0 35 45 98 l29 45q43 80 43 137q0 49 -31 158l-10 33l-41 4l-31 2q-35 2 -63.5 3t-57.5 1h-59l-86 -2l-23 -2l-20 -57q-129 -338 -277.5 -479.5t-355.5 -141.5q-139 0 -214 51.5t-75 128.5zM981 786l53 -4q27 0 82 2t86 2l-10 43l-14 58q-14 51 -28.5 102t-27.5 86l-12 37l-16 45 l-19 -43q-47 -113 -66.5 -182.5t-27.5 -145.5z" />
<glyph unicode="&#xc1;" horiz-adv-x="1685" d="M-33 59q0 12 4 33l9 25q18 49 59 67.5t123 18.5l20 -2l43 -4q10 -2 31 -2h18q16 4 25 4q133 16 222 133t171 395l107 346q29 86 28 127q0 66 -94 98q-12 2 -24 7q-10 2 -31 2q-49 0 -109 -25q-37 -14 -64.5 -41t-45 -69t-17.5 -82q0 -45 22.5 -75t57.5 -30l84 -2 q51 0 76 -57q6 -16 6 -37q0 -45 -24 -86q-43 -76 -160 -76h-27q-18 4 -28 4q-127 23 -199 117t-72 239q0 78 35 154q55 125 156.5 192.5t257.5 67.5q18 2 101 -3t155 -5q113 0 191.5 -4t146.5 -6h71.5h40.5q68 0 87.5 -6.5t39.5 -36.5q14 -20 15 -47q0 -27 -15 -47l-67 -43 q-29 -18 -33 -23q-20 -18 -21 -45q0 -27 54 -209l12 -39q25 -78 49.5 -158.5t30.5 -107.5q43 -195 49 -213q20 -66 121 -96q29 -10 28 -60q0 -16 -3 -32.5t-15 -43.5q-16 -31 -33 -43l-243 -225l-27 -16q-29 -14 -57 -15q-18 0 -34 6.5t-30 16.5q-47 41 -47 80q0 35 45 98 l29 45q43 80 43 137q0 49 -31 158l-10 33l-41 4l-31 2q-35 2 -63.5 3t-57.5 1h-59l-86 -2l-23 -2l-20 -57q-129 -338 -277.5 -479.5t-355.5 -141.5q-139 0 -214 51.5t-75 128.5zM981 786l53 -4q27 0 82 2t86 2l-10 43l-14 58q-14 51 -28.5 102t-27.5 86l-12 37l-16 45 l-19 -43q-47 -113 -66.5 -182.5t-27.5 -145.5zM1032 1620q0 27 15 49l79 129q33 57 80 57q18 0 39 -10q39 -20 39 -67q0 -29 -18 -60l-74 -123q-35 -55 -82 -55q-23 0 -43 14q-35 23 -35 66z" />
<glyph unicode="&#xc2;" horiz-adv-x="1685" d="M-33 59q0 12 4 33l9 25q18 49 59 67.5t123 18.5l20 -2l43 -4q10 -2 31 -2h18q16 4 25 4q133 16 222 133t171 395l107 346q29 86 28 127q0 66 -94 98q-12 2 -24 7q-10 2 -31 2q-49 0 -109 -25q-37 -14 -64.5 -41t-45 -69t-17.5 -82q0 -45 22.5 -75t57.5 -30l84 -2 q51 0 76 -57q6 -16 6 -37q0 -45 -24 -86q-43 -76 -160 -76h-27q-18 4 -28 4q-127 23 -199 117t-72 239q0 78 35 154q55 125 156.5 192.5t257.5 67.5q18 2 101 -3t155 -5q113 0 191.5 -4t146.5 -6h71.5h40.5q68 0 87.5 -6.5t39.5 -36.5q14 -20 15 -47q0 -27 -15 -47l-67 -43 q-29 -18 -33 -23q-20 -18 -21 -45q0 -27 54 -209l12 -39q25 -78 49.5 -158.5t30.5 -107.5q43 -195 49 -213q20 -66 121 -96q29 -10 28 -60q0 -16 -3 -32.5t-15 -43.5q-16 -31 -33 -43l-243 -225l-27 -16q-29 -14 -57 -15q-18 0 -34 6.5t-30 16.5q-47 41 -47 80q0 35 45 98 l29 45q43 80 43 137q0 49 -31 158l-10 33l-41 4l-31 2q-35 2 -63.5 3t-57.5 1h-59l-86 -2l-23 -2l-20 -57q-129 -338 -277.5 -479.5t-355.5 -141.5q-139 0 -214 51.5t-75 128.5zM889 1610q0 29 18 59l62 105q45 76 123 75q23 0 58.5 -9t70.5 -66l61 -105q18 -35 18 -59 q1 -37 -32 -60q-20 -14 -43 -14q-45 0 -80 59l-51 86l-50 -86q-35 -59 -81 -59q-20 0 -41 14q-33 20 -33 60zM981 786l53 -4q27 0 82 2t86 2l-10 43l-14 58q-14 51 -28.5 102t-27.5 86l-12 37l-16 45l-19 -43q-47 -113 -66.5 -182.5t-27.5 -145.5z" />
<glyph unicode="&#xc3;" horiz-adv-x="1685" d="M-33 59q0 12 4 33l9 25q18 49 59 67.5t123 18.5l20 -2l43 -4q10 -2 31 -2h18q16 4 25 4q133 16 222 133t171 395l107 346q29 86 28 127q0 66 -94 98q-12 2 -24 7q-10 2 -31 2q-49 0 -109 -25q-37 -14 -64.5 -41t-45 -69t-17.5 -82q0 -45 22.5 -75t57.5 -30l84 -2 q51 0 76 -57q6 -16 6 -37q0 -45 -24 -86q-43 -76 -160 -76h-27q-18 4 -28 4q-127 23 -199 117t-72 239q0 78 35 154q55 125 156.5 192.5t257.5 67.5q18 2 101 -3t155 -5q113 0 191.5 -4t146.5 -6h71.5h40.5q68 0 87.5 -6.5t39.5 -36.5q14 -20 15 -47q0 -27 -15 -47l-67 -43 q-29 -18 -33 -23q-20 -18 -21 -45q0 -27 54 -209l12 -39q25 -78 49.5 -158.5t30.5 -107.5q43 -195 49 -213q20 -66 121 -96q29 -10 28 -60q0 -16 -3 -32.5t-15 -43.5q-16 -31 -33 -43l-243 -225l-27 -16q-29 -14 -57 -15q-18 0 -34 6.5t-30 16.5q-47 41 -47 80q0 35 45 98 l29 45q43 80 43 137q0 49 -31 158l-10 33l-41 4l-31 2q-35 2 -63.5 3t-57.5 1h-59l-86 -2l-23 -2l-20 -57q-129 -338 -277.5 -479.5t-355.5 -141.5q-139 0 -214 51.5t-75 128.5zM889 1638q0 25 10 43q18 35 70 35h286q86 0 86 -69q0 -23 -8 -41q-17 -39 -76 -39h-282l-43 4 q-43 8 -43 67zM981 786l53 -4q27 0 82 2t86 2l-10 43l-14 58q-14 51 -28.5 102t-27.5 86l-12 37l-16 45l-19 -43q-47 -113 -66.5 -182.5t-27.5 -145.5z" />
<glyph unicode="&#xc4;" horiz-adv-x="1685" d="M-33 59q0 12 4 33l9 25q18 49 59 67.5t123 18.5l20 -2l43 -4q10 -2 31 -2h18q16 4 25 4q133 16 222 133t171 395l107 346q29 86 28 127q0 66 -94 98q-12 2 -24 7q-10 2 -31 2q-49 0 -109 -25q-37 -14 -64.5 -41t-45 -69t-17.5 -82q0 -45 22.5 -75t57.5 -30l84 -2 q51 0 76 -57q6 -16 6 -37q0 -45 -24 -86q-43 -76 -160 -76h-27q-18 4 -28 4q-127 23 -199 117t-72 239q0 78 35 154q55 125 156.5 192.5t257.5 67.5q18 2 101 -3t155 -5q113 0 191.5 -4t146.5 -6h71.5h40.5q68 0 87.5 -6.5t39.5 -36.5q14 -20 15 -47q0 -27 -15 -47l-67 -43 q-29 -18 -33 -23q-20 -18 -21 -45q0 -27 54 -209l12 -39q25 -78 49.5 -158.5t30.5 -107.5q43 -195 49 -213q20 -66 121 -96q29 -10 28 -60q0 -16 -3 -32.5t-15 -43.5q-16 -31 -33 -43l-243 -225l-27 -16q-29 -14 -57 -15q-18 0 -34 6.5t-30 16.5q-47 41 -47 80q0 35 45 98 l29 45q43 80 43 137q0 49 -31 158l-10 33l-41 4l-31 2q-35 2 -63.5 3t-57.5 1h-59l-86 -2l-23 -2l-20 -57q-129 -338 -277.5 -479.5t-355.5 -141.5q-139 0 -214 51.5t-75 128.5zM836 1653q0 16 5 50t39.5 53.5t61.5 19.5q72 0 92 -68q10 -35 10 -55q1 -51 -34 -82 q-31 -29 -70 -29q-47 0 -84 47q-8 8 -14 27.5t-6 36.5zM981 786l53 -4q27 0 82 2t86 2l-10 43l-14 58q-14 51 -28.5 102t-27.5 86l-12 37l-16 45l-19 -43q-47 -113 -66.5 -182.5t-27.5 -145.5zM1112 1653q0 16 5 50t40 53.5t62 19.5q72 0 92 -68q2 -4 5 -23.5t3 -31.5 q0 -55 -33 -82q-31 -29 -69 -29q-47 0 -84 47q-8 8 -14.5 27.5t-6.5 36.5z" />
<glyph unicode="&#xc5;" horiz-adv-x="1685" d="M-33 59q0 12 4 33l9 25q18 49 59 67.5t123 18.5l20 -2l43 -4q10 -2 31 -2h18q16 4 25 4q133 16 222 133t171 395l107 346q29 86 28 127q0 66 -94 98q-12 2 -24 7q-10 2 -31 2q-49 0 -109 -25q-37 -14 -64.5 -41t-45 -69t-17.5 -82q0 -45 22.5 -75t57.5 -30l84 -2 q51 0 76 -57q6 -16 6 -37q0 -45 -24 -86q-43 -76 -160 -76h-27q-18 4 -28 4q-127 23 -199 117t-72 239q0 78 35 154q55 125 156.5 192.5t257.5 67.5q18 2 101 -3t155 -5q113 0 191.5 -4t146.5 -6h71.5h40.5q68 0 87.5 -6.5t39.5 -36.5q14 -20 15 -47q0 -27 -15 -47l-67 -43 q-29 -18 -33 -23q-20 -18 -21 -45q0 -27 54 -209l12 -39q25 -78 49.5 -158.5t30.5 -107.5q43 -195 49 -213q20 -66 121 -96q29 -10 28 -60q0 -16 -3 -32.5t-15 -43.5q-16 -31 -33 -43l-243 -225l-27 -16q-29 -14 -57 -15q-18 0 -34 6.5t-30 16.5q-47 41 -47 80q0 35 45 98 l29 45q43 80 43 137q0 49 -31 158l-10 33l-41 4l-31 2q-35 2 -63.5 3t-57.5 1h-59l-86 -2l-23 -2l-20 -57q-129 -338 -277.5 -479.5t-355.5 -141.5q-139 0 -214 51.5t-75 128.5zM940 1704q0 66 46 114t114 48q70 0 118 -47t48 -115t-48 -115t-118 -47q-66 0 -113 47t-47 115 zM981 786l53 -4q27 0 82 2t86 2l-10 43l-14 58q-14 51 -28.5 102t-27.5 86l-12 37l-16 45l-19 -43q-47 -113 -66.5 -182.5t-27.5 -145.5zM1034 1704q0 -25 19.5 -45.5t48.5 -20.5q27 0 45 20.5t18 47.5t-18 45t-47 18q-27 0 -44.5 -17t-21.5 -48z" />
<glyph unicode="&#xc6;" horiz-adv-x="2111" d="M-29 55q0 70 66 105q35 16 58.5 20t80.5 4h94q80 0 133.5 28t124.5 110l29 34q33 47 60.5 113t74.5 215l33 104l41 132l55 198q8 31 8 60q0 59 -36.5 89.5t-104.5 30.5q-78 0 -118 -19t-87 -81q-23 -33 -32 -64.5t-9 -60.5q0 -82 111 -96l84 -10q55 0 55 -78 q0 -29 -7 -49.5t-23 -44.5q-55 -74 -154 -74q-37 0 -76 8q-102 20 -160 94q-49 59 -66.5 108.5t-17.5 135.5q0 84 30 157.5t98.5 145.5t197.5 107q29 8 49.5 10t50.5 2q106 -6 213 -10t260 -4l234 -2l190 -3l48 3h118q4 -2 16.5 6t41.5 30q12 12 32 13q39 0 85 -57.5 t87 -172.5l31 -88q6 -29 4 -51q-4 -35 -29.5 -56.5t-60.5 -21.5q-6 0 -22 4q-29 10 -61 42t-65.5 73t-105 53.5t-231.5 12.5l-47 -5v-79v-80l6 -230l53 -2q68 0 99.5 18.5t66.5 82.5q4 8 20 8q18 0 72 -19q16 -8 31 -32q23 -43 41 -82q90 -174 90 -254q0 -76 -76 -88 q-10 -2 -26 -2q-33 0 -63 25.5t-105 115.5q-6 6 -20.5 10t-48.5 7t-50.5 5.5t-24.5 2.5q-45 0 -61.5 -24t-16.5 -91q0 -61 13 -182l4 -136q39 -6 64.5 -10t54.5 -4q184 0 242.5 20.5t154.5 122.5l29 37q23 29 69 29q16 0 39 -6q55 -16 55 -78q0 -31 -16 -76l-55 -145l-6 -15 q-31 -78 -57.5 -105.5t-53.5 -31.5t-33 -4h-10q-25 0 -51 12q-33 18 -49.5 25.5t-42.5 7.5q-53 0 -110.5 -1t-119.5 -1l-280 2l-138 2l-28 8q-31 12 -48.5 36t-17.5 55q0 27 15 43l77 43q51 27 61.5 59.5t10.5 144.5l-2 146l-51 4h-160l-22 -51l-9 -23q-53 -137 -80 -231 q-8 -27 -25.5 -56.5t-62.5 -87.5q-86 -109 -202.5 -169t-229.5 -60q-88 0 -147.5 18.5t-97.5 55.5q-51 51 -52 110zM967 770l69 4l78 -4l-2 143l2 74l2 57v76v92q-31 -55 -41 -77.5t-18 -55.5l-37 -121l-37 -114l-2 -6z" />
<glyph unicode="&#xc7;" horiz-adv-x="1736" d="M-35 942q0 35 6 70q16 113 83 195.5t169 119.5q55 20 127 21q68 0 148 -21q41 -8 149 -53l68 -29l28 -12l23 22l14 19l17 20l20 25q12 16 27 31q27 29 68.5 61.5t105.5 58.5l57 21q74 20 148 20q176 0 288.5 -105.5t112.5 -254.5q0 -14 -2 -31.5t-2 -27.5 q-18 -139 -114.5 -222.5t-245.5 -83.5q-74 0 -157 21.5t-173 66.5l-53 29l-11 -76q-4 -59 -6 -85.5t-2 -47.5q0 -141 34 -244.5t91 -160.5q92 -92 193 -92q84 0 151 63l29 31q45 63 45 172q0 88 5 109.5t38 51t78 29.5q80 0 125 -82q27 -51 26 -125q0 -88 -45 -192 q-74 -166 -237 -242q-102 -45 -232 -45q-25 0 -54.5 3t-62.5 12q-209 51 -317 235q-115 193 -115 518q0 104 9.5 154.5t42.5 126.5l-19 12l-16 8l-52 23q-113 47 -196 47q-133 0 -158 -115q-4 -12 -4 -41q0 -115 109 -114q49 0 116 30q12 4 19 4q23 0 62.5 -28.5t39.5 -89.5 q0 -72 -61 -127q-70 -63 -187 -64q-12 0 -45 4q-131 20 -218 126t-87 251zM979 1122q55 -47 127 -70.5t133 -23.5q63 0 98 26.5t43 73.5q2 8 2 15v14q0 78 -98 113q-20 6 -31 8q-10 2 -32 2q-53 0 -108.5 -27.5t-102.5 -85.5zM1083 -150q0 57 43 78q18 8 43 9q59 0 74 -48 l6 -36v-140q0 -59 -45 -75q-18 -8 -43 -9q-37 0 -57.5 24.5t-20.5 63.5v133z" />
<glyph unicode="&#xc8;" horiz-adv-x="1597" d="M-29 1081q0 45 9 80q41 182 182 253t475 71l88 -2l178 -4h133h133l27 22q33 20 68 21q76 0 102 -66l80 -199q20 -53 20 -90q0 -66 -77 -88q-6 -2 -21 -2q-18 0 -35 8q-27 16 -39 27q-8 8 -53 66q-68 90 -350 90l-37 -4h-8l2 -387l14 -5l31 -4q10 -2 18 -2h11 q78 0 143 103q10 16 41 16q27 0 51 -16l29 -31l53 -104q80 -154 80 -238q0 -78 -72 -98q-18 -6 -35 -6q-29 0 -62.5 29.5t-113.5 117.5q-10 12 -32.5 14t-57.5 2q-57 0 -102 -16l-2 -78l-2 -63v-133v-142l166 -4q156 0 235.5 37t175.5 164q12 16 35 16q31 0 65.5 -30.5 t34.5 -63.5t-30 -106l-82 -201q-25 -57 -88 -70q-20 -4 -29 -4q-51 0 -84 39l-145 4l-283 4l-98 4l-43 2l-144 2q-25 0 -43 13q-45 27 -45 77q0 18 10.5 43t38 44.5t84.5 42.5q4 2 10.5 22.5t10.5 59t5 128t1 158.5v144.5t2 146.5q0 231 -26.5 317t-108.5 86q-33 0 -88 -16 q-76 -25 -117 -83t-41 -136q0 -59 25.5 -92t56.5 -33l51 25q43 18 78 18q96 0 117 -102q2 -8 2 -25q0 -53 -40 -103.5t-106 -72.5q-35 -10 -71 -10q-31 0 -65 6t-75.5 20.5t-77.5 43t-68 74.5t-53.5 128t-21.5 141zM705 1757q0 45 36 68q20 14 45 14q47 0 80 -53l80 -131 q18 -33 12 -60q-6 -72 -77 -71q-7 0 -23 4q-31 10 -51 43l-86 133q-16 25 -16 53z" />
<glyph unicode="&#xc9;" horiz-adv-x="1597" d="M-29 1081q0 45 9 80q41 182 182 253t475 71l88 -2l178 -4h133h133l27 22q33 20 68 21q76 0 102 -66l80 -199q20 -53 20 -90q0 -66 -77 -88q-6 -2 -21 -2q-18 0 -35 8q-27 16 -39 27q-8 8 -53 66q-68 90 -350 90l-37 -4h-8l2 -387l14 -5l31 -4q10 -2 18 -2h11 q78 0 143 103q10 16 41 16q27 0 51 -16l29 -31l53 -104q80 -154 80 -238q0 -78 -72 -98q-18 -6 -35 -6q-29 0 -62.5 29.5t-113.5 117.5q-10 12 -32.5 14t-57.5 2q-57 0 -102 -16l-2 -78l-2 -63v-133v-142l166 -4q156 0 235.5 37t175.5 164q12 16 35 16q31 0 65.5 -30.5 t34.5 -63.5t-30 -106l-82 -201q-25 -57 -88 -70q-20 -4 -29 -4q-51 0 -84 39l-145 4l-283 4l-98 4l-43 2l-144 2q-25 0 -43 13q-45 27 -45 77q0 18 10.5 43t38 44.5t84.5 42.5q4 2 10.5 22.5t10.5 59t5 128t1 158.5v144.5t2 146.5q0 231 -26.5 317t-108.5 86q-33 0 -88 -16 q-76 -25 -117 -83t-41 -136q0 -59 25.5 -92t56.5 -33l51 25q43 18 78 18q96 0 117 -102q2 -8 2 -25q0 -53 -40 -103.5t-106 -72.5q-35 -10 -71 -10q-31 0 -65 6t-75.5 20.5t-77.5 43t-68 74.5t-53.5 128t-21.5 141zM827 1620q0 27 15 49l80 129q33 57 79 57q18 0 39 -10 q39 -20 39 -67q0 -29 -18 -60l-74 -123q-35 -55 -82 -55q-23 0 -43 14q-35 23 -35 66z" />
<glyph unicode="&#xca;" horiz-adv-x="1597" d="M-29 1081q0 45 9 80q41 182 182 253t475 71l88 -2l178 -4h133h133l27 22q33 20 68 21q76 0 102 -66l80 -199q20 -53 20 -90q0 -66 -77 -88q-6 -2 -21 -2q-18 0 -35 8q-27 16 -39 27q-8 8 -53 66q-68 90 -350 90l-37 -4h-8l2 -387l14 -5l31 -4q10 -2 18 -2h11 q78 0 143 103q10 16 41 16q27 0 51 -16l29 -31l53 -104q80 -154 80 -238q0 -78 -72 -98q-18 -6 -35 -6q-29 0 -62.5 29.5t-113.5 117.5q-10 12 -32.5 14t-57.5 2q-57 0 -102 -16l-2 -78l-2 -63v-133v-142l166 -4q156 0 235.5 37t175.5 164q12 16 35 16q31 0 65.5 -30.5 t34.5 -63.5t-30 -106l-82 -201q-25 -57 -88 -70q-20 -4 -29 -4q-51 0 -84 39l-145 4l-283 4l-98 4l-43 2l-144 2q-25 0 -43 13q-45 27 -45 77q0 18 10.5 43t38 44.5t84.5 42.5q4 2 10.5 22.5t10.5 59t5 128t1 158.5v144.5t2 146.5q0 231 -26.5 317t-108.5 86q-33 0 -88 -16 q-76 -25 -117 -83t-41 -136q0 -59 25.5 -92t56.5 -33l51 25q43 18 78 18q96 0 117 -102q2 -8 2 -25q0 -53 -40 -103.5t-106 -72.5q-35 -10 -71 -10q-31 0 -65 6t-75.5 20.5t-77.5 43t-68 74.5t-53.5 128t-21.5 141zM684 1610q0 29 18 59l62 105q45 76 123 75q23 0 58.5 -9 t70.5 -66l61 -105q18 -35 19 -59q0 -37 -33 -60q-20 -14 -43 -14q-45 0 -80 59l-51 86l-49 -86q-35 -59 -82 -59q-20 0 -41 14q-33 20 -33 60z" />
<glyph unicode="&#xcb;" horiz-adv-x="1597" d="M-29 1081q0 45 9 80q41 182 182 253t475 71l88 -2l178 -4h133h133l27 22q33 20 68 21q76 0 102 -66l80 -199q20 -53 20 -90q0 -66 -77 -88q-6 -2 -21 -2q-18 0 -35 8q-27 16 -39 27q-8 8 -53 66q-68 90 -350 90l-37 -4h-8l2 -387l14 -5l31 -4q10 -2 18 -2h11 q78 0 143 103q10 16 41 16q27 0 51 -16l29 -31l53 -104q80 -154 80 -238q0 -78 -72 -98q-18 -6 -35 -6q-29 0 -62.5 29.5t-113.5 117.5q-10 12 -32.5 14t-57.5 2q-57 0 -102 -16l-2 -78l-2 -63v-133v-142l166 -4q156 0 235.5 37t175.5 164q12 16 35 16q31 0 65.5 -30.5 t34.5 -63.5t-30 -106l-82 -201q-25 -57 -88 -70q-20 -4 -29 -4q-51 0 -84 39l-145 4l-283 4l-98 4l-43 2l-144 2q-25 0 -43 13q-45 27 -45 77q0 18 10.5 43t38 44.5t84.5 42.5q4 2 10.5 22.5t10.5 59t5 128t1 158.5v144.5t2 146.5q0 231 -26.5 317t-108.5 86q-33 0 -88 -16 q-76 -25 -117 -83t-41 -136q0 -59 25.5 -92t56.5 -33l51 25q43 18 78 18q96 0 117 -102q2 -8 2 -25q0 -53 -40 -103.5t-106 -72.5q-35 -10 -71 -10q-31 0 -65 6t-75.5 20.5t-77.5 43t-68 74.5t-53.5 128t-21.5 141zM610 1653q0 16 5.5 50t40 53.5t61.5 19.5q72 0 92 -68 q10 -35 10 -55q0 -51 -35 -82q-31 -29 -69 -29q-47 0 -84 47q-8 8 -14.5 27.5t-6.5 36.5zM887 1653q0 16 5 50t40 53.5t61 19.5q72 0 92 -68q2 -4 5.5 -23.5t3.5 -31.5q0 -55 -33 -82q-31 -29 -70 -29q-47 0 -84 47q-8 8 -14 27.5t-6 36.5z" />
<glyph unicode="&#xcc;" horiz-adv-x="1026" d="M0 1087q0 37 11.5 75t29.5 77q72 154 202 196t466 42q2 0 44 4t142 4q78 0 106 -23q33 -31 33 -76q0 -47 -33 -63l-71 -35q-37 -14 -51 -74q-4 -18 -6.5 -62t-2.5 -249v-319l2 -80l2 -78l29 -4q43 -12 67.5 -42t24.5 -67q0 -35 -24 -69q-16 -20 -39 -42t-105 -96l-8 -6 l-74 -71q-55 -51 -81.5 -66.5t-57.5 -11.5q-45 0 -74.5 29.5t-29.5 70.5q0 14 7 33.5t20.5 40t42 56.5t39 149.5t10.5 421.5v153.5t2 159.5v55.5t2 53.5q0 16 -4 24q-14 43 -50 66.5t-94 23.5q-31 0 -78 -10q-113 -25 -147 -154l-6 -57q0 -135 106 -135q20 0 51 10l58 25 q6 4 20 4q31 0 62 -31q35 -29 35 -94q0 -59 -40 -107.5t-118 -72.5l-41 -11q-29 -4 -45 -4q-141 0 -256 133q-39 49 -58.5 125t-19.5 178zM582 1757q0 45 36 68q20 14 46 14q47 0 79 -53l80 -131q18 -33 13 -60q-6 -72 -78 -71q-7 0 -23 4q-31 10 -51 43l-86 133 q-16 25 -16 53z" />
<glyph unicode="&#xcd;" horiz-adv-x="1026" d="M0 1087q0 37 11.5 75t29.5 77q72 154 202 196t466 42q2 0 44 4t142 4q78 0 106 -23q33 -31 33 -76q0 -47 -33 -63l-71 -35q-37 -14 -51 -74q-4 -18 -6.5 -62t-2.5 -249v-319l2 -80l2 -78l29 -4q43 -12 67.5 -42t24.5 -67q0 -35 -24 -69q-16 -20 -39 -42t-105 -96l-8 -6 l-74 -71q-55 -51 -81.5 -66.5t-57.5 -11.5q-45 0 -74.5 29.5t-29.5 70.5q0 14 7 33.5t20.5 40t42 56.5t39 149.5t10.5 421.5v153.5t2 159.5v55.5t2 53.5q0 16 -4 24q-14 43 -50 66.5t-94 23.5q-31 0 -78 -10q-113 -25 -147 -154l-6 -57q0 -135 106 -135q20 0 51 10l58 25 q6 4 20 4q31 0 62 -31q35 -29 35 -94q0 -59 -40 -107.5t-118 -72.5l-41 -11q-29 -4 -45 -4q-141 0 -256 133q-39 49 -58.5 125t-19.5 178zM705 1620q0 27 14 49l80 129q33 57 80 57q18 0 39 -10q39 -20 38 -67q0 -29 -18 -60l-74 -123q-35 -55 -82 -55q-23 0 -43 14 q-35 23 -34 66z" />
<glyph unicode="&#xce;" horiz-adv-x="1026" d="M0 1087q0 37 11.5 75t29.5 77q72 154 202 196t466 42q2 0 44 4t142 4q78 0 106 -23q33 -31 33 -76q0 -47 -33 -63l-71 -35q-37 -14 -51 -74q-4 -18 -6.5 -62t-2.5 -249v-319l2 -80l2 -78l29 -4q43 -12 67.5 -42t24.5 -67q0 -35 -24 -69q-16 -20 -39 -42t-105 -96l-8 -6 l-74 -71q-55 -51 -81.5 -66.5t-57.5 -11.5q-45 0 -74.5 29.5t-29.5 70.5q0 14 7 33.5t20.5 40t42 56.5t39 149.5t10.5 421.5v153.5t2 159.5v55.5t2 53.5q0 16 -4 24q-14 43 -50 66.5t-94 23.5q-31 0 -78 -10q-113 -25 -147 -154l-6 -57q0 -135 106 -135q20 0 51 10l58 25 q6 4 20 4q31 0 62 -31q35 -29 35 -94q0 -59 -40 -107.5t-118 -72.5l-41 -11q-29 -4 -45 -4q-141 0 -256 133q-39 49 -58.5 125t-19.5 178zM582 1610q0 29 18 59l62 105q45 76 122 75q23 0 59 -9t70 -66l62 -105q18 -35 18 -59q1 -37 -32 -60q-20 -14 -43 -14q-45 0 -80 59 l-52 86l-49 -86q-35 -59 -82 -59q-20 0 -41 14q-33 20 -32 60z" />
<glyph unicode="&#xcf;" horiz-adv-x="1026" d="M0 1087q0 37 11.5 75t29.5 77q72 154 202 196t466 42q2 0 44 4t142 4q78 0 106 -23q33 -31 33 -76q0 -47 -33 -63l-71 -35q-37 -14 -51 -74q-4 -18 -6.5 -62t-2.5 -249v-319l2 -80l2 -78l29 -4q43 -12 67.5 -42t24.5 -67q0 -35 -24 -69q-16 -20 -39 -42t-105 -96l-8 -6 l-74 -71q-55 -51 -81.5 -66.5t-57.5 -11.5q-45 0 -74.5 29.5t-29.5 70.5q0 14 7 33.5t20.5 40t42 56.5t39 149.5t10.5 421.5v153.5t2 159.5v55.5t2 53.5q0 16 -4 24q-14 43 -50 66.5t-94 23.5q-31 0 -78 -10q-113 -25 -147 -154l-6 -57q0 -135 106 -135q20 0 51 10l58 25 q6 4 20 4q31 0 62 -31q35 -29 35 -94q0 -59 -40 -107.5t-118 -72.5l-41 -11q-29 -4 -45 -4q-141 0 -256 133q-39 49 -58.5 125t-19.5 178zM487 1653q0 16 5.5 50t40 53.5t61.5 19.5q72 0 92 -68q10 -35 10 -55q1 -51 -34 -82q-31 -29 -70 -29q-47 0 -84 47q-8 8 -14.5 27.5 t-6.5 36.5zM764 1653q0 16 5 50t40 53.5t61 19.5q72 0 93 -68q2 -4 5 -23.5t3 -31.5q0 -55 -33 -82q-31 -29 -70 -29q-47 0 -84 47q-8 8 -14 27.5t-6 36.5z" />
<glyph unicode="&#xd0;" horiz-adv-x="1507" d="M-76 774v170h74l4 66q23 170 92.5 266t227.5 168q135 61 340 61q88 0 174 -18q152 -31 260 -94.5t190 -165.5q121 -154 152 -377q4 -27 6 -58.5t2 -62.5q0 -23 -1 -42.5t-9 -80.5q-23 -141 -71 -243.5t-124 -178.5q-102 -102 -244 -147q-76 -25 -138 -30t-281 -5h-132 q-82 0 -110.5 6t-39.5 21.5t-18.5 34t-7.5 28.5q0 57 113 103q31 12 43 77.5t12 257.5v33v29v24q0 35 -1 70t-1 70v18h-63l10 -20q4 -10 6 -25q2 -12 2 -22q0 -35 -22 -70q-31 -49 -99 -57q-8 -2 -26 -2q-47 0 -89 29.5t-89 99.5q-12 16 -29 53l-6 14h-107zM242 989 q0 -23 6 -45h162l-33 45q-20 25 -21 53q-6 63 56 78l57 10q27 6 53.5 8.5t52.5 2.5q127 0 160 -82l-24 -115h86v-170h-105l-2 -158l-2 -100l-2 -158v-149l72 4q186 0 308 142.5t122 363.5v31q0 12 -2 28.5t-2 24.5q-12 109 -58 200t-120 152q-88 74 -179.5 98.5t-248.5 24.5 q-43 0 -81 -11.5t-81 -31.5q-82 -39 -128 -106.5t-46 -139.5z" />
<glyph unicode="&#xd1;" horiz-adv-x="1724" d="M29 70q0 16 2 22q16 63 49 90t108 27q16 -2 56.5 -3t77.5 -1q18 -2 55 2q102 16 156.5 56t107.5 143q27 47 42 110.5t15 163.5q0 313 -6 397q-16 215 -127 215q-41 0 -101.5 -18.5t-103.5 -75.5t-43 -123q0 -47 22.5 -85t51.5 -44t33 -6q23 0 100 35q18 10 43 6 q43 -4 71 -41t28 -96q0 -68 -70 -120t-168 -52q-27 0 -55.5 3t-73.5 21q-156 63 -209 228q-23 68 -22 135q0 72 24 143q49 133 158 211l18 12l19 11l49 24q43 18 87 27.5t95 9.5q37 0 81 -3t108.5 -11t121.5 -8q45 0 107 6q23 0 37 -6q6 -2 33 -21q12 -10 18 -16 q16 -16 35 -41q8 -8 31 -43q53 -80 120 -187l95 -123l2 70v43v49q0 47 -18.5 66.5t-80.5 40.5q-25 6 -41 51q-8 18 -8 39q0 39 43 58.5t137 19.5h115l14 -2l86 2q76 0 107 -10.5t51 -38.5q12 -23 12 -48q1 -45 -26 -59l-72 -39q-43 -20 -52 -109.5t-9 -410.5v-309 q12 0 37 -8q86 -35 86 -107q0 -41 -33 -76l-131 -123l-123 -112q-59 -45 -90 -45q-8 0 -37 8q-53 16 -70 63q-8 23 -8 43q0 25 33 79t57 95q4 8 11.5 29t7.5 70l4 67v33q2 51 2 66q0 25 -20.5 60.5t-116.5 176.5q-76 113 -103 150q-53 78 -113 145v-43v-24l-4 -299v-148 q0 -49 -4 -78q-10 -41 -14 -63l-18 -64q-39 -117 -101.5 -205t-146.5 -149q-164 -119 -342 -119q-31 0 -45 2q-88 8 -138.5 29.5t-74.5 54.5q-41 55 -41 105zM889 1638q0 25 10 43q18 35 70 35h286q86 0 86 -69q0 -23 -8 -41q-17 -39 -76 -39h-282l-43 4q-43 8 -43 67z" />
<glyph unicode="&#xd2;" horiz-adv-x="1312" d="M92 735v47q0 121 23 217q16 70 45 127q41 84 65.5 123t42.5 58q55 49 111 49q35 0 70 -23l36 37q72 72 133.5 98.5t147.5 26.5q156 0 263.5 -114.5t168.5 -370.5q27 -113 27 -254q0 -63 -6 -135q-18 -201 -73 -326t-149 -203q-84 -66 -157.5 -93.5t-177.5 -27.5 q-27 0 -54.5 2t-54.5 9q-168 33 -270 141q-109 115 -164 330q-16 68 -21.5 127t-5.5 155zM348 698q0 -104 13.5 -169.5t39.5 -125.5q43 -90 101.5 -142t104.5 -58t61 -6q68 0 120 36.5t103 122.5q76 139 76 430q0 59 -6.5 97.5t-18.5 87.5q-29 104 -47 144t-61 91l-37 37 q-27 20 -60 21q-59 0 -88 -60q-12 -23 -16 -49.5t-4 -58.5q0 -51 29.5 -79t62.5 -20l65 19q31 12 58 12q59 0 88 -67q8 -18 8 -43q0 -66 -58.5 -119.5t-148.5 -53.5q-18 0 -37.5 1.5t-56.5 7.5l-47 14q-72 29 -112 77t-74 152l-11 39q-27 -78 -37 -156.5t-10 -181.5z M541 1757q0 45 37 68q20 14 45 14q47 0 79 -53l80 -131q18 -33 13 -60q-6 -72 -78 -71q-7 0 -23 4q-31 10 -51 43l-86 133q-16 25 -16 53z" />
<glyph unicode="&#xd3;" horiz-adv-x="1312" d="M92 735v47q0 121 23 217q16 70 45 127q41 84 65.5 123t42.5 58q55 49 111 49q35 0 70 -23l36 37q72 72 133.5 98.5t147.5 26.5q156 0 263.5 -114.5t168.5 -370.5q27 -113 27 -254q0 -63 -6 -135q-18 -201 -73 -326t-149 -203q-84 -66 -157.5 -93.5t-177.5 -27.5 q-27 0 -54.5 2t-54.5 9q-168 33 -270 141q-109 115 -164 330q-16 68 -21.5 127t-5.5 155zM348 698q0 -104 13.5 -169.5t39.5 -125.5q43 -90 101.5 -142t104.5 -58t61 -6q68 0 120 36.5t103 122.5q76 139 76 430q0 59 -6.5 97.5t-18.5 87.5q-29 104 -47 144t-61 91l-37 37 q-27 20 -60 21q-59 0 -88 -60q-12 -23 -16 -49.5t-4 -58.5q0 -51 29.5 -79t62.5 -20l65 19q31 12 58 12q59 0 88 -67q8 -18 8 -43q0 -66 -58.5 -119.5t-148.5 -53.5q-18 0 -37.5 1.5t-56.5 7.5l-47 14q-72 29 -112 77t-74 152l-11 39q-27 -78 -37 -156.5t-10 -181.5z M602 1620q0 27 14 49l80 129q33 57 80 57q18 0 39 -10q39 -20 39 -67q0 -29 -18 -60l-74 -123q-35 -55 -82 -55q-23 0 -43 14q-35 23 -35 66z" />
<glyph unicode="&#xd4;" horiz-adv-x="1312" d="M92 735v47q0 121 23 217q16 70 45 127q41 84 65.5 123t42.5 58q55 49 111 49q35 0 70 -23l36 37q72 72 133.5 98.5t147.5 26.5q156 0 263.5 -114.5t168.5 -370.5q27 -113 27 -254q0 -63 -6 -135q-18 -201 -73 -326t-149 -203q-84 -66 -157.5 -93.5t-177.5 -27.5 q-27 0 -54.5 2t-54.5 9q-168 33 -270 141q-109 115 -164 330q-16 68 -21.5 127t-5.5 155zM348 698q0 -104 13.5 -169.5t39.5 -125.5q43 -90 101.5 -142t104.5 -58t61 -6q68 0 120 36.5t103 122.5q76 139 76 430q0 59 -6.5 97.5t-18.5 87.5q-29 104 -47 144t-61 91l-37 37 q-27 20 -60 21q-59 0 -88 -60q-12 -23 -16 -49.5t-4 -58.5q0 -51 29.5 -79t62.5 -20l65 19q31 12 58 12q59 0 88 -67q8 -18 8 -43q0 -66 -58.5 -119.5t-148.5 -53.5q-18 0 -37.5 1.5t-56.5 7.5l-47 14q-72 29 -112 77t-74 152l-11 39q-27 -78 -37 -156.5t-10 -181.5z M500 1610q0 29 18 59l62 105q45 76 122 75q23 0 59 -9t70 -66l62 -105q18 -35 18 -59q1 -37 -32 -60q-20 -14 -43 -14q-45 0 -80 59l-51 86l-50 -86q-35 -59 -82 -59q-20 0 -41 14q-33 20 -32 60z" />
<glyph unicode="&#xd5;" horiz-adv-x="1312" d="M92 735v47q0 121 23 217q16 70 45 127q41 84 65.5 123t42.5 58q55 49 111 49q35 0 70 -23l36 37q72 72 133.5 98.5t147.5 26.5q156 0 263.5 -114.5t168.5 -370.5q27 -113 27 -254q0 -63 -6 -135q-18 -201 -73 -326t-149 -203q-84 -66 -157.5 -93.5t-177.5 -27.5 q-27 0 -54.5 2t-54.5 9q-168 33 -270 141q-109 115 -164 330q-16 68 -21.5 127t-5.5 155zM348 698q0 -104 13.5 -169.5t39.5 -125.5q43 -90 101.5 -142t104.5 -58t61 -6q68 0 120 36.5t103 122.5q76 139 76 430q0 59 -6.5 97.5t-18.5 87.5q-29 104 -47 144t-61 91l-37 37 q-27 20 -60 21q-59 0 -88 -60q-12 -23 -16 -49.5t-4 -58.5q0 -51 29.5 -79t62.5 -20l65 19q31 12 58 12q59 0 88 -67q8 -18 8 -43q0 -66 -58.5 -119.5t-148.5 -53.5q-18 0 -37.5 1.5t-56.5 7.5l-47 14q-72 29 -112 77t-74 152l-11 39q-27 -78 -37 -156.5t-10 -181.5z M479 1638q0 25 10 43q18 35 70 35h287q86 0 86 -69q0 -23 -8 -41q-17 -39 -76 -39h-283l-43 4q-43 8 -43 67z" />
<glyph unicode="&#xd6;" horiz-adv-x="1312" d="M92 735v47q0 121 23 217q16 70 45 127q41 84 65.5 123t42.5 58q55 49 111 49q35 0 70 -23l36 37q72 72 133.5 98.5t147.5 26.5q156 0 263.5 -114.5t168.5 -370.5q27 -113 27 -254q0 -63 -6 -135q-18 -201 -73 -326t-149 -203q-84 -66 -157.5 -93.5t-177.5 -27.5 q-27 0 -54.5 2t-54.5 9q-168 33 -270 141q-109 115 -164 330q-16 68 -21.5 127t-5.5 155zM348 698q0 -104 13.5 -169.5t39.5 -125.5q43 -90 101.5 -142t104.5 -58t61 -6q68 0 120 36.5t103 122.5q76 139 76 430q0 59 -6.5 97.5t-18.5 87.5q-29 104 -47 144t-61 91l-37 37 q-27 20 -60 21q-59 0 -88 -60q-12 -23 -16 -49.5t-4 -58.5q0 -51 29.5 -79t62.5 -20l65 19q31 12 58 12q59 0 88 -67q8 -18 8 -43q0 -66 -58.5 -119.5t-148.5 -53.5q-18 0 -37.5 1.5t-56.5 7.5l-47 14q-72 29 -112 77t-74 152l-11 39q-27 -78 -37 -156.5t-10 -181.5z M446 1653q0 16 5.5 50t40 53.5t61.5 19.5q72 0 92 -68q10 -35 10 -55q1 -51 -34 -82q-31 -29 -70 -29q-47 0 -84 47q-8 8 -14.5 27.5t-6.5 36.5zM723 1653q0 16 5 50t40 53.5t61 19.5q72 0 93 -68q2 -4 5 -23.5t3 -31.5q0 -55 -33 -82q-31 -29 -70 -29q-47 0 -84 47 q-8 8 -14 27.5t-6 36.5z" />
<glyph unicode="&#xd7;" horiz-adv-x="0" />
<glyph unicode="&#xd8;" horiz-adv-x="1312" d="M72 29q0 6 4 18l22 27q18 18 33 39q39 57 76 112q-55 94 -88 228q-16 68 -21.5 127t-5.5 155v47q0 121 23 217q16 70 45 127q41 84 65.5 123t42.5 58q55 49 111 49q35 0 70 -23l36 37q72 72 133.5 98.5t147.5 26.5q129 0 221 -74q37 57 58.5 72.5t72.5 30.5q14 4 41 4 q41 0 57.5 -10.5t10.5 -24.5q-18 -45 -45 -90q-8 -12 -80 -125q55 -100 96 -268q27 -113 27 -254q0 -63 -6 -135q-18 -201 -72.5 -326t-149.5 -203q-84 -66 -157.5 -93.5t-177.5 -27.5q-27 0 -54.5 2t-54.5 9q-143 29 -238 110l-53 -82q-8 -6 -14 -8q-18 -8 -70 -22 q-27 -6 -49 -5q-27 2 -42 17.5t-15 36.5zM348 698q0 -61 7 -117.5t20 -101.5l18 29l178 268q-59 29 -96.5 77t-68.5 144l-11 39q-27 -78 -37 -156.5t-10 -181.5zM459 307q76 -92 162 -106q33 -4 47 -4q68 0 120 36.5t103 122.5q76 139 76 430q0 59 -6.5 97.5t-18.5 87.5 l-12 45l-17 -23l19 -32q8 -18 8 -41q0 -59 -52 -109.5t-136 -62.5zM629 1096q0 -49 27.5 -77t60.5 -24l129 195l-12 16l-37 37q-27 20 -60 21q-59 0 -88 -60q-12 -23 -16 -49.5t-4 -58.5z" />
<glyph unicode="&#xd9;" horiz-adv-x="1642" d="M-2 1079q0 61 16.5 113.5t46.5 99.5q70 104 163 151.5t255 47.5q61 -6 132 -10t184 -4h43h45q20 4 28 4q23 0 37 -8q39 -18 46 -46t7 -53q0 -27 -15 -42t-62 -36.5t-59.5 -67.5t-12.5 -229v-120v-41v-37v-31v-29v-24q0 -37 -1 -74t-1 -72v-20q0 -190 45 -269t149 -79 q111 0 156 115.5t45 402.5v330v57v100q-4 51 -24 66l-50 26q-63 37 -63 93q-4 33 17.5 56.5t56.5 27.5l80 4l227 -4q59 0 79.5 -4.5t39.5 -18.5q35 -29 34 -74q1 -46 -40 -69l-62 -31q-45 -20 -65.5 -72.5t-20.5 -185.5q0 -154 29 -410l6 -127q0 -180 -49 -280.5 t-172 -173.5q-94 -57 -234 -58q-160 0 -258 72t-149 217q-25 66 -25 168l2 66l4 239v64l2 233q0 141 -28.5 201.5t-104.5 60.5q-39 0 -94 -15t-95 -61.5t-50 -113.5q-2 -8 -2 -14v-15q0 -55 27.5 -97t53.5 -36l99 19q12 4 22 4h21q88 0 104 -99q12 -76 -55.5 -139 t-167.5 -63q-27 0 -42 4t-22 4l-59 18q-195 80 -217 316zM868 1757q0 45 37 68q20 14 45 14q47 0 80 -53l80 -131q18 -33 12 -60q-6 -72 -78 -71q-6 0 -22 4q-31 10 -51 43l-86 133q-16 25 -17 53z" />
<glyph unicode="&#xda;" horiz-adv-x="1642" d="M-2 1079q0 61 16.5 113.5t46.5 99.5q70 104 163 151.5t255 47.5q61 -6 132 -10t184 -4h43h45q20 4 28 4q23 0 37 -8q39 -18 46 -46t7 -53q0 -27 -15 -42t-62 -36.5t-59.5 -67.5t-12.5 -229v-120v-41v-37v-31v-29v-24q0 -37 -1 -74t-1 -72v-20q0 -190 45 -269t149 -79 q111 0 156 115.5t45 402.5v330v57v100q-4 51 -24 66l-50 26q-63 37 -63 93q-4 33 17.5 56.5t56.5 27.5l80 4l227 -4q59 0 79.5 -4.5t39.5 -18.5q35 -29 34 -74q1 -46 -40 -69l-62 -31q-45 -20 -65.5 -72.5t-20.5 -185.5q0 -154 29 -410l6 -127q0 -180 -49 -280.5 t-172 -173.5q-94 -57 -234 -58q-160 0 -258 72t-149 217q-25 66 -25 168l2 66l4 239v64l2 233q0 141 -28.5 201.5t-104.5 60.5q-39 0 -94 -15t-95 -61.5t-50 -113.5q-2 -8 -2 -14v-15q0 -55 27.5 -97t53.5 -36l99 19q12 4 22 4h21q88 0 104 -99q12 -76 -55.5 -139 t-167.5 -63q-27 0 -42 4t-22 4l-59 18q-195 80 -217 316zM991 1620q0 27 15 49l79 129q33 57 80 57q18 0 39 -10q39 -20 39 -67q0 -29 -18 -60l-74 -123q-35 -55 -82 -55q-23 0 -43 14q-35 23 -35 66z" />
<glyph unicode="&#xdb;" horiz-adv-x="1642" d="M-2 1079q0 61 16.5 113.5t46.5 99.5q70 104 163 151.5t255 47.5q61 -6 132 -10t184 -4h43h45q20 4 28 4q23 0 37 -8q39 -18 46 -46t7 -53q0 -27 -15 -42t-62 -36.5t-59.5 -67.5t-12.5 -229v-120v-41v-37v-31v-29v-24q0 -37 -1 -74t-1 -72v-20q0 -190 45 -269t149 -79 q111 0 156 115.5t45 402.5v330v57v100q-4 51 -24 66l-50 26q-63 37 -63 93q-4 33 17.5 56.5t56.5 27.5l80 4l227 -4q59 0 79.5 -4.5t39.5 -18.5q35 -29 34 -74q1 -46 -40 -69l-62 -31q-45 -20 -65.5 -72.5t-20.5 -185.5q0 -154 29 -410l6 -127q0 -180 -49 -280.5 t-172 -173.5q-94 -57 -234 -58q-160 0 -258 72t-149 217q-25 66 -25 168l2 66l4 239v64l2 233q0 141 -28.5 201.5t-104.5 60.5q-39 0 -94 -15t-95 -61.5t-50 -113.5q-2 -8 -2 -14v-15q0 -55 27.5 -97t53.5 -36l99 19q12 4 22 4h21q88 0 104 -99q12 -76 -55.5 -139 t-167.5 -63q-27 0 -42 4t-22 4l-59 18q-195 80 -217 316zM889 1610q0 29 18 59l62 105q45 76 123 75q23 0 58.5 -9t70.5 -66l61 -105q18 -35 18 -59q1 -37 -32 -60q-20 -14 -43 -14q-45 0 -80 59l-51 86l-50 -86q-35 -59 -81 -59q-20 0 -41 14q-33 20 -33 60z" />
<glyph unicode="&#xdc;" horiz-adv-x="1642" d="M-2 1079q0 61 16.5 113.5t46.5 99.5q70 104 163 151.5t255 47.5q61 -6 132 -10t184 -4h43h45q20 4 28 4q23 0 37 -8q39 -18 46 -46t7 -53q0 -27 -15 -42t-62 -36.5t-59.5 -67.5t-12.5 -229v-120v-41v-37v-31v-29v-24q0 -37 -1 -74t-1 -72v-20q0 -190 45 -269t149 -79 q111 0 156 115.5t45 402.5v330v57v100q-4 51 -24 66l-50 26q-63 37 -63 93q-4 33 17.5 56.5t56.5 27.5l80 4l227 -4q59 0 79.5 -4.5t39.5 -18.5q35 -29 34 -74q1 -46 -40 -69l-62 -31q-45 -20 -65.5 -72.5t-20.5 -185.5q0 -154 29 -410l6 -127q0 -180 -49 -280.5 t-172 -173.5q-94 -57 -234 -58q-160 0 -258 72t-149 217q-25 66 -25 168l2 66l4 239v64l2 233q0 141 -28.5 201.5t-104.5 60.5q-39 0 -94 -15t-95 -61.5t-50 -113.5q-2 -8 -2 -14v-15q0 -55 27.5 -97t53.5 -36l99 19q12 4 22 4h21q88 0 104 -99q12 -76 -55.5 -139 t-167.5 -63q-27 0 -42 4t-22 4l-59 18q-195 80 -217 316zM815 1653q0 16 5 50t40 53.5t62 19.5q72 0 92 -68q10 -35 10 -55q0 -51 -35 -82q-31 -29 -69 -29q-47 0 -84 47q-8 8 -14.5 27.5t-6.5 36.5zM1092 1653q0 16 5 50t39.5 53.5t61.5 19.5q72 0 92 -68q2 -4 5 -23.5 t3 -31.5q1 -55 -32 -82q-31 -29 -70 -29q-47 0 -84 47q-8 8 -14 27.5t-6 36.5z" />
<glyph unicode="&#xdd;" horiz-adv-x="1439" d="M-29 1096q0 66 17.5 119t52.5 102q59 88 133 129t195 41q12 0 106 -3t187 -3l124 4q23 0 41.5 -11.5t34.5 -41.5q10 -16 10 -41q0 -33 -18 -48l-57 -36q-45 -27 -45 -60q0 -37 67 -153l78 -144l57 113q84 145 84 190q0 31 -22.5 54.5t-79.5 54.5q-14 10 -14 29 q0 20 16 45q12 25 43 34l55 11q49 10 106.5 14t110.5 4q106 0 163 -32.5t57 -77.5q0 -16 -7 -29q-12 -27 -29.5 -39t-74.5 -35q-20 -8 -49 -52t-117 -208q-59 -113 -115 -199q-33 -51 -39 -63q-18 -33 -18 -96v-61t2 -75v-98l45 -18q78 -31 78 -86q0 -23 -9.5 -50.5 t-45.5 -62.5q-49 -49 -165 -151.5t-175 -102.5q-37 0 -72 41q-23 29 -23 55q0 45 80 154q18 27 27.5 101.5t9.5 234.5l-4 127q-4 20 -35 76q-47 80 -86 147q-29 47 -57.5 101.5t-61.5 119.5q-82 168 -159 168q-41 0 -88 -33q-68 -43 -82 -129q-2 -12 -2 -36q0 -59 28 -105 q41 -61 84 -61q31 0 70 26l29 19l14 10q23 16 57 16q49 0 80 -36.5t31 -92.5q0 -35 -14 -69l-21 -41q-66 -96 -250 -97q-143 0 -240.5 126t-97.5 311zM827 1620q0 27 15 49l80 129q33 57 79 57q18 0 39 -10q39 -20 39 -67q0 -29 -18 -60l-74 -123q-35 -55 -82 -55 q-23 0 -43 14q-35 23 -35 66z" />
<glyph unicode="&#xdf;" horiz-adv-x="937" d="M25 78q0 23 12 47q6 12 12 20q16 20 57 58q4 4 4.5 22.5t0.5 48.5v185v106v80l2 72q0 205 13 265t64 120q39 45 99 76q76 39 160 39q27 0 43 -4.5t24 -4.5q98 -20 156.5 -74.5t72.5 -129.5q4 -29 5 -41q0 -14 -5 -43q-10 -57 -65 -123l-29 -35l-16 -19q76 -23 131 -71 q109 -102 108 -326q-5 -74 -32 -133q-47 -104 -120 -158.5t-161 -54.5q-133 0 -166 53q-16 23 -22 43.5t-6 44.5q0 68 57 82q82 20 170 31q14 2 26.5 21.5t26.5 76.5q4 14 6 36t2 36q0 150 -178 192l-37 7q-33 4 -51 51q-8 18 -4 45q4 29 20.5 45t73.5 55q10 8 20.5 23.5 t17.5 39t5 42.5q0 76 -63 102q-16 8 -39 8q-61 0 -80 -61q-6 -23 -6 -60v-109t2 -116l-4 -305v-25l4 -204q0 -109 -28.5 -131.5t-160.5 -22.5l-53 2q-31 4 -50 24.5t-19 51.5z" />
<glyph unicode="&#xe0;" horiz-adv-x="888" d="M55 217q0 23 7.5 57.5t36 77.5t88 76t169.5 59q37 8 69 12.5t75 4.5q35 0 51 -2l6 41q0 55 -34 84.5t-77 19.5q-35 -8 -63.5 -20.5t-97.5 -51.5l-33 -20q-23 -14 -41 -14q-45 0 -76 47q-14 23 -14 45q0 41 34.5 79t107.5 58.5t143.5 25.5t91.5 5q135 0 201.5 -59.5 t66.5 -170.5q0 -12 -2 -28.5t-2 -24.5q-8 -76 -12.5 -124t-4.5 -87q0 -66 17.5 -96.5t73.5 -79.5q25 -23 24 -53q0 -44 -35 -60q-31 -14 -65 -18q-139 0 -171 21.5t-32 117.5l-2 99v110q-43 16 -84 17q-33 0 -57 -9q-82 -27 -113 -84q-6 -16 -6 -28q0 -39 29 -43l38 -4 l17 -2l47 2l29 -4q70 -12 69 -68q0 -20 -12 -45q-51 -98 -221 -98q-102 0 -169 68.5t-67 166.5zM317 1092q0 45 37 67q20 14 45 15q47 0 80 -54l80 -131q18 -33 12 -59q-6 -72 -77 -72q-7 0 -23 4q-31 10 -51 43l-86 133q-16 25 -17 54z" />
<glyph unicode="&#xe1;" horiz-adv-x="888" d="M55 217q0 23 7.5 57.5t36 77.5t88 76t169.5 59q37 8 69 12.5t75 4.5q35 0 51 -2l6 41q0 55 -34 84.5t-77 19.5q-35 -8 -63.5 -20.5t-97.5 -51.5l-33 -20q-23 -14 -41 -14q-45 0 -76 47q-14 23 -14 45q0 41 34.5 79t107.5 58.5t143.5 25.5t91.5 5q135 0 201.5 -59.5 t66.5 -170.5q0 -12 -2 -28.5t-2 -24.5q-8 -76 -12.5 -124t-4.5 -87q0 -66 17.5 -96.5t73.5 -79.5q25 -23 24 -53q0 -44 -35 -60q-31 -14 -65 -18q-139 0 -171 21.5t-32 117.5l-2 99v110q-43 16 -84 17q-33 0 -57 -9q-82 -27 -113 -84q-6 -16 -6 -28q0 -39 29 -43l38 -4 l17 -2l47 2l29 -4q70 -12 69 -68q0 -20 -12 -45q-51 -98 -221 -98q-102 0 -169 68.5t-67 166.5zM387 934q0 27 14 49l80 129q33 57 80 57q18 0 39 -10q39 -20 39 -67q0 -29 -18 -60l-74 -123q-35 -55 -82 -55q-23 0 -43 14q-35 23 -35 66z" />
<glyph unicode="&#xe2;" horiz-adv-x="888" d="M55 217q0 23 7.5 57.5t36 77.5t88 76t169.5 59q37 8 69 12.5t75 4.5q35 0 51 -2l6 41q0 55 -34 84.5t-77 19.5q-35 -8 -63.5 -20.5t-97.5 -51.5l-33 -20q-23 -14 -41 -14q-45 0 -76 47q-14 23 -14 45q0 41 34.5 79t107.5 58.5t143.5 25.5t91.5 5q135 0 201.5 -59.5 t66.5 -170.5q0 -12 -2 -28.5t-2 -24.5q-8 -76 -12.5 -124t-4.5 -87q0 -66 17.5 -96.5t73.5 -79.5q25 -23 24 -53q0 -44 -35 -60q-31 -14 -65 -18q-139 0 -171 21.5t-32 117.5l-2 99v110q-43 16 -84 17q-33 0 -57 -9q-82 -27 -113 -84q-6 -16 -6 -28q0 -39 29 -43l38 -4 l17 -2l47 2l29 -4q70 -12 69 -68q0 -20 -12 -45q-51 -98 -221 -98q-102 0 -169 68.5t-67 166.5zM285 924q0 29 18 59l62 104q45 76 122 76q23 0 59 -9t70 -67l62 -104q18 -35 18 -59q1 -37 -32 -60q-20 -14 -43 -14q-45 0 -80 59l-52 86l-49 -86q-35 -59 -82 -59 q-20 0 -41 14q-33 20 -32 60z" />
<glyph unicode="&#xe3;" horiz-adv-x="888" d="M55 217q0 23 7.5 57.5t36 77.5t88 76t169.5 59q37 8 69 12.5t75 4.5q35 0 51 -2l6 41q0 55 -34 84.5t-77 19.5q-35 -8 -63.5 -20.5t-97.5 -51.5l-33 -20q-23 -14 -41 -14q-45 0 -76 47q-14 23 -14 45q0 41 34.5 79t107.5 58.5t143.5 25.5t91.5 5q135 0 201.5 -59.5 t66.5 -170.5q0 -12 -2 -28.5t-2 -24.5q-8 -76 -12.5 -124t-4.5 -87q0 -66 17.5 -96.5t73.5 -79.5q25 -23 24 -53q0 -44 -35 -60q-31 -14 -65 -18q-139 0 -171 21.5t-32 117.5l-2 99v110q-43 16 -84 17q-33 0 -57 -9q-82 -27 -113 -84q-6 -16 -6 -28q0 -39 29 -43l38 -4 l17 -2l47 2l29 -4q70 -12 69 -68q0 -20 -12 -45q-51 -98 -221 -98q-102 0 -169 68.5t-67 166.5zM244 932q0 25 10 43q18 35 70 35h286q86 0 86 -70q0 -23 -8 -41q-17 -39 -76 -39h-282l-43 4q-43 8 -43 68z" />
<glyph unicode="&#xe4;" horiz-adv-x="888" d="M55 217q0 23 7.5 57.5t36 77.5t88 76t169.5 59q39 10 72 12.5t92 2.5h25q8 18 8 41q0 53 -33 83.5t-74 20.5q-35 -8 -63.5 -20.5t-97.5 -51.5l-33 -20q-23 -14 -41 -14q-45 0 -76 47q-14 23 -14 45q0 41 34.5 79t107.5 58.5t143.5 25.5t91.5 5q135 0 201.5 -59.5 t66.5 -170.5q0 -12 -2 -28.5t-2 -24.5q-8 -76 -12.5 -124t-4.5 -87q0 -66 17.5 -96.5t73.5 -79.5q25 -23 24 -53q0 -44 -35 -60q-31 -14 -65 -18q-141 0 -171 19.5t-30 119.5l-4 99v110q-43 16 -84 17q-33 0 -57 -9q-82 -27 -113 -84q-6 -16 -6 -28q0 -39 29 -43l38 -4 l17 -2l47 2l29 -4q70 -12 69 -68q0 -20 -12 -45q-51 -98 -221 -98q-102 0 -169 68.5t-67 166.5zM186 967q0 16 5.5 50t40 53.5t61.5 19.5q72 0 92 -68q10 -35 10 -55q0 -51 -35 -82q-31 -29 -69 -29q-47 0 -84 47q-8 8 -14.5 27.5t-6.5 36.5zM463 967q0 16 5 50t40 53.5 t61 19.5q72 0 93 -68q4 -12 6 -26.5t2 -26.5q0 -57 -33 -84q-31 -29 -72 -29q-47 0 -82 47q-8 8 -14 27.5t-6 36.5z" />
<glyph unicode="&#xe5;" horiz-adv-x="888" d="M55 217q0 23 7.5 57.5t36 77.5t88 76t169.5 59q39 10 72 12.5t92 2.5h25q8 18 8 41q0 53 -33 83.5t-74 20.5q-35 -8 -63.5 -20.5t-97.5 -51.5l-33 -20q-23 -14 -41 -14q-45 0 -76 47q-14 23 -14 45q0 41 34.5 79t107.5 58.5t143.5 25.5t91.5 5q135 0 201.5 -59.5 t66.5 -170.5q0 -12 -2 -28.5t-2 -24.5q-8 -76 -12.5 -124t-4.5 -87q0 -66 17.5 -96.5t73.5 -79.5q25 -23 24 -53q0 -44 -35 -60q-31 -14 -65 -18q-141 0 -171 19.5t-30 119.5l-4 99v110q-43 16 -84 17q-33 0 -57 -9q-82 -27 -113 -84q-6 -16 -6 -28q0 -39 29 -43l38 -4 l17 -2l47 2l29 -4q70 -12 69 -68q0 -20 -12 -45q-51 -98 -221 -98q-102 0 -169 68.5t-67 166.5zM297 1008q0 66 46 113.5t114 47.5q70 0 118 -47t48 -116q0 -66 -47 -113t-117 -47q-68 0 -115 47t-47 115zM393 1008q0 -27 18.5 -46.5t47.5 -19.5q27 0 46 18.5t19 47.5 q0 27 -20 47q-18 18 -45 18q-25 0 -45.5 -18.5t-20.5 -46.5z" />
<glyph unicode="&#xe6;" horiz-adv-x="1329" d="M57 217q0 16 2 34.5t9 39.5q25 86 127 145q121 70 303 70l43 2l10 27q2 8 2 24q0 43 -25.5 68.5t-60.5 19.5q-39 -6 -63.5 -14t-79.5 -41l-56 -33q-31 -20 -61 -14q-80 12 -80 90q0 16 5 41.5t56 60.5q59 41 166 60q39 8 86 8q74 0 110 -5t70.5 -19.5t57 -23.5t31.5 -16 l36 17q96 45 185 45q150 0 241 -92q80 -74 95 -176q4 -14 4 -30v-30q0 -82 -48.5 -117.5t-154.5 -35.5l-281 -3q8 -55 49.5 -88.5t102.5 -33.5q72 0 158 49l30 18q16 10 35 10q25 0 47 -14q39 -23 39 -84q0 -37 -21.5 -69.5t-73.5 -66.5t-128 -48q-27 -6 -64.5 -8t-39.5 -2 q-211 0 -328 229q-16 31 -26.5 65.5t-14.5 75.5q-18 6 -44 8t-28 2q-25 0 -49 -6q-59 -16 -88 -38.5t-35 -53.5q-6 -25 8.5 -44t34 -22t37.5 -3q10 0 44 5t46 9q14 4 33 10q18 6 37.5 -7t32.5 -50q6 -18 6 -35q0 -47 -51.5 -83t-159.5 -52q-41 -6 -74 -6q-127 0 -205 118 q-39 57 -39 113zM774 494q0 -14 2 -21l101 -4h8l86 2q25 0 56.5 13.5t31.5 43.5q0 16 -10 33q-35 57 -105 57q-20 0 -45 -6q-125 -33 -125 -118z" />
<glyph unicode="&#xe7;" horiz-adv-x="778" d="M59 367v37.5t4 44.5q14 125 83 213t173 118q25 8 65 14.5t65 6.5q98 0 187 -54.5t89 -136.5q0 -43 -35 -71q-16 -14 -39.5 -23.5t-50.5 -5.5l-80 53q-10 10 -24.5 17.5t-22.5 11.5q-31 12 -59 12q-51 0 -90 -38t-52 -105l-4 -49q0 -102 44 -156.5t120 -54.5q35 0 53 4 q8 2 35 12q53 18 74.5 27.5t34.5 15.5q10 6 22 6q43 0 74 -57q10 -20 10 -41q0 -49 -41 -95t-123 -77q-57 -23 -129 -23h-22q-14 0 -38 3.5t-32 5.5q-20 8 -28 10q-104 33 -166 102.5t-86 192.5q-10 41 -11 80zM346 -150q0 57 43 78q18 8 43 9q59 0 74 -48l6 -36v-140 q0 -59 -45 -75q-18 -8 -43 -9q-37 0 -57.5 24.5t-20.5 63.5v133z" />
<glyph unicode="&#xe8;" horiz-adv-x="827" d="M59 397q0 115 48.5 205t128 142.5t172.5 52.5q121 0 210 -50.5t120.5 -132.5t31.5 -141q0 -76 -49 -117t-133 -41h-170l-33 2l-102 5q0 -61 42 -97.5t113 -36.5q25 0 45.5 3.5t45 14.5t79.5 44q16 10 43 14q96 0 97 -94q0 -72 -87.5 -132.5t-224.5 -60.5 q-143 0 -240.5 85t-127.5 241q-4 20 -6.5 46t-2.5 48zM268 467h99h34l64 2q27 0 59.5 12.5t32.5 50.5q0 16 -10 33q-33 45 -111 45q-74 0 -121 -41t-47 -102zM287 1092q0 45 37 67q20 14 45 15q47 0 80 -54l79 -131q18 -33 13 -59q-6 -72 -78 -72q-7 0 -23 4q-31 10 -51 43 l-86 133q-16 25 -16 54z" />
<glyph unicode="&#xe9;" horiz-adv-x="827" d="M59 397q0 115 48.5 205t128 142.5t172.5 52.5q121 0 210 -50.5t120.5 -132.5t31.5 -141q0 -76 -49 -117t-133 -41h-170l-33 2l-102 5q0 -61 42 -97.5t113 -36.5q25 0 45.5 3.5t45 14.5t79.5 44q16 10 43 14q96 0 97 -94q0 -72 -87.5 -132.5t-224.5 -60.5 q-143 0 -240.5 85t-127.5 241q-4 20 -6.5 46t-2.5 48zM268 467h99h34l64 2q27 0 59.5 12.5t32.5 50.5q0 16 -10 33q-33 45 -111 45q-74 0 -121 -41t-47 -102zM289 934q0 27 14 49l80 129q33 57 80 57q18 0 39 -10q39 -20 39 -67q0 -29 -19 -60l-73 -123q-35 -55 -82 -55 q-23 0 -43 14q-35 23 -35 66z" />
<glyph unicode="&#xea;" horiz-adv-x="827" d="M59 397q0 115 48.5 205t128 142.5t172.5 52.5q121 0 210 -50.5t120.5 -132.5t31.5 -141q0 -76 -49 -117t-133 -41h-170l-33 2l-102 5q0 -61 42 -97.5t113 -36.5q25 0 45.5 3.5t45 14.5t79.5 44q16 10 43 14q96 0 97 -94q0 -72 -87.5 -132.5t-224.5 -60.5 q-143 0 -240.5 85t-127.5 241q-4 20 -6.5 46t-2.5 48zM244 924q0 29 18 59l62 104q45 76 122 76q23 0 59 -9t70 -67l62 -104q18 -35 18 -59q1 -37 -32 -60q-20 -14 -43 -14q-45 0 -80 59l-51 86l-50 -86q-35 -59 -82 -59q-20 0 -41 14q-33 20 -32 60zM268 467h99h34l64 2 q27 0 59.5 12.5t32.5 50.5q0 16 -10 33q-33 45 -111 45q-74 0 -121 -41t-47 -102z" />
<glyph unicode="&#xeb;" horiz-adv-x="827" d="M59 397q0 115 48.5 205t128 142.5t172.5 52.5q121 0 210 -50.5t120.5 -132.5t31.5 -141q0 -76 -49 -117t-133 -41h-170l-33 2l-102 5q0 -61 42 -97.5t113 -36.5q25 0 45.5 3.5t45 14.5t79.5 44q16 10 43 14q96 0 97 -94q0 -72 -87.5 -132.5t-224.5 -60.5 q-143 0 -240.5 85t-127.5 241q-4 20 -6.5 46t-2.5 48zM180 967q0 16 5 50t40 53.5t62 19.5q72 0 92 -68q10 -35 10 -55q0 -51 -35 -82q-31 -29 -69 -29q-47 0 -84 47q-8 8 -14.5 27.5t-6.5 36.5zM268 467h99h34l64 2q27 0 59.5 12.5t32.5 50.5q0 16 -10 33q-33 45 -111 45 q-74 0 -121 -41t-47 -102zM457 967q0 16 5 50t40 53.5t61 19.5q72 0 92 -68q2 -4 5.5 -23.5t3.5 -31.5q0 -55 -33 -82q-31 -29 -70 -29q-47 0 -84 47q-8 8 -14 27.5t-6 36.5z" />
<glyph unicode="&#xec;" d="M8 92q0 31 76 72q10 4 28.5 22.5t18.5 40.5v160q0 141 -10 156q-31 4 -71 14t-34 70q2 18 19.5 38.5t58.5 51.5l51 39l19 12l45 31q27 16 57 16q51 0 60.5 -40t13.5 -100.5t4 -203.5l-4 -104q-6 -49 -8 -66.5t-2 -42.5q0 -33 14 -53q8 -12 62 -58q39 -33 45 -69 q4 -25 -12.5 -46.5t-45.5 -25.5l-53 -6h-8h-168q-82 0 -109.5 10t-37 39t-9.5 43zM59 1092q0 45 37 67q20 14 45 15q47 0 80 -54l80 -131q18 -33 12 -59q-6 -72 -77 -72q-7 0 -23 4q-31 10 -51 43l-86 133q-16 25 -17 54z" />
<glyph unicode="&#xed;" d="M8 92q0 31 76 72q10 4 28.5 22.5t18.5 40.5v160q0 141 -10 156q-31 4 -71 14t-34 70q2 18 19.5 38.5t58.5 51.5l51 39l19 12l45 31q27 16 57 16q51 0 60.5 -40t13.5 -100.5t4 -203.5l-4 -104q-6 -49 -8 -66.5t-2 -42.5q0 -33 14 -53q8 -12 62 -58q39 -33 45 -69 q4 -25 -12.5 -46.5t-45.5 -25.5l-53 -6h-8h-168q-82 0 -109.5 10t-37 39t-9.5 43zM141 934q0 27 15 49l80 129q33 57 79 57q18 0 39 -10q39 -20 39 -67q0 -29 -18 -60l-74 -123q-35 -55 -82 -55q-23 0 -43 14q-35 23 -35 66z" />
<glyph unicode="&#xee;" d="M8 92q0 31 76 72q10 4 28.5 22.5t18.5 40.5v160q0 141 -10 156q-31 4 -71 14t-34 70q2 18 19.5 38.5t58.5 51.5l51 39l19 12l45 31q27 16 57 16q51 0 60.5 -40t13.5 -100.5t4 -203.5l-4 -104q-6 -49 -8 -66.5t-2 -42.5q0 -33 14 -53q8 -12 62 -58q39 -33 45 -69 q4 -25 -12.5 -46.5t-45.5 -25.5l-53 -6h-8h-168q-82 0 -109.5 10t-37 39t-9.5 43zM18 924q0 29 19 59l61 104q45 76 123 76q23 0 58.5 -9t70.5 -67l62 -104q18 -35 18 -59q0 -37 -33 -60q-20 -14 -43 -14q-45 0 -80 59l-51 86l-49 -86q-35 -59 -82 -59q-20 0 -41 14 q-33 20 -33 60z" />
<glyph unicode="&#xef;" d="M-25 967q0 16 5.5 50t40 53.5t61.5 19.5q72 0 92 -68q10 -35 10 -55q1 -51 -34 -82q-31 -29 -70 -29q-47 0 -84 47q-8 8 -14.5 27.5t-6.5 36.5zM8 92q0 31 76 72q10 4 28.5 22.5t18.5 40.5v160q0 141 -10 156q-31 4 -71 14t-34 70q2 18 19.5 38.5t58.5 51.5l51 39l19 12 l45 31q27 16 57 16q51 0 60.5 -40t13.5 -100.5t4 -203.5l-4 -104q-6 -49 -8 -66.5t-2 -42.5q0 -33 14 -53q8 -12 62 -58q39 -33 45 -69q4 -25 -12.5 -46.5t-45.5 -25.5l-53 -6h-8h-168q-82 0 -109.5 10t-37 39t-9.5 43zM252 967q0 16 5 50t40 53.5t61 19.5q72 0 93 -68 q2 -4 5 -23.5t3 -31.5q0 -55 -33 -82q-31 -29 -70 -29q-47 0 -84 47q-8 8 -14 27.5t-6 36.5z" />
<glyph unicode="&#xf0;" horiz-adv-x="976" d="M-14 1128v23q0 47 28.5 97t83.5 98q37 33 129 53t181 20q223 0 356 -217l211 80l57 -160l-194 -73q27 -66 57.5 -270t30.5 -302q0 -27 -2 -35q-16 -121 -30.5 -166t-51.5 -100q-57 -92 -148.5 -145.5t-201.5 -53.5q-141 0 -236.5 51.5t-163.5 166.5q-20 37 -31.5 68.5 t-11.5 68.5q-2 12 -3 31.5t-1 37.5q0 147 70.5 240.5t199.5 128.5q29 8 52.5 12t52.5 4q86 0 217 -59l33 -16l-6 47q-8 45 -18.5 101t-24.5 112l-224 -105l-59 160l221 102q-86 70 -201 70q-92 0 -125 -55l-38 -70l-5 -4l-32 -33q-27 -20 -60 -20q-70 0 -102 80 q-10 29 -10 32zM266 401q0 -12 8 -57q12 -45 40 -84t69 -59.5t86 -20.5q94 0 149 78q20 27 32 57.5t12 67.5v45q0 57 -27 88t-90 59q-39 16 -76 17q-117 0 -178 -107q-25 -43 -25 -84z" />
<glyph unicode="&#xf1;" horiz-adv-x="921" d="M20 86q0 31 21 41l55 33l25 20q16 18 20 42t4 91v111l-4 102q-31 -6 -63 11q-45 27 -45 73q0 31 24 60q53 66 189 137q12 6 26 6q57 0 70 -65q6 -25 4 -58l-2 -26l14 16l39 37q29 29 41 39q27 23 56 32q53 20 106 21q82 0 137.5 -49t55.5 -123q0 -33 2 -100.5t2 -100.5 l2 -127q39 0 67.5 -33.5t28.5 -54.5q0 -31 -76 -119q-63 -70 -100 -99.5t-74 -43.5q-10 -4 -29 -4q-63 0 -81 63q-4 20 -5 29q0 25 39 88q14 18 19.5 50t5.5 114v41l-6 104l-8 80q-4 20 -28 35.5t-56 15.5q-35 0 -62 -16l-24 -14q-29 -25 -41.5 -52.5t-18.5 -86.5l-2 -41 l-4 -64q0 -70 9 -93.5t57 -55.5q16 -10 28.5 -22.5t20.5 -28t8 -35.5q0 -53 -33 -54q-74 -12 -145.5 -18t-108.5 -6q-53 0 -82.5 8t-46.5 22q-31 29 -31 68zM244 932q0 25 10 43q18 35 70 35h286q86 0 86 -70q0 -23 -8 -41q-17 -39 -76 -39h-282l-43 4q-43 8 -43 68z" />
<glyph unicode="&#xf2;" horiz-adv-x="856" d="M57 397q0 23 2 33q16 170 115.5 267.5t253.5 97.5h51q25 -6 35 -9q121 -20 203 -128.5t82 -266.5v-33q-4 -25 -4 -34q-43 -338 -365 -338q-156 0 -252 85t-117 253q-2 25 -3 43t-1 30zM244 1092q0 45 37 67q20 14 45 15q47 0 80 -54l79 -131q18 -33 13 -59 q-6 -72 -78 -72q-7 0 -23 4q-31 10 -51 43l-86 133q-16 25 -16 54zM266 387q0 -111 41 -160t121 -49q76 0 119 47t43 150q2 27 2 37q0 117 -82 172q-43 27 -84 26q-45 0 -81 -23.5t-58 -70.5q-10 -29 -15.5 -46t-5.5 -48v-35z" />
<glyph unicode="&#xf3;" horiz-adv-x="856" d="M57 397q0 23 2 33q16 170 115.5 267.5t253.5 97.5h51q25 -6 35 -9q121 -20 203 -128.5t82 -266.5v-33q-4 -25 -4 -34q-43 -338 -365 -338q-156 0 -252 85t-117 253q-2 25 -3 43t-1 30zM266 387q0 -111 41 -160t121 -49q76 0 119 47t43 150q2 27 2 37q0 117 -82 172 q-43 27 -84 26q-45 0 -81 -23.5t-58 -70.5q-10 -29 -15.5 -46t-5.5 -48v-35zM387 934q0 27 14 49l80 129q33 57 80 57q18 0 39 -10q39 -20 39 -67q0 -29 -18 -60l-74 -123q-35 -55 -82 -55q-23 0 -43 14q-35 23 -35 66z" />
<glyph unicode="&#xf4;" horiz-adv-x="856" d="M57 397q0 23 2 33q16 170 115.5 267.5t253.5 97.5h51q25 -6 35 -9q121 -20 203 -128.5t82 -266.5v-33q-4 -25 -4 -34q-43 -338 -365 -338q-156 0 -252 85t-117 253q-2 25 -3 43t-1 30zM244 924q0 29 18 59l62 104q45 76 122 76q23 0 59 -9t70 -67l62 -104q18 -35 18 -59 q1 -37 -32 -60q-20 -14 -43 -14q-45 0 -80 59l-51 86l-50 -86q-35 -59 -82 -59q-20 0 -41 14q-33 20 -32 60zM266 387q0 -111 41 -160t121 -49q76 0 119 47t43 150q2 27 2 37q0 117 -82 172q-43 27 -84 26q-45 0 -81 -23.5t-58 -70.5q-10 -29 -15.5 -46t-5.5 -48v-35z" />
<glyph unicode="&#xf5;" horiz-adv-x="856" d="M57 397q0 23 2 33q16 170 115.5 267.5t253.5 97.5h51q25 -6 35 -9q121 -20 203 -128.5t82 -266.5v-33q-4 -25 -4 -34q-43 -338 -365 -338q-156 0 -252 85t-117 253q-2 25 -3 43t-1 30zM223 932q0 25 10 43q18 35 70 35h287q86 0 86 -70q0 -23 -8 -41q-17 -39 -76 -39 h-283l-43 4q-43 8 -43 68zM266 387q0 -111 41 -160t121 -49q76 0 119 47t43 150q2 27 2 37q0 117 -82 172q-43 27 -84 26q-45 0 -81 -23.5t-58 -70.5q-10 -29 -15.5 -46t-5.5 -48v-35z" />
<glyph unicode="&#xf6;" horiz-adv-x="856" d="M57 397q0 23 2 33q16 170 115.5 267.5t253.5 97.5h51q25 -6 35 -9q121 -20 203 -128.5t82 -266.5v-33q-4 -25 -4 -34q-43 -338 -365 -338q-156 0 -252 85t-117 253q-2 25 -3 43t-1 30zM184 967q0 16 5.5 50t40 53.5t61.5 19.5q72 0 92 -68q10 -35 10 -55q0 -51 -35 -82 q-31 -29 -69 -29q-47 0 -84 47q-8 8 -14.5 27.5t-6.5 36.5zM266 383q16 -193 162 -193q76 0 115 43t47 144q0 68 -9 105.5t-36 66.5q-51 57 -117 57q-63 0 -117 -57q-23 -23 -34 -52.5t-11 -74.5v-39zM461 967q0 16 5 50t40 53.5t61 19.5q72 0 92 -68q4 -12 6.5 -26.5 t2.5 -26.5q0 -57 -33 -84q-31 -29 -72 -29q-47 0 -82 47q-8 8 -14 27.5t-6 36.5z" />
<glyph unicode="&#xf8;" horiz-adv-x="845" d="M59 418q0 98 31 183t90 140q100 98 226 99q66 0 157 -25l37 -10q10 29 39 45l29 12q25 6 43 -5t18 -34q0 -18 -5 -35.5t-19 -37.5l-19 -21q31 -41 53 -88q47 -100 47 -215v-35q-2 -14 -2 -20q-18 -166 -111 -259.5t-243 -93.5q-109 0 -194 43q-23 -18 -35.5 -56 t-44.5 -32q-47 10 -47 58q0 18 12 41l35 45l-29 47q-41 68 -54.5 118t-13.5 136zM260 428q0 -49 31 -90l16 18l10 13l11 14l41 63l98 154l6 14l14 23q-36 18 -79 12q-102 -14 -134 -131q-6 -33 -10 -52.5t-4 -37.5zM373 246q33 -16 61 -17q86 0 135 105q18 41 19 102 q0 29 -6 70l-9 39l-81 -113l-25 -39l-37 -55l-33 -53z" />
<glyph unicode="&#xf9;" horiz-adv-x="903" d="M4 586q0 53 72 106l63 47l13 11l34 20q47 25 74 25q39 0 57 -72l5 -14l8 -439q0 -70 108 -69q10 0 43 10t56.5 40t23.5 75v22l2 62l2 79q-16 0 -41 11q-74 37 -73 100q0 25 16 45q8 12 20.5 23.5t28.5 23.5l86 62q35 27 55.5 36t36.5 9q49 0 60.5 -42t11.5 -227v-59 l-2 -162q0 -102 11 -130.5t81 -94.5q10 -10 10 -25q1 -22 -32 -53q-12 -10 -54.5 -15t-120.5 -5q-53 0 -82.5 24.5t-39.5 69.5q-31 -43 -76 -70q-63 -39 -133 -39q-78 0 -134.5 46t-70.5 124q-6 35 -6 103v59l2 35l-2 51l-2 113q-8 -2 -23 -2q-41 0 -64.5 27.5t-23.5 58.5z M244 1092q0 45 37 67q20 14 45 15q47 0 80 -54l79 -131q18 -33 13 -59q-6 -72 -78 -72q-7 0 -23 4q-31 10 -51 43l-86 133q-16 25 -16 54z" />
<glyph unicode="&#xfa;" horiz-adv-x="903" d="M4 586q0 53 72 106l63 47l13 11l34 20q47 25 74 25q39 0 57 -72l5 -14l8 -439q0 -70 108 -69q10 0 43 10t56.5 40t23.5 75v22l2 62l2 79q-16 0 -41 11q-74 37 -73 100q0 25 16 45q8 12 20.5 23.5t28.5 23.5l86 62q35 27 55.5 36t36.5 9q49 0 60.5 -42t11.5 -227v-59 l-2 -162q0 -102 11 -130.5t81 -94.5q10 -10 10 -25q1 -22 -32 -53q-12 -10 -54.5 -15t-120.5 -5q-53 0 -82.5 24.5t-39.5 69.5q-31 -43 -76 -70q-63 -39 -133 -39q-78 0 -134.5 46t-70.5 124q-6 35 -6 103v59l2 35l-2 51l-2 113q-8 -2 -23 -2q-41 0 -64.5 27.5t-23.5 58.5z M387 934q0 27 14 49l80 129q33 57 80 57q18 0 39 -10q39 -20 39 -67q0 -29 -18 -60l-74 -123q-35 -55 -82 -55q-23 0 -43 14q-35 23 -35 66z" />
<glyph unicode="&#xfb;" horiz-adv-x="903" d="M4 586q0 53 72 106l63 47l13 11l34 20q47 25 74 25q39 0 57 -72l5 -14l8 -439q0 -70 108 -69q10 0 43 10t56.5 40t23.5 75v22l2 62l2 79q-16 0 -41 11q-74 37 -73 100q0 25 16 45q8 12 20.5 23.5t28.5 23.5l86 62q35 27 55.5 36t36.5 9q49 0 60.5 -42t11.5 -227v-59 l-2 -162q0 -102 11 -130.5t81 -94.5q10 -10 10 -25q1 -22 -32 -53q-12 -10 -54.5 -15t-120.5 -5q-53 0 -82.5 24.5t-39.5 69.5q-31 -43 -76 -70q-63 -39 -133 -39q-78 0 -134.5 46t-70.5 124q-6 35 -6 103v59l2 35l-2 51l-2 113q-8 -2 -23 -2q-41 0 -64.5 27.5t-23.5 58.5z M244 924q0 29 18 59l62 104q45 76 122 76q23 0 59 -9t70 -67l62 -104q18 -35 18 -59q1 -37 -32 -60q-20 -14 -43 -14q-45 0 -80 59l-51 86l-50 -86q-35 -59 -82 -59q-20 0 -41 14q-33 20 -32 60z" />
<glyph unicode="&#xfc;" horiz-adv-x="903" d="M4 586q0 53 72 106l63 47l13 11l34 20q47 25 74 25q39 0 57 -72l5 -14l8 -439q0 -70 108 -69q10 0 43 10t54 41l26 74q25 74 25 110q0 55 -101 90q-35 14 -34 64q0 14 4 36.5t61 65.5l86 62q35 27 55.5 36t36.5 9q49 0 60.5 -42t11.5 -227v-59l-2 -162q0 -102 11 -130.5 t81 -94.5q10 -10 10 -25q1 -22 -32 -53q-12 -10 -54.5 -15t-120.5 -5q-53 0 -82.5 24.5t-39.5 69.5q-31 -43 -76 -70q-63 -39 -133 -39q-78 0 -134.5 46t-70.5 124q-6 35 -6 103v59l2 35l-2 51l-2 113q-8 -2 -23 -2q-41 0 -64.5 27.5t-23.5 58.5zM174 967q0 16 5 50t40 53.5 t62 19.5q72 0 92 -68q10 -35 10 -55q0 -51 -35 -82q-31 -29 -69 -29q-47 0 -84 47q-8 8 -14.5 27.5t-6.5 36.5zM451 967q0 16 5 50t39.5 53.5t61.5 19.5q72 0 92 -68q10 -35 10 -55q1 -53 -34 -82q-31 -29 -70 -29q-47 0 -84 47q-8 8 -14 27.5t-6 36.5z" />
<glyph unicode="&#xfd;" horiz-adv-x="892" d="M-49 -162q0 53 34.5 88t88.5 35q59 0 100 -67l31 -60q4 -16 28 -16q14 0 37 11t45.5 40t44.5 80l13 35l-129 297q-55 127 -111 254q-23 45 -90 90q-27 18 -27 75q4 51 45 60.5t220 9.5l14 -2l49 2q41 0 64 -14q39 -18 38 -60q0 -18 -8 -28l-45 -56q-39 -45 -39 -73 q0 -29 74 -177l51 -110l33 74q78 180 78 221q0 43 -82 139q-6 10 -6 21q0 29 30 49q14 10 50 10h20h168l74 -2q27 -2 45 -26.5t14 -51.5q-2 -14 -16 -35.5t-37 -48.5q-49 -51 -66.5 -92t-99.5 -270l-27 -76q-113 -291 -169 -382t-150 -130l-57 -21q-47 -10 -80 -10 q-53 0 -105 21q-63 29 -96 64.5t-45 88.5q-4 14 -4 43zM387 934q0 27 14 49l80 129q33 57 80 57q18 0 39 -10q39 -20 39 -67q0 -29 -18 -60l-74 -123q-35 -55 -82 -55q-23 0 -43 14q-35 23 -35 66z" />
<glyph unicode="&#xff;" horiz-adv-x="892" d="M-49 -162q0 53 34.5 88t88.5 35q59 0 100 -67l31 -60q4 -16 28 -16q14 0 37 11t45.5 40t44.5 80l13 35l-129 297q-55 127 -111 254q-23 45 -90 90q-27 18 -27 75q4 51 45 60.5t220 9.5l14 -2l49 2q41 0 64 -14q39 -18 38 -60q0 -18 -8 -28l-45 -56q-39 -45 -39 -73 q0 -29 74 -177l51 -110l33 74q78 180 78 221q0 43 -82 139q-6 10 -6 21q0 29 30 49q14 10 50 10h20h168l74 -2q27 -2 45 -26.5t14 -51.5q-2 -14 -16 -35.5t-37 -48.5q-49 -51 -66.5 -92t-99.5 -270l-27 -76q-113 -291 -169 -382t-150 -130l-57 -21q-47 -10 -80 -10 q-53 0 -105 21q-63 29 -96 64.5t-45 88.5q-4 14 -4 43zM242 967q0 16 5 50t40 53.5t61 19.5q72 0 92 -68q10 -35 11 -55q0 -51 -35 -82q-31 -29 -70 -29q-47 0 -84 47q-8 8 -14 27.5t-6 36.5zM518 967q0 16 5 50t40 53.5t62 19.5q72 0 92 -68q2 -4 5 -23.5t3 -31.5 q0 -55 -33 -82q-31 -29 -69 -29q-47 0 -84 47q-8 8 -14.5 27.5t-6.5 36.5z" />
<glyph unicode="&#x152;" horiz-adv-x="1927" d="M86 686l2 55l2 25l8 94q10 109 16.5 144.5t26.5 85.5q66 170 167.5 264t238.5 119q72 12 123 12q72 0 147 -21l53 -16l97 27q8 2 45 2h166h219h37q59 0 82.5 6t78.5 35q20 10 62 -13q25 -14 42 -36.5t34 -65.5q68 -172 67 -246q0 -84 -84 -84q-53 0 -88 35q-8 8 -84 100 q-16 18 -70.5 31.5t-166.5 13.5l-68 -4h-14q-6 -49 -8.5 -112.5t-2.5 -147.5l3 -78v-37q35 -8 77 -8q33 0 49 2l11 35q35 66 100 66q43 0 74 -33q23 -23 46 -75t62 -171q25 -74 25 -106q0 -37 -33 -64q-20 -18 -43.5 -21t-30.5 -3q-29 0 -61.5 28.5t-99.5 112.5q-8 8 -34 12 t-104 4l-32 -4q-16 -88 -17 -147v-13v-118v-146h51h168q133 0 234 107l27 30q37 47 67 64q16 8 37 8q59 0 84 -59q8 -20 8 -33q1 -27 -67 -207l-35 -90q-23 -39 -49.5 -57.5t-57.5 -18.5q-43 0 -94 41q-6 6 -27 6q-14 0 -98 -2t-125 -2q-31 0 -110.5 2t-128.5 2h-129 q-84 0 -117 -4t-129 -30q-25 -6 -60 -7q-18 0 -42.5 2.5t-55.5 8.5q-82 12 -142.5 44.5t-142.5 110.5q-59 57 -93 122t-63.5 179.5t-29.5 243.5zM346 688q0 -26 2 -53q0 -121 35 -211q29 -74 86 -131q86 -86 188 -86q72 0 136.5 50t106.5 148.5t52 227.5v141v49q0 74 -8 115 q-31 131 -76 195.5t-90 91t-112 26.5q-137 0 -224 -118q-96 -133 -96 -392v-53z" />
<glyph unicode="&#x153;" horiz-adv-x="1345" d="M59 362q0 41 12.5 117t33 124t67.5 95q68 70 160 93q37 10 86 10q123 0 227 -88l23 -25l34 27q27 23 62 39q80 47 162 47q29 0 45 -2q209 -27 286 -195l19 -49q12 -41 12 -76q0 -70 -45 -110.5t-117 -40.5l-331 2q0 -45 25.5 -80t66.5 -45t43 -10q10 -2 28 -2 q37 0 148 59q27 14 59 18q43 4 73 -22.5t30 -71.5q0 -6 -4 -26q-14 -61 -108.5 -112.5t-229.5 -51.5q-57 0 -101.5 15t-80 43t-58.5 56q-20 -10 -35.5 -21t-52.5 -42q-12 -12 -37.5 -23.5t-66.5 -21.5t-84 -10q-18 0 -40 3t-34 5q-236 51 -275 329q-2 14 -2 43zM262 369 q10 -111 78 -152q35 -20 74 -20q100 0 135 108q12 41 12 98q0 12 -2 30t-2 26q-23 152 -137 151q-39 0 -74 -20q-37 -20 -60.5 -62.5t-23.5 -105.5v-53zM780 467l178 -2q33 0 56.5 8t36 25.5t12.5 36.5q0 16 -8 30q-37 51 -119 51q-66 0 -111 -43t-45 -106z" />
<glyph unicode="&#x178;" horiz-adv-x="1439" d="M-29 1096q0 66 17.5 119t52.5 102q59 88 133 129t195 41q12 0 106 -3t187 -3l124 4q23 0 41.5 -11.5t34.5 -41.5q10 -16 10 -41q0 -33 -18 -48l-57 -36q-45 -27 -45 -60q0 -37 67 -153l78 -144l57 113q84 145 84 190q0 31 -22.5 54.5t-79.5 54.5q-14 10 -14 29 q0 20 16 45q12 25 43 34l55 11q49 10 106.5 14t110.5 4q106 0 163 -32.5t57 -77.5q0 -16 -7 -29q-12 -27 -29.5 -39t-74.5 -35q-20 -8 -49 -52t-117 -208q-59 -113 -115 -199q-33 -51 -39 -63q-18 -33 -18 -96v-61t2 -75v-98l45 -18q78 -31 78 -86q0 -23 -9.5 -50.5 t-45.5 -62.5q-49 -49 -165 -151.5t-175 -102.5q-37 0 -72 41q-23 29 -23 55q0 45 80 154q18 27 27.5 101.5t9.5 234.5l-4 127q-4 20 -35 76q-47 80 -86 147q-29 47 -57.5 101.5t-61.5 119.5q-82 168 -159 168q-41 0 -88 -33q-68 -43 -82 -129q-2 -12 -2 -36q0 -59 28 -105 q41 -61 84 -61q31 0 70 26l29 19l14 10q23 16 57 16q49 0 80 -36.5t31 -92.5q0 -35 -14 -69l-21 -41q-66 -96 -250 -97q-143 0 -240.5 126t-97.5 311zM651 1653q0 16 5.5 50t40 53.5t61.5 19.5q72 0 92 -68q10 -35 10 -55q0 -51 -35 -82q-31 -29 -69 -29q-47 0 -84 47 q-8 8 -14.5 27.5t-6.5 36.5zM928 1653q0 16 5 50t40 53.5t61 19.5q72 0 92 -68q2 -4 5.5 -23.5t3.5 -31.5q0 -55 -33 -82q-31 -29 -70 -29q-47 0 -84 47q-8 8 -14 27.5t-6 36.5z" />
<glyph unicode="&#x2c6;" horiz-adv-x="530" d="M59 924q0 29 19 59l61 104q45 76 123 76q23 0 58.5 -9t70.5 -67l62 -104q18 -35 18 -59q0 -37 -33 -60q-20 -14 -43 -14q-45 0 -80 59l-51 86l-49 -86q-35 -59 -82 -59q-20 0 -41 14q-33 20 -33 60z" />
<glyph unicode="&#x2dc;" horiz-adv-x="569" d="M59 932q0 25 11 43q18 35 69 35h287q86 0 86 -70q0 -23 -8 -41q-17 -39 -76 -39h-283l-43 4q-43 8 -43 68z" />
<glyph unicode="&#x2000;" horiz-adv-x="933" />
<glyph unicode="&#x2001;" horiz-adv-x="1866" />
<glyph unicode="&#x2002;" horiz-adv-x="933" />
<glyph unicode="&#x2003;" horiz-adv-x="1866" />
<glyph unicode="&#x2004;" horiz-adv-x="622" />
<glyph unicode="&#x2005;" />
<glyph unicode="&#x2006;" horiz-adv-x="311" />
<glyph unicode="&#x2007;" horiz-adv-x="311" />
<glyph unicode="&#x2008;" horiz-adv-x="233" />
<glyph unicode="&#x2009;" horiz-adv-x="373" />
<glyph unicode="&#x200a;" horiz-adv-x="103" />
<glyph unicode="&#x2010;" horiz-adv-x="612" d="M57 457l2 26q8 45 39 56.5t146 11.5h202l48 -2q25 -8 41 -35t16 -63q0 -8 -4 -21q-4 -12 -8 -20q-18 -29 -42 -35t-106 -6h-88l-160 -4q-86 0 -86 92z" />
<glyph unicode="&#x2011;" horiz-adv-x="612" d="M57 457l2 26q8 45 39 56.5t146 11.5h202l48 -2q25 -8 41 -35t16 -63q0 -8 -4 -21q-4 -12 -8 -20q-18 -29 -42 -35t-106 -6h-88l-160 -4q-86 0 -86 92z" />
<glyph unicode="&#x2012;" horiz-adv-x="612" d="M57 457l2 26q8 45 39 56.5t146 11.5h202l48 -2q25 -8 41 -35t16 -63q0 -8 -4 -21q-4 -12 -8 -20q-18 -29 -42 -35t-106 -6h-88l-160 -4q-86 0 -86 92z" />
<glyph unicode="&#x2013;" horiz-adv-x="839" d="M-14 365v170h872v-170h-872z" />
<glyph unicode="&#x2014;" horiz-adv-x="1150" d="M-14 365v170h1179v-170h-1179z" />
<glyph unicode="&#x2018;" horiz-adv-x="409" d="M59 907q0 12 2 28.5t2 25.5l13 43q20 66 74.5 120t94.5 75.5t64 14.5q29 -6 25 -30l-19 -68l-36 -86l26 -39q45 -82 45 -139q0 -33 -12 -57q-37 -78 -129 -78q-22 0 -53 10q-39 16 -62.5 51t-29 71t-5.5 58z" />
<glyph unicode="&#x2019;" horiz-adv-x="409" d="M59 1077q0 33 13 58q37 78 129 77q23 0 53 -10q82 -29 94 -145q2 -10 2 -33q0 -14 -2 -30.5t-2 -24.5l-10 -43q-27 -72 -74 -117q-57 -57 -96 -77.5t-66 -16.5q-29 6 -24 30q6 35 20 68l35 88l-27 37q-45 82 -45 139z" />
<glyph unicode="&#x201a;" horiz-adv-x="409" d="M59 176q0 33 13 57q37 78 129 78q23 0 53 -10q82 -29 94 -147q2 -10 2 -31q0 -14 -2 -30.5t-2 -24.5l-10 -43q-27 -72 -74 -117q-57 -57 -96 -77.5t-66 -16.5q-29 6 -24 30q6 37 20 68l35 88l-27 37q-45 82 -45 139z" />
<glyph unicode="&#x202f;" horiz-adv-x="373" />
<glyph unicode="&#x2039;" horiz-adv-x="485" d="M45 377q0 23 23 61l172 277q45 72 106 65q39 0 63.5 -26.5t24.5 -61.5q0 -14 -2 -20q-2 -20 -16 -41l-154 -252l158 -236q14 -20 20 -45q8 -39 -17.5 -74.5t-66.5 -35.5q-33 0 -59.5 13t-48.5 48l-182 273q-20 29 -21 55z" />
<glyph unicode="&#x203a;" horiz-adv-x="485" d="M45 670q-10 39 17.5 74.5t76.5 35.5q25 0 49.5 -14t49.5 -49l182 -273q20 -29 20 -55q1 -24 -22 -59l-172 -277q-43 -68 -109 -67q-39 4 -63.5 30.5t-24.5 61.5q0 12 2 18l19 41l153 250l-160 238q-16 25 -18 45z" />
<glyph unicode="&#x205f;" />
<glyph unicode="&#xe000;" horiz-adv-x="788" d="M0 0v788h788v-788h-788z" />
</font>
</defs>
</svg>
