<?xml version="1.0" standalone="no"?>
<!DOCTYPE svg PUBLIC "-//W3C//DTD SVG 1.1//EN" "http://www.w3.org/Graphics/SVG/1.1/DTD/svg11.dtd" >
<svg xmlns="http://www.w3.org/2000/svg">
<metadata></metadata>
<defs>
<font id="comfortaabold" horiz-adv-x="1014" >
<font-face units-per-em="2048" ascent="1638" descent="-410" />
<missing-glyph horiz-adv-x="508" />
<glyph horiz-adv-x="2048" />
<glyph horiz-adv-x="2048" />
<glyph unicode="&#xd;" horiz-adv-x="508" />
<glyph unicode=" "  horiz-adv-x="508" />
<glyph unicode="&#x09;" horiz-adv-x="508" />
<glyph unicode="&#xa0;" horiz-adv-x="508" />
<glyph unicode="!" horiz-adv-x="511" d="M110 103q27 133 126 133h10q131 -19 131 -122v-22q0 -95 -122 -122h-15q-104 0 -130 133zM142 415v965q19 92 103 92h12q84 0 103 -96v-961q-24 -99 -110 -99q-108 16 -108 99z" />
<glyph unicode="&#x22;" horiz-adv-x="557" d="M79 1480q22 109 114 109q102 -26 102 -99q-23 -341 -77 -341l-28 -8q-83 0 -91 152zM323 1489q0 81 112 100q76 0 105 -103q-32 -329 -63 -329q-17 -16 -44 -16h-4q-86 0 -86 164z" />
<glyph unicode="#" horiz-adv-x="1336" d="M170 553v7q0 75 102 98h133l26 132h-102q-102 20 -102 107q17 100 67 100v7l70 -7h109q82 438 113 438q28 22 67 22q87 0 101 -106l-69 -354h158q77 397 96 423q38 41 91 41q94 -26 94 -94v-11q0 -32 -69 -359h71l34 4q81 0 104 -106q-21 -105 -106 -105h-145l-26 -132 h104q116 -11 116 -109q-19 -98 -72 -98v-11l-52 11h-138q-79 -399 -97 -435q-36 -48 -86 -48h-11q-94 20 -94 98v6l76 379h-178q4 0 4 -17q0 -45 -28 -205q-43 -213 -61 -224q-29 -41 -84 -41q-103 20 -103 108l76 379h-62l-22 -4q-85 0 -105 106zM618 658h157l26 132h-157z " />
<glyph unicode="$" d="M71 224q18 104 104 104q55 0 129 -93q76 -50 108 -52v526q-120 37 -175 116q-108 111 -108 258v28q0 206 210 331q72 35 73 35v115q28 90 95 90h20q75 0 95 -100v-103q76 -6 200 -118q52 -53 52 -88v-23q0 -76 -101 -92q-46 0 -119 81q-27 23 -32 24v-398 q169 -62 249 -213q61 -116 61 -222q0 -298 -307 -432h-3v-106q-24 -100 -106 -100q-104 22 -104 104v104q0 -13 -29 -13q-15 0 -37 3q-186 63 -269 200zM336 1060q0 -106 76 -148v316q-76 -38 -76 -137v-31zM622 210q99 73 99 180v39q0 126 -99 187v-406z" />
<glyph unicode="%" horiz-adv-x="1610" d="M80 1096q0 256 270 372q56 18 112 18h19q182 0 308 -164q74 -109 74 -223q0 -252 -262 -372q-75 -21 -124 -21h-7q-228 0 -349 220q-41 84 -41 170zM244 64v16q0 42 112 178l897 1184q35 24 63 24h14q95 -20 95 -99v-15q0 -32 -146 -219l-864 -1142q-42 -21 -65 -21h-7 q-99 21 -99 94zM288 1092q0 -128 142 -175l33 -3h18q125 0 171 146l4 37q0 131 -140 178l-44 7q-129 0 -178 -136l-6 -49v-5zM819 338v23q0 207 205 333q99 49 185 49q229 0 361 -237q29 -87 29 -152v-12q0 -229 -241 -352q-75 -30 -149 -30h-7q-200 0 -328 192 q-55 94 -55 186zM1023 352q0 -127 133 -178l48 -6h13q122 0 171 140l3 29v24q0 127 -150 171l-34 4q-135 0 -181 -154z" />
<glyph unicode="&#x26;" horiz-adv-x="1457" d="M130 391q0 208 221 389l25 26q-174 162 -174 230q-8 0 -8 98q0 206 220 312q61 17 106 17h19q213 0 314 -233q12 -54 12 -92v-19q0 -160 -165 -292l-16 -18l282 -284l137 139q36 26 69 26q97 0 110 -112q0 -58 -142 -182l-21 -23l197 -198q23 -29 23 -61v-15 q-21 -99 -102 -99h-11q-56 0 -163 123l-98 96q-204 -222 -279 -222q-66 -27 -139 -27q-237 0 -376 236q-41 97 -41 185zM349 379q0 -126 145 -183l51 -7q114 0 226 142l41 41l-283 283q-176 -158 -176 -228l-4 -31v-17zM414 1119q0 -61 116 -160q120 106 120 160v15 q0 75 -91 111l-33 3q-71 0 -106 -79l-6 -23v-27z" />
<glyph unicode="'" horiz-adv-x="346" d="M92 1467q22 109 114 109q102 -26 102 -99q-23 -341 -77 -341l-28 -8q-83 0 -91 152z" />
<glyph unicode="(" horiz-adv-x="758" d="M327 593q0 505 227 995q41 38 79 38h14q96 -18 96 -98v-17l-78 -208q-129 -348 -129 -714q0 -456 205 -905l7 -24q-20 -108 -104 -108h-7q-88 0 -132 158q-178 413 -178 883z" />
<glyph unicode=")" horiz-adv-x="758" d="M67 -336l84 210q128 362 128 718q0 447 -205 906l-7 24q19 108 104 108h15q75 0 124 -158q178 -423 178 -876q0 -534 -236 -1014q-43 -28 -73 -28h-8q-85 0 -104 110z" />
<glyph unicode="*" horiz-adv-x="1024" d="M230 1327v4q0 86 107 106q39 0 137 -71l-32 104v13q0 83 111 107q105 -27 105 -107v-13l-32 -102l103 64l35 5q106 -20 106 -106v-12q0 -60 -84 -98l-118 4l93 -76l17 -45v-25q0 -84 -103 -102q-102 0 -120 135l-3 10l-25 -84q-41 -61 -102 -61q-103 23 -103 98v16 q0 64 105 125l9 7l-121 -2q-85 34 -85 106z" />
<glyph unicode="+" d="M136 738v7q0 78 107 102h197v201q19 99 102 99h12q84 0 102 -103v-197h183q121 -10 121 -113q-20 -103 -76 -103v-11l-53 11h-175v-201q-19 -103 -106 -103h-7q-103 20 -103 98v206h-172l-24 -4q-87 0 -108 111z" />
<glyph unicode="," horiz-adv-x="557" d="M106 146v4q0 102 122 151q21 11 56 11h19q163 -34 163 -154l1 -31l7 -47v-18q0 -203 -199 -302q-43 -28 -75 -28q-67 0 -82 88q0 74 103 94q30 17 62 58q-177 30 -177 174z" />
<glyph unicode="-" horiz-adv-x="670" d="M68 598q28 100 107 100h400q83 0 106 -110q-25 -106 -106 -106h-400q-92 0 -107 116z" />
<glyph unicode="." horiz-adv-x="557" d="M130 137q0 110 118 157q19 10 51 10q129 0 165 -151v-28q0 -94 -113 -145q-20 -10 -52 -10h-4q-137 0 -165 167z" />
<glyph unicode="/" horiz-adv-x="770" d="M4 -43q5 34 560 1540q49 50 97 50q103 -18 103 -102v-25q-506 -1395 -560 -1527q-43 -46 -86 -46h-8q-87 0 -106 110z" />
<glyph unicode="0" horiz-adv-x="989" d="M0 715v11q0 282 102 513q151 228 374 228q266 0 406 -284q74 -227 74 -419v-87q0 -237 -98 -479q-148 -228 -374 -228h-12q-246 0 -386 259q-86 220 -86 486zM196 696q0 -253 90 -422q81 -100 183 -100h11q229 0 269 367q11 61 15 181q0 214 -73 407q-84 134 -211 134 q-155 0 -229 -173q-55 -183 -55 -353v-41z" />
<glyph unicode="1" horiz-adv-x="568" d="M40 1293v23q0 80 175 116l116 35h19q95 -21 95 -95v-1303q-18 -99 -102 -99h-7q-99 21 -99 94v1156q-67 -22 -103 -22q-71 0 -94 95z" />
<glyph unicode="2" horiz-adv-x="976" d="M0 1005q0 242 230 396q123 65 231 65q218 0 379 -194q85 -129 85 -267q0 -210 -201 -399l-375 -429h497q81 0 98 -98v-9q-15 -100 -102 -100h-736q-98 18 -98 102v4q0 49 79 123l584 666q43 60 43 140q0 171 -180 240q-28 9 -66 9h-11q-164 0 -237 -176q-9 -36 -13 -96 q-37 -75 -98 -75h-10q-99 18 -99 98z" />
<glyph unicode="3" horiz-adv-x="955" d="M0 433q0 78 106 98q86 0 101 -103q0 -146 153 -231q54 -20 107 -20q150 0 228 159q17 46 17 79v30q0 141 -157 219l-127 28q-55 42 -55 92v4q0 101 132 101q60 0 128 84q26 55 26 101q0 104 -104 162q-37 19 -84 19q-120 0 -171 -128q-14 -132 -42 -132q-27 -30 -69 -30 q-102 23 -102 94v19q0 213 212 339q81 41 175 45q183 0 315 -163q74 -100 74 -221v-15q0 -170 -118 -273q178 -129 178 -360q0 -239 -225 -396q-117 -64 -231 -64h-11q-270 0 -420 278q-36 103 -36 185z" />
<glyph unicode="4" horiz-adv-x="1103" d="M0 493v15q0 41 46 77q599 779 633 832q35 38 69 38h23q62 0 95 -90l-5 -43v-720h86l34 3q76 0 102 -101q0 -76 -90 -109l-61 4h-71v-335q0 -73 -98 -94h-10q-99 18 -99 101v328h-476l-98 -4q-80 34 -80 98zM320 602h334v435z" />
<glyph unicode="5" d="M0 447q35 96 108 96q113 0 113 -158q43 -129 134 -174q74 -28 121 -28q176 0 250 180q14 35 14 83q0 192 -203 256l-85 8h-261q-74 0 -101 89v563q0 63 93 98l45 -5h573q85 0 105 -105q0 -85 -106 -108h-497v-319h185q270 0 422 -276q47 -114 47 -201q0 -247 -234 -409 q-121 -67 -239 -67h-12q-279 0 -435 288q-37 110 -37 189z" />
<glyph unicode="6" horiz-adv-x="951" d="M0 430q0 155 111 303l410 706q45 27 78 27q75 0 98 -103q0 -42 -95 -192l-162 -282h38q222 0 376 -221q69 -122 69 -238q0 -229 -209 -383q-119 -77 -247 -77h-19q-220 0 -379 218q-69 124 -69 242zM211 411q0 -137 158 -217q45 -13 92 -17q169 0 241 178l10 65v13 q0 177 -191 242l-66 7q-164 0 -238 -181l-6 -55v-35z" />
<glyph unicode="7" horiz-adv-x="964" d="M30 72v15q12 44 649 1165h-535q-103 20 -103 108q22 99 94 99h731q95 -20 95 -90v-19q0 -29 -42 -92l-712 -1260q-42 -28 -72 -28h-6q-99 18 -99 102z" />
<glyph unicode="8" horiz-adv-x="972" d="M0 432q0 240 192 375q-62 48 -93 172q-12 31 -12 85v19q0 206 197 332q98 54 193 54q186 0 315 -164q74 -101 74 -222v-19q0 -163 -118 -270q179 -130 179 -362q0 -230 -210 -385q-119 -77 -248 -77h-19q-221 0 -381 218q-69 125 -69 244zM208 433q0 -177 189 -246 q23 -9 72 -9q167 0 240 186l7 51v36q0 142 -167 221q-46 14 -84 14q-182 0 -247 -186zM295 1066q0 -120 146 -169l37 -4q127 0 174 136l7 48q0 133 -143 176l-44 4q-123 0 -171 -132z" />
<glyph unicode="9" horiz-adv-x="972" d="M0 1008q0 255 248 404q108 53 213 53q240 0 393 -229q64 -122 64 -228q0 -172 -138 -334l-504 -677q-39 -27 -73 -27q-102 20 -102 105q0 45 126 198l203 275q-239 17 -377 247q-53 109 -53 213zM210 989q0 -131 148 -213q43 -19 103 -19q144 0 221 137q26 50 26 110v4 q0 170 -179 238q-23 9 -64 9h-23q-140 0 -219 -161q-13 -46 -13 -71v-34z" />
<glyph unicode=":" horiz-adv-x="557" d="M168 167q32 147 142 147h16q119 0 150 -139v-23q0 -111 -149 -147q-159 28 -159 162zM168 831q30 151 154 151q111 0 154 -129v-37q0 -96 -129 -142h-27q-152 23 -152 157z" />
<glyph unicode=";" horiz-adv-x="557" d="M127 -130q19 74 88 74l17 -3q61 33 72 33q3 0 3 -2l21 7q-165 26 -165 155q0 109 125 154h33q158 0 158 -222v-4q0 -208 -249 -290h-28q-75 16 -75 78v20zM143 805q30 151 154 151q111 0 154 -129v-37q0 -96 -129 -142h-27q-152 23 -152 157z" />
<glyph unicode="&#x3c;" d="M114 626q0 79 128 135q576 371 610 371h12q102 -26 102 -106v-8q0 -76 -140 -143q-5 -7 -401 -250q23 -10 507 -312q34 -40 34 -79v-4q0 -91 -108 -106q-42 0 -166 85l-539 334q-39 42 -39 83z" />
<glyph unicode="=" d="M136 763q28 100 107 100h612q83 0 106 -110q-25 -106 -106 -106h-612q-92 0 -107 116zM137 427q0 80 106 104h611q107 -21 107 -113q-22 -103 -106 -103h-620q-82 0 -98 112z" />
<glyph unicode="&#x3e;" d="M137 248v4q0 77 143 146l390 249q-478 293 -506 322q-27 37 -27 74q21 107 110 107q38 0 252 -141q430 -265 466 -296q24 -32 24 -65v-8q0 -76 -112 -123q-588 -375 -618 -375h-19q-103 19 -103 106z" />
<glyph unicode="?" horiz-adv-x="980" d="M58 1009q0 219 215 381q131 73 254 73q193 0 349 -169q109 -138 109 -300q0 -203 -183 -362q-162 -89 -162 -258q-15 -103 -108 -103q-99 22 -99 94v30q0 253 261 414q83 82 83 196q0 143 -152 229q-68 21 -109 21q-149 0 -233 -158l-27 -132q-45 -58 -95 -58 q-103 22 -103 102zM399 92q0 112 121 136h19q88 0 124 -108v-34q-23 -122 -139 -122q-125 27 -125 128z" />
<glyph unicode="@" horiz-adv-x="2019" d="M-4 623q0 418 338 734q289 244 632 244h36q430 0 747 -367q219 -280 219 -615q0 -426 -294 -544q-77 -34 -156 -34h-28q-158 0 -193 72l-5 28l1 33q-133 -125 -347 -125h-32q-295 0 -490 295q-72 143 -72 287q0 323 316 511q135 63 262 63q328 0 519 -320 q59 -132 59 -270v-358q129 0 203 131q37 90 37 199v52q0 312 -262 557q-228 189 -500 189q-402 0 -651 -355q-119 -192 -119 -411v-4q0 -364 300 -608q215 -158 470 -158q215 0 437 134l31 7q110 -22 110 -111q0 -121 -358 -221q-98 -25 -192 -25h-52q-359 0 -661 272 q-305 308 -305 718zM568 623q0 -220 222 -332q69 -26 124 -26h32q183 0 302 185q44 86 44 165v16q0 212 -211 325q-73 33 -151 33h-4q-223 0 -336 -233q-22 -72 -22 -121v-12z" />
<glyph unicode="A" horiz-adv-x="1191" d="M0 71v9l130 352q335 872 365 973q48 53 91 53q93 0 131 -160q454 -1183 459 -1217v-13q0 -81 -98 -98h-7q-90 0 -123 149l-161 418h-398l-202 -533q-45 -34 -78 -34h-11q-98 18 -98 101zM471 744h238l-121 317z" />
<glyph unicode="B" horiz-adv-x="943" d="M0 72v1287q15 100 72 100v8l50 -8h225l15 3q190 0 321 -175q67 -98 67 -213v-11q0 -140 -85 -237q228 -125 228 -400q0 -276 -286 -424q-93 -32 -166 -32h-342q-99 18 -99 102zM207 177h166q199 0 265 110q44 63 44 139v7q0 181 -198 242l-101 7h-176v-505zM207 889h109 q165 0 210 113q13 33 13 65v11q0 124 -145 170l-75 4h-112v-363z" />
<glyph unicode="C" horiz-adv-x="1300" d="M0 718q0 389 354 633q190 115 390 115q233 0 439 -146q22 -42 22 -65v-8q0 -91 -107 -102h-13l-136 70q-126 40 -205 40q-255 0 -440 -233q-93 -156 -93 -304q0 -298 280 -473q123 -64 246 -64h11q157 0 327 106h35q95 -21 95 -98v-11q0 -102 -275 -184q-83 -24 -174 -24 h-19q-370 0 -619 342q-118 199 -118 406z" />
<glyph unicode="D" horiz-adv-x="1140" d="M0 72v1295q15 100 72 100v11l52 -11h189l42 4q338 0 585 -292q159 -206 159 -466q0 -359 -315 -604q-201 -139 -424 -139h-261q-99 18 -99 102zM208 178h133q342 0 507 331q43 112 43 215q0 247 -220 432q-134 107 -406 107h-57v-1085z" />
<glyph unicode="E" horiz-adv-x="1031" d="M0 72v1296q15 100 72 100v11l52 -11h737l15 4q95 0 110 -114q-21 -98 -113 -98h-665v-452h424l54 4q76 0 99 -103q0 -73 -86 -109l-82 4h-409v-426h683q79 0 96 -112q-29 -96 -99 -96h-789q-99 18 -99 102z" />
<glyph unicode="F" horiz-adv-x="959" d="M0 72v1296q15 100 72 100v11l52 -11h737l15 4q95 0 110 -114q-21 -98 -113 -98h-665v-452h424l54 4q76 0 99 -103q0 -73 -86 -109l-82 4h-409v-506l5 -27q-24 -101 -103 -101h-11q-99 18 -99 102z" />
<glyph unicode="G" horiz-adv-x="1250" d="M0 718q0 376 334 622q206 126 399 126q238 0 433 -136q28 -38 28 -71v-4q0 -83 -103 -102q-22 0 -162 66q-82 32 -158 32h-61q-198 0 -381 -193q-118 -162 -118 -332v-15q0 -278 258 -455q134 -75 268 -75h15q132 0 250 64v296h-246q-98 17 -98 102v5q17 100 101 100h352 q81 0 98 -100v-421q0 -111 -61 -140q-199 -117 -389 -117h-22q-370 0 -619 342q-118 195 -118 406z" />
<glyph unicode="H" horiz-adv-x="1100" d="M0 73v1279q12 111 94 111h18q95 -20 95 -90v-568h652v560q17 98 98 98h14q95 -18 95 -98v-1301q0 -73 -99 -94h-10q-98 18 -98 102v530h-652v-534q0 -81 -98 -98h-7q-83 0 -102 103z" />
<glyph unicode="I" horiz-adv-x="539" d="M60 72v7q21 100 95 100h-7v1087h14q-90 0 -102 108v6q0 70 100 99l23 -4h137l18 4q106 -23 106 -110q-18 -103 -102 -103h14v-1087h-7q74 0 95 -100v-10q-18 -99 -102 -99h-183q-99 18 -99 102z" />
<glyph unicode="J" horiz-adv-x="976" d="M0 451q22 99 95 99h15q102 0 102 -147q5 -70 89 -161q81 -64 177 -64q190 0 260 199q10 35 10 71v926q18 95 98 95h12q80 0 98 -99v-926q0 -255 -238 -409q-113 -65 -232 -65h-19q-236 0 -394 227q-73 121 -73 254z" />
<glyph unicode="K" horiz-adv-x="1070" d="M20 72v1290q19 102 102 102h5q100 -17 100 -98v-581q658 657 674 657l27 4h12q95 -18 95 -98v-12q0 -51 -89 -124l-445 -448l522 -646l4 -33v-13q0 -81 -98 -98h-7q-61 0 -149 129l-423 513l-123 -126v-422q0 -81 -100 -98h-5q-83 0 -102 102z" />
<glyph unicode="L" horiz-adv-x="951" d="M0 73v1279q12 111 94 111h18q95 -20 95 -90v-1196h587q87 0 103 -111q-29 -96 -103 -96h-692q-83 0 -102 103z" />
<glyph unicode="M" horiz-adv-x="1490" d="M60 73v1278q12 111 94 111h15q83 0 111 -118l459 -1026q9 35 302 703l188 405q34 36 74 36h15q82 0 94 -111v-1278q-19 -103 -102 -103h-7q-98 17 -98 98v807q-372 -842 -389 -869q-41 -36 -80 -36q-88 0 -145 178l-324 726v-806q0 -81 -98 -98h-7q-83 0 -102 103z" />
<glyph unicode="N" horiz-adv-x="1283" d="M0 76v1274q12 111 94 111h15q67 0 108 -88q53 -60 781 -999v992q18 95 98 95h11q81 0 98 -98v-1288q0 -87 -107 -105q-61 0 -158 144l-733 936v-978q0 -81 -100 -98h-5q-83 0 -102 102z" />
<glyph unicode="O" horiz-adv-x="1536" d="M0 721q0 358 314 602q205 142 434 142q378 0 632 -350q115 -199 115 -401q0 -374 -338 -622q-192 -122 -402 -122h-15q-386 0 -629 358q-111 182 -111 393zM207 710q0 -259 230 -437q142 -96 303 -96h19q253 0 429 226q100 144 100 315q0 293 -269 464q-132 76 -271 76 q-268 0 -445 -234q-96 -138 -96 -314z" />
<glyph unicode="P" horiz-adv-x="917" d="M0 73v1283q12 112 94 112h346q218 0 371 -224q57 -115 57 -208v-27q0 -203 -183 -350q-125 -86 -245 -86h-232v-505q0 -80 -99 -98h-7q-83 0 -102 103zM208 781h205q170 0 234 163q13 33 13 80q0 148 -154 220q-35 16 -85 16h-213v-479z" />
<glyph unicode="Q" horiz-adv-x="1553" d="M0 721q0 358 314 602q206 142 434 142q378 0 633 -350q114 -198 114 -401q0 -237 -147 -441q151 -149 151 -194v-7q0 -80 -103 -102q-61 0 -167 130q-28 21 -29 21q-194 -151 -445 -151h-15q-385 0 -629 358q-111 182 -111 393zM207 710q0 -259 230 -437q142 -96 303 -96 h19q177 0 300 98q-133 145 -156 181v38q18 95 98 95h11q52 0 147 -116l47 -47q82 135 82 292q0 293 -269 465q-131 75 -271 75q-268 0 -445 -234q-96 -138 -96 -314z" />
<glyph unicode="R" horiz-adv-x="934" d="M0 73v1280q12 112 94 112h315q218 0 355 -228q45 -89 45 -185v-15q0 -214 -208 -351l-10 -5q332 -573 332 -594v-19q0 -81 -100 -98h-6q-73 0 -140 145l-301 514h-168v-561q0 -81 -100 -98h-6q-83 0 -102 103zM208 836h185q156 0 206 169l3 27v28q0 123 -140 188 q-39 13 -129 13h-125v-425z" />
<glyph unicode="S" horiz-adv-x="892" d="M0 217q19 103 104 103q54 0 123 -88q83 -57 152 -57h34q134 0 217 153q13 49 13 73v38q0 133 -154 217l-195 54q-236 136 -236 356v27q0 218 231 340q87 34 162 34q201 0 337 -185l7 -25v-27q0 -74 -101 -91q-46 0 -125 88q-55 35 -106 35h-23q-108 0 -164 -117 q-12 -26 -12 -52v-31q0 -124 150 -180q131 0 287 -126q151 -153 151 -336q0 -225 -193 -368q-118 -82 -261 -82q-232 0 -387 204z" />
<glyph unicode="T" horiz-adv-x="1187" d="M0 1367q22 99 94 99h936q95 -18 95 -98v-15q0 -82 -111 -94h-348v-1191q0 -81 -100 -98h-5q-83 0 -102 103v1186h-356q-103 20 -103 108z" />
<glyph unicode="U" horiz-adv-x="1168" d="M40 537v815q12 111 94 111h18q95 -20 95 -90v-806q0 -243 135 -323q86 -67 191 -67q202 0 305 208q21 65 21 137v843q17 98 98 98h14q95 -18 95 -98v-881q0 -240 -228 -417q-145 -97 -294 -97h-26q-250 0 -434 244q-84 132 -84 323z" />
<glyph unicode="V" horiz-adv-x="1212" d="M0 1361v8q0 86 108 102q87 0 133 -180l344 -913l393 1050q45 43 87 43h4q83 0 103 -109l-480 -1295q-22 -97 -105 -97h-3q-92 0 -132 169q-452 1194 -452 1222z" />
<glyph unicode="W" horiz-adv-x="1739" d="M0 1364q23 102 95 102h16q89 0 112 -137l254 -885q270 949 292 985q36 37 77 37h11q93 0 116 -159q25 -69 250 -861l282 970q39 50 80 50h18q95 -20 95 -90v-23l-387 -1339q-45 -44 -86 -44h-4q-97 0 -121 164q-193 656 -250 859l-280 -973q-41 -50 -88 -50h-15 q-88 0 -114 167q-324 1105 -353 1227z" />
<glyph unicode="X" horiz-adv-x="1271" d="M0 1366q23 101 95 101h16q62 0 97 -70l400 -510l438 562q32 18 58 18h12q80 0 98 -99v-6q0 -44 -109 -171l-368 -474l466 -597l11 -40v-11q-18 -99 -102 -99h-4q-68 0 -109 86l-391 498l-438 -561q-31 -23 -63 -23h-7q-99 18 -99 102v11q0 36 169 243l308 398 q-458 580 -472 610z" />
<glyph unicode="Y" horiz-adv-x="1111" d="M0 1362q23 101 95 101h16q69 0 105 -88l320 -478q353 531 372 545q28 21 52 21h23q69 0 94 -98q0 -46 -135 -230l-301 -450v-604q-13 -111 -94 -111h-16q-72 0 -98 86v626q0 5 -154 234l-273 411z" />
<glyph unicode="Z" horiz-adv-x="1237" d="M0 78q0 41 188 275l703 907h-788q-103 20 -103 108q22 99 94 99h1021q80 0 98 -99v-6q0 -40 -90 -145l-804 -1039h794q100 -15 100 -102v-7q-18 -99 -102 -99h-1009q-86 0 -102 108z" />
<glyph unicode="[" horiz-adv-x="779" d="M247 -343v1833q9 117 72 117v7l71 -7h290l49 4q98 -34 98 -102v-12q0 -70 -89 -106l-74 4h-201v-1632h265q99 -22 99 -98v-12q0 -93 -112 -106h-361q-107 21 -107 110z" />
<glyph unicode="\" horiz-adv-x="691" d="M0 1466q17 112 107 112h4q99 0 144 -193q364 -975 511 -1394q-20 -113 -107 -113h-16q-85 0 -133 189q-472 1271 -510 1399z" />
<glyph unicode="]" horiz-adv-x="758" d="M26 -335q0 71 105 103l24 -5h235v1632h-189l-81 -4q-94 31 -94 110q0 76 94 110l65 -4h274l48 4q99 -27 99 -106v-1860q0 -78 -103 -98h-371q-93 0 -106 112v6z" />
<glyph unicode="^" horiz-adv-x="942" d="M44 931q0 44 85 168q211 333 240 350l40 15h21q71 0 138 -131q236 -357 236 -387v-24q0 -82 -112 -98q-70 0 -168 182l-101 150l-200 -309q-48 -23 -77 -23q-78 0 -102 107z" />
<glyph unicode="_" horiz-adv-x="958" d="M1 -97q28 98 105 98h887q102 -18 102 -100v-15q-20 -97 -100 -97h-889q-90 0 -105 114z" />
<glyph unicode="`" horiz-adv-x="752" d="M211 1331v12q0 76 99 98h15q53 0 130 -93q188 -177 188 -210l5 -23q-23 -106 -107 -106h-8q-58 0 -185 145q-137 118 -137 177z" />
<glyph unicode="a" horiz-adv-x="1202" d="M0 515q0 302 296 479q126 59 246 59q307 0 486 -300q55 -123 55 -253v-433q0 -80 -98 -97h-7q-68 0 -101 80v11l1 23q-122 -114 -322 -114h-29q-276 0 -460 276q-67 134 -67 269zM206 508q0 -205 206 -308q64 -24 115 -24h29q170 0 281 171q40 80 40 153v15 q0 197 -195 302q-67 30 -140 30h-4q-207 0 -312 -216q-20 -66 -20 -112v-11z" />
<glyph unicode="b" horiz-adv-x="1201" d="M44 544v823q0 74 95 95h17q95 -21 95 -95v-420q123 118 341 118q211 0 383 -160q164 -172 164 -387q0 -308 -291 -484q-127 -64 -245 -64h-30q-222 0 -412 207q-117 156 -117 367zM251 510q0 -212 223 -316q58 -17 106 -17h23q206 0 312 222q17 67 17 103v23 q0 211 -226 316q-69 17 -107 17h-15q-206 0 -312 -219q-21 -61 -21 -110v-19z" />
<glyph unicode="c" horiz-adv-x="1002" d="M0 513q0 265 234 444q149 99 309 99q210 0 384 -160q17 -31 17 -57v-7q-18 -98 -101 -98h-4q-37 0 -136 75q-74 38 -149 38h-22q-199 0 -302 -210q-24 -71 -24 -128q0 -203 211 -309q62 -24 134 -24q118 0 240 103l41 9h15q80 0 97 -98v-6q0 -98 -262 -198 q-86 -16 -128 -16h-30q-220 0 -408 206q-116 163 -116 337z" />
<glyph unicode="d" horiz-adv-x="1166" d="M0 518q0 266 236 447q150 100 312 100q208 0 340 -118v359l-4 65q29 91 94 91h18q95 -20 95 -91v-748l4 -128q0 -158 -128 -329q-181 -196 -408 -196h-30q-222 0 -412 207q-117 165 -117 341zM207 510q0 -212 223 -316q58 -17 106 -17h23q206 0 312 222q17 67 17 103v23 q0 211 -226 316q-69 17 -107 17h-15q-206 0 -312 -219q-21 -61 -21 -110v-19z" />
<glyph unicode="e" horiz-adv-x="1132" d="M0 513q0 298 281 474q137 68 258 68q313 0 486 -297q60 -117 60 -253v-22q-18 -102 -101 -102h-749q29 -99 163 -171q79 -30 148 -30q80 0 192 56h32q94 -18 94 -98v-11q0 -118 -297 -157h-28q-292 0 -468 273q-71 129 -71 270zM217 587h655q0 37 -83 149 q-112 106 -220 106h-41q-164 0 -270 -162q-37 -64 -41 -93z" />
<glyph unicode="f" horiz-adv-x="837" d="M0 938q0 59 85 100l82 -3h91v38q0 274 244 377l94 17h94q78 0 94 -108q0 -77 -103 -100h-60q-115 0 -152 -127l-3 -75v-22h132l60 3q73 0 96 -99v-14q0 -72 -95 -95h-193v-719l3 -42q0 -76 -102 -99q-76 0 -109 90l4 51v719h-168q-78 0 -94 108z" />
<glyph unicode="g" horiz-adv-x="1145" d="M5 512q0 263 232 440q148 99 307 99q241 0 417 -200q122 -167 122 -317l-4 -126v-449q0 -141 -206 -299q-157 -103 -329 -103q-294 0 -486 262q-38 64 -38 91v11q0 73 94 94h14q71 0 111 -108q122 -153 305 -153q219 0 328 196l6 40v97q-123 -114 -323 -114h-30 q-218 0 -405 204q-115 162 -115 335zM210 505q0 -208 219 -310q57 -17 104 -17h22q203 0 307 218q16 65 16 101v23q0 207 -221 310q-69 16 -106 16h-14q-203 0 -307 -215q-20 -59 -20 -108v-18z" />
<glyph unicode="h" horiz-adv-x="1100" d="M48 64v1298q21 98 94 98h18q95 -20 95 -90v-396q104 90 280 90q268 0 429 -253q61 -113 61 -215v-528q0 -81 -100 -98h-5q-77 0 -102 94v510q0 184 -191 266q-45 13 -92 13q-189 0 -267 -203q-13 -43 -13 -148v-434q0 -81 -100 -98h-5q-77 0 -102 94z" />
<glyph unicode="i" horiz-adv-x="431" d="M102 1211q21 105 109 105q99 -25 99 -94v-22q0 -79 -107 -94q-77 0 -101 105zM103 72v874q12 114 108 114q99 -25 99 -94v-898q0 -81 -100 -98h-6q-82 0 -101 102z" />
<glyph unicode="j" horiz-adv-x="656" d="M0 -329q0 83 109 99q188 0 249 186l8 106v894q0 84 105 100q99 -19 99 -100v-928q0 -295 -280 -431q-90 -32 -167 -35h-19q-89 0 -104 109zM366 1192v22q0 68 99 94q105 -21 105 -105q0 -88 -110 -105q-94 27 -94 94z" />
<glyph unicode="k" horiz-adv-x="1056" d="M77 64v1302q21 99 94 99h18q96 -21 96 -91v-690q489 324 586 379h27q86 0 102 -107q0 -66 -136 -138q-223 -151 -276 -189l406 -514l6 -33v-9q-18 -99 -102 -99h-7q-60 0 -157 140l-324 404l-125 -80v-370q0 -81 -100 -98h-6q-77 0 -102 94z" />
<glyph unicode="l" horiz-adv-x="473" d="M65 72v1275q12 110 94 110h18q95 -20 95 -90v-1190h49q73 0 94 -99v-8q-17 -100 -102 -100h-146q-83 0 -102 102z" />
<glyph unicode="m" horiz-adv-x="1725" d="M64 70v853q11 113 107 113q75 0 96 -66q81 66 235 66q204 0 329 -152q43 80 241 140l88 12q249 0 392 -236q48 -99 48 -190v-548q0 -73 -97 -92h-9q-97 17 -97 100v532q0 160 -168 221l-46 6h-35q-133 0 -204 -156q-9 -33 -9 -56v-547q-18 -100 -99 -100h-7 q-97 17 -97 96v452q0 175 -43 215q-72 96 -184 96h-11q-154 0 -217 -166q-10 -40 -10 -109v-488q0 -79 -97 -96h-6q-81 0 -100 100z" />
<glyph unicode="n" horiz-adv-x="1197" d="M78 72v867q12 114 109 114q97 -25 97 -94v-15q120 109 324 109q224 0 397 -186q126 -156 126 -329v-475q0 -74 -98 -93h-10q-98 18 -98 101v418q0 260 -221 341q-54 14 -96 14h-11q-185 0 -287 -193q-26 -57 -26 -192v-392q0 -80 -98 -97h-7q-82 0 -101 102z" />
<glyph unicode="o" horiz-adv-x="1111" d="M0 509q0 263 232 440q148 99 307 99q209 0 378 -158q161 -169 161 -381q0 -303 -286 -476q-125 -63 -242 -63h-30q-218 0 -405 204q-115 162 -115 335zM209 502q0 -187 181 -290q64 -33 138 -33h22q193 0 296 201q23 62 23 122v18q0 155 -143 262q-83 57 -191 57 q-211 0 -310 -222q-16 -52 -16 -97v-18z" />
<glyph unicode="p" horiz-adv-x="1172" d="M59 -345v825q0 405 383 546q49 16 153 24q209 0 377 -157q161 -169 161 -380q0 -302 -285 -474q-125 -63 -241 -63h-30q-188 0 -314 114v-443q0 -71 -101 -93q-80 0 -103 101zM267 505q0 -185 180 -288q64 -33 138 -33h22q193 0 295 200q23 62 23 121v19q0 154 -142 261 q-84 57 -191 57q-210 0 -308 -222q-17 -53 -17 -96v-19z" />
<glyph unicode="q" horiz-adv-x="1153" d="M20 505q0 261 230 437q148 98 305 98q207 0 375 -155q160 -156 160 -413v-821q-23 -101 -103 -101q-101 22 -101 93v440q-122 -113 -320 -113h-29q-217 0 -403 203q-114 161 -114 332zM227 498q0 -185 180 -287q63 -33 137 -33h22q192 0 294 199q23 62 23 121v18 q0 153 -143 260q-82 57 -189 57q-209 0 -307 -221q-17 -52 -17 -96v-18z" />
<glyph unicode="r" horiz-adv-x="925" d="M99 72v874q12 115 109 115q98 -25 98 -94v-16q124 110 323 110q107 0 232 -54q43 -44 43 -85v-7q-17 -98 -101 -98h-9q-103 33 -150 33h-22q-202 0 -296 -210q-20 -55 -20 -128v-444q0 -81 -100 -98h-6q-82 0 -101 102z" />
<glyph unicode="s" horiz-adv-x="968" d="M20 688q0 156 218 296q120 63 237 63q274 0 433 -253l4 -37v-6q0 -85 -102 -100q-68 0 -126 96q-91 89 -209 89q-154 0 -241 -144l-2 -10q0 -20 86 -27q430 -104 475 -121q123 -81 123 -205v-3q0 -171 -242 -309q-105 -47 -221 -47q-240 0 -405 224q-21 30 -21 58v22 q0 81 110 93q53 0 125 -103q88 -82 206 -82q140 0 232 131l4 14q-1 20 -41 24q-506 113 -540 144q-103 78 -103 193z" />
<glyph unicode="t" horiz-adv-x="691" d="M0 934q17 97 66 97v7l69 -7h59v280q12 109 93 109h17q93 -20 93 -89v-300h119l33 4q77 0 101 -100q0 -75 -88 -107l-60 4h-105v-509q0 -120 68 -143l79 -7h40q73 0 92 -97v-9q-17 -97 -100 -97h-77q-194 0 -288 210q-17 53 -17 121v531h-42l-64 -4q-88 31 -88 106z" />
<glyph unicode="u" horiz-adv-x="1188" d="M70 532v411q12 114 109 114q97 -25 97 -94v-401q0 -240 133 -320q86 -66 190 -66q199 0 301 206q21 67 21 135v438q20 102 108 102q98 -22 98 -101v-892q0 -75 -98 -94h-10q-98 18 -98 101v9q-141 -110 -311 -110h-26q-248 0 -430 242q-84 131 -84 320z" />
<glyph unicode="v" horiz-adv-x="1103" d="M0 938v26q18 95 98 95h7q80 0 130 -142l294 -604q325 690 352 719q36 27 72 27q102 -19 102 -101v-4q0 -26 -168 -374l-281 -577q-44 -33 -77 -33h-3q-85 0 -141 162q-363 741 -385 806z" />
<glyph unicode="w" horiz-adv-x="1382" d="M0 933q21 106 105 106q93 0 124 -171l153 -468q183 580 201 604q35 30 76 35q93 0 119 -145l160 -494q174 550 194 593q43 46 87 46q101 -20 101 -109l-295 -918q-45 -42 -85 -42h-3q-93 0 -125 166q-113 343 -154 464l-188 -581q-37 -49 -86 -49h-3q-74 0 -103 87z" />
<glyph unicode="x" horiz-adv-x="930" d="M0 933q21 103 104 103q61 0 138 -118q164 -196 208 -256q52 61 279 346q21 20 70 29q99 -24 99 -93v-22q0 -34 -139 -196l-180 -227q319 -382 319 -411v-22q0 -79 -98 -96h-5q-60 0 -121 96l-224 275q-273 -341 -293 -355q-26 -16 -53 -16h-3q-85 0 -100 105 q0 42 147 208l171 220l-309 387z" />
<glyph unicode="y" horiz-adv-x="926" d="M17 930v12q19 96 100 96t129 -158q162 -382 209 -497q249 607 269 630q35 29 73 29q96 -18 96 -96v-6q-4 -31 -347 -849q-163 -405 -188 -437q-25 -19 -65 -30q-101 22 -101 91v17q0 19 155 393z" />
<glyph unicode="z" horiz-adv-x="980" d="M0 76q0 42 158 224l427 538h-432l-64 -4q-89 31 -89 107q17 97 66 97v7l69 -7h635l39 5q93 -29 93 -94v-22q0 -35 -92 -135l-493 -618h492q93 -18 93 -96v-12q0 -79 -97 -96h-705q-85 0 -100 106z" />
<glyph unicode="{" d="M264 672q22 100 95 100h61q53 0 53 23v574q0 188 192 247l47 4h141q90 0 114 -87v-27q0 -72 -95 -94h-148q-42 0 -42 -46v-579q0 -56 -39 -118q42 -47 42 -133v-586q0 -31 43 -31h144q95 -20 95 -98v-15q0 -74 -99 -95h-152q-172 0 -235 191l-4 55v575q0 26 -26 31h-84 q-103 20 -103 109z" />
<glyph unicode="|" d="M431 -345v1890q18 104 103 104h11q96 -18 96 -99v-1908q0 -72 -104 -95q-86 0 -106 108z" />
<glyph unicode="}" d="M106 -164q17 98 97 98h139q41 0 41 30v562q0 96 42 147q-38 55 -38 119v580q0 30 -41 30h-143q-80 0 -97 101q15 105 101 105h154q162 0 228 -180l4 -39v-582q0 -34 56 -34h65q85 -26 85 -97v-15q0 -75 -98 -94h-82q-30 0 -30 -64v-554q0 -147 -180 -217l-50 -4h-154 q-99 15 -99 101v7z" />
<glyph unicode="~" d="M186 727v14q0 96 127 125q42 15 90 15h24q101 0 225 -83l29 -8h16l98 30q128 -25 128 -127q0 -123 -210 -150h-36q-100 0 -223 84l-30 7h-17l-91 -24h-17q-113 22 -113 117z" />
<glyph unicode="&#xa1;" horiz-adv-x="672" d="M216 1237q26 120 114 120h14q83 0 116 -84l8 -33q0 -115 -129 -132q-103 0 -123 129zM244 67v935q0 77 94 93h9q93 -16 93 -96v-931q-14 -94 -96 -94h-9q-91 17 -91 93z" />
<glyph unicode="&#xa2;" horiz-adv-x="1105" d="M48 502q0 287 275 465q136 66 261 66l18 -1q113 341 134 356q31 29 66 29h14q93 -17 93 -96v-16l-110 -322q172 -79 172 -163v-6q-17 -97 -99 -97h-4q-37 0 -132 74l-4 1l-214 -615q9 -3 68 -3q115 0 235 99l39 11h15q79 0 96 -97v-7q0 -95 -256 -193q-84 -16 -125 -16 h-29q-53 0 -112 16q-88 -269 -119 -291l-60 -22q-105 24 -105 104q0 19 100 296q-217 162 -217 428zM251 499q0 -128 87 -220l191 546q-164 -19 -255 -202q-23 -70 -23 -124z" />
<glyph unicode="&#xa3;" horiz-adv-x="946" d="M79 700q20 104 107 104h41q-94 180 -94 290q0 249 262 384q83 25 123 25h39q197 0 338 -188l6 -40q-25 -106 -108 -106q-49 0 -121 81q-56 42 -115 42h-23q-132 0 -186 -157l-4 -45q0 -69 126 -286h218q104 -20 104 -110q-23 -101 -96 -101h-170l-1 5v-52 q0 -133 -111 -353l-1 -3h345q-4 0 -4 6q0 15 21 62q45 44 90 44q105 -22 105 -108q0 -35 -80 -181q-40 -34 -78 -34h-568q-84 0 -103 104q0 28 152 358q22 63 22 116l-2 36h-134q-100 19 -100 107z" />
<glyph unicode="&#xa4;" d="M190 451v12q0 56 72 116q-28 56 -28 120v20q0 76 28 132q-72 59 -72 112v25q28 89 94 89h20q49 0 114 -72q50 28 118 28h24q81 0 129 -28q62 72 107 72h33q89 -28 89 -102v-8q0 -51 -73 -118q29 -56 29 -134q0 -69 -30 -139q74 -59 74 -113v-21q-29 -93 -98 -93h-20 q-38 0 -111 74q-61 -30 -141 -30q-59 0 -131 30q-60 -74 -117 -74h-11q-99 19 -99 102zM442 715q0 -79 91 -110h23q85 0 106 97v22q-23 97 -99 97l-9 3q-112 -18 -112 -109z" />
<glyph unicode="&#xa5;" horiz-adv-x="1262" d="M70 545q0 85 104 104h239q-57 87 -57 100q0 2 2 2h-196q-92 26 -92 100q0 92 114 103h27q-68 107 -67 107q-74 32 -74 103q0 73 101 96h172q86 0 104 -104q0 -73 -53 -88q184 -282 250 -378q259 376 276 376q1 0 1 -2h18q-63 38 -63 85v22q27 89 104 89h144 q87 0 103 -105q0 -51 -67 -94l-72 -107h18q114 -11 114 -100v-7q0 -78 -97 -96h-175l-67 -102h235q104 -20 104 -100v-4q0 -86 -74 -96v-12l-68 8h-322v-379q0 -73 -101 -96h-6q-83 0 -115 84l4 69v322h-326l-36 -4q-106 22 -106 104z" />
<glyph unicode="&#xa6;" horiz-adv-x="770" d="M286 310q12 116 111 116q99 -26 99 -95v-693q0 -72 -104 -95q-86 0 -106 108v659zM286 870v671q18 104 103 104h11q96 -18 96 -99v-681q0 -81 -100 -99h-7q-84 0 -103 104z" />
<glyph unicode="&#xa7;" d="M162 1068v15q0 222 214 344q83 43 165 43h35q179 0 319 -168l6 -36q-14 -93 -84 -93h-19q-32 0 -113 76q-57 37 -124 37q-159 0 -211 -176v-42q0 -135 153 -200q195 -30 250 -90q133 -118 133 -254v-50q0 -130 -118 -232q145 -110 145 -304q0 -221 -210 -348 q-94 -47 -181 -47h-12q-196 0 -334 172l-6 35q0 80 98 94q39 0 107 -69q66 -48 135 -48q142 0 204 150l11 60q0 157 -179 216q-124 15 -180 51q-181 122 -181 293v19q0 174 119 255q-142 112 -142 297zM373 505q0 -111 125 -154l34 -3h21q102 0 146 125l3 34q0 118 -139 158 l-35 4q-107 0 -152 -121l-3 -30v-13z" />
<glyph unicode="&#xa8;" horiz-adv-x="1024" d="M212 1233q25 106 114 106q106 -25 106 -113q-21 -107 -113 -107q-107 21 -107 114zM664 1233q25 106 114 106q106 -25 106 -113q-21 -107 -113 -107q-107 21 -107 114z" />
<glyph unicode="&#xa9;" horiz-adv-x="1674" d="M110 718q0 352 309 591q196 132 414 132q361 0 599 -324q120 -183 120 -399q0 -386 -358 -621q-171 -98 -369 -98q-325 0 -561 279q-154 206 -154 440zM219 711q0 -324 309 -528q157 -79 305 -79q314 0 516 283q98 158 98 335q0 318 -294 523q-157 87 -301 87h-38 q-281 0 -482 -256q-113 -163 -113 -347v-18zM321 718q0 267 248 437q123 75 275 75q189 0 350 -143q15 -20 15 -41v-8q0 -64 -79 -71h-3q-15 0 -125 79q-95 37 -165 37q-227 0 -343 -233q-23 -65 -23 -124v-27q0 -183 185 -305q95 -49 181 -49q134 0 267 110l30 7 q75 -10 75 -71v-8q0 -72 -218 -162q-96 -22 -154 -22q-298 0 -463 289q-53 116 -53 230z" />
<glyph unicode="&#xaa;" horiz-adv-x="648" d="M53 1145q0 197 219 277l46 5h33q169 0 257 -188l17 -84l-4 -67v-137l5 -27q-13 -48 -53 -65h-18q-39 0 -66 46v-8q-45 -38 -142 -38h-8q-206 0 -276 216q-10 24 -10 70zM189 1136q0 -106 130 -141h28q96 0 139 117l3 34q0 97 -110 142l-42 7q-99 0 -144 -113z" />
<glyph unicode="&#xab;" horiz-adv-x="944" d="M242 493q0 36 127 182q128 163 151 163l4 4h21q69 -22 69 -62v-20q0 -31 -191 -255l-8 -12q203 -232 203 -272q-13 -71 -70 -71h-30q-46 34 -270 313zM490 488v30q213 269 269 314l42 7q61 -32 61 -75v-4q0 -32 -201 -268q184 -215 201 -249v-30q-13 -67 -70 -67h-4 q-47 0 -128 115q-170 193 -170 227z" />
<glyph unicode="&#xac;" d="M79 679q23 103 98 103h715q99 -19 99 -102v-348q0 -78 -103 -98h-10q-103 19 -103 106v226h-589q-107 21 -107 113z" />
<glyph unicode="&#xad;" horiz-adv-x="670" d="M68 598q28 100 107 100h400q83 0 106 -110q-25 -106 -106 -106h-400q-92 0 -107 116z" />
<glyph unicode="&#xae;" horiz-adv-x="1674" d="M100 721q0 353 311 593q198 132 417 132q364 0 604 -325q121 -184 121 -400q0 -387 -360 -623q-173 -98 -372 -98q-328 0 -565 279q-156 208 -156 442zM210 714q0 -325 311 -529q158 -79 307 -79q317 0 520 283q99 159 99 336q0 319 -296 525q-158 87 -304 87h-38 q-283 0 -485 -257q-114 -164 -114 -348v-18zM567 287v876q8 53 49 53h186q205 0 269 -208q8 -21 8 -64q0 -149 -156 -234q225 -388 235 -416v-7q-16 -45 -45 -45h-15q-34 0 -80 98l-201 347h-148v-396q-7 -49 -42 -49h-26q-34 19 -34 45zM669 785h95q160 0 197 98 q15 35 15 72q0 106 -121 151q-17 8 -49 8h-137v-329z" />
<glyph unicode="&#xaf;" horiz-adv-x="806" d="M-82 1708q27 98 100 98h847q97 -18 97 -100v-15q-18 -97 -97 -97h-847q-86 0 -100 114z" />
<glyph unicode="&#xb0;" horiz-adv-x="674" d="M60 1164q0 128 90.5 218t218.5 90q127 0 217 -90.5t90 -217.5q0 -126 -91 -217t-218 -91q-130 0 -218.5 90t-88.5 218zM220 1161q0 -62 43.5 -105t106.5 -43t105.5 42.5t42.5 105.5t-43.5 106.5t-104.5 43.5q-62 0 -106 -44t-44 -106z" />
<glyph unicode="&#xb1;" d="M145 284v8q0 71 94 106l53 -4h533l40 4q100 -27 100 -106v-8q0 -71 -89 -106l-74 4h-494l-69 -4q-94 31 -94 106zM145 804v8q0 86 107 106h197v160l-5 41q31 99 99 99h24q64 0 99 -94l-5 -45v-161h196q108 -17 108 -106v-8q0 -79 -100 -107l-32 5h-172v-157l4 -44 q0 -79 -107 -103q-79 0 -113 94l4 53v157h-172l-27 -5q-105 27 -105 107z" />
<glyph unicode="&#xb2;" d="M304 1335q0 122 116 199q61 33 116 33q109 0 190 -98q43 -65 43 -134q0 -106 -98 -198l-153 -174h198q51 0 62 -60v-7q-9 -62 -64 -62h-346q-60 11 -60 64v2q0 29 41 68l272 311q17 23 17 56q0 69 -73 97q-11 3 -26 3h-5q-66 0 -95 -70q-4 -16 -7 -45q-22 -47 -61 -47h-6 q-61 11 -61 62z" />
<glyph unicode="&#xb3;" d="M291 1067q0 49 65 63q56 0 65 -64q0 -61 64 -97q22 -8 44 -8q62 0 94 66q7 19 7 32v14q0 57 -64 90l-62 13q-35 27 -35 58v2q0 64 78 64q21 0 48 33q10 21 10 40q0 40 -41 63q-14 7 -33 7q-46 0 -66 -49q-8 -75 -28 -75q-12 -14 -42 -14q-63 14 -63 60v9q0 111 110 175 q42 22 90 24q95 0 163 -84q38 -52 38 -115v-7q0 -87 -46 -129q75 -54 75 -172q0 -122 -114 -201q-60 -34 -119 -34h-5q-138 0 -215 142q-18 53 -18 94z" />
<glyph unicode="&#xb4;" horiz-adv-x="889" d="M220 1110v16q0 47 149 181q120 137 177 137q94 0 110 -116q0 -55 -192 -227q-76 -93 -130 -93h-15q-99 19 -99 102z" />
<glyph unicode="&#xb5;" horiz-adv-x="1180" d="M119 -353v1289q12 113 109 113q96 -25 96 -93v-399q0 -240 133 -318q85 -66 188 -66q199 0 300 205q21 66 21 134v436q20 101 107 101q98 -22 98 -101v-887q0 -73 -98 -94h-9q-98 18 -98 101v9q-141 -110 -310 -110h-26q-187 0 -306 108v-440q0 -71 -101 -93 q-84 0 -104 105z" />
<glyph unicode="&#xb6;" horiz-adv-x="1024" d="M70 1094q0 219 220 337q69 34 143 34h465q95 -21 95 -91v-19q0 -81 -83 -98v-1184q-19 -103 -102 -103h-6q-100 17 -100 98v1189h-80v-1187q-17 -100 -102 -100h-7q-99 18 -99 102v644q-184 0 -307 212q-37 83 -37 166z" />
<glyph unicode="&#xb7;" horiz-adv-x="508" d="M156 627q0 99 104 140q17 9 45 9q114 0 146 -133v-25q0 -83 -99 -128q-18 -9 -47 -9h-3q-121 0 -146 146z" />
<glyph unicode="&#xb8;" horiz-adv-x="1024" d="M332 -360q17 90 93 90h121q36 0 36 22v3q0 15 -41 23q-63 30 -63 82v111q0 78 100 97q96 -19 96 -90v-40q104 -69 104 -186q0 -169 -197 -218l-53 3h-50l-61 -3q-85 28 -85 89v17z" />
<glyph unicode="&#xb9;" d="M410 1494v13q0 50 95 70l56 17h12q59 -13 59 -61v-614q-11 -61 -64 -61h-4q-61 13 -61 60v522q-13 -4 -33 -4q-45 0 -60 58z" />
<glyph unicode="&#xba;" horiz-adv-x="718" d="M177 1230v5q0 125 46 230q72 108 177 108q126 0 192 -134q33 -102 33 -188v-38q0 -106 -44 -215q-70 -108 -177 -108h-6q-116 0 -182 122q-39 99 -39 218zM296 1222q0 -107 36 -174q29 -36 65 -36h5q84 0 99 145q5 26 7 77q0 89 -30 168q-31 48 -76 48q-56 0 -83 -63 q-23 -76 -23 -148v-17z" />
<glyph unicode="&#xbb;" horiz-adv-x="944" d="M207 211q0 36 115 167l88 108q-183 213 -199 246v27q0 57 71 70q48 0 150 -139q151 -169 151 -207q0 -33 -210 -278q-47 -68 -88 -68h-7q-71 13 -71 74zM455 192v27q0 36 203 266q-203 234 -203 273q16 75 74 75q46 0 131 -119q167 -188 167 -223v-30 q-203 -260 -275 -320h-46q-35 16 -51 51z" />
<glyph unicode="&#xbc;" horiz-adv-x="1470" d="M120 65v23q0 34 151 220q814 1061 881 1141q31 23 63 23h12q81 0 98 -100v-6q0 -45 -131 -198q-96 -133 -906 -1176q-37 -22 -74 -22q-94 26 -94 95zM162 1354q0 74 110 91q0 3 73 19q45 0 78 -57l-3 -65v-652l3 -39q-21 -68 -75 -68q-44 0 -72 53v654l-32 -7h-29 q-53 28 -53 71zM733 285v29q341 439 389 510q24 35 63 35q49 0 75 -63l-3 -44v-387h57q61 0 73 -84q-27 -64 -77 -64h-53v-195q-31 -52 -75 -52q-73 14 -73 76v171h-311q-65 14 -65 68zM959 365h150v198z" />
<glyph unicode="&#xbd;" horiz-adv-x="1492" d="M110 64v23q0 34 150 220q812 1057 879 1137q31 23 63 23h11q81 0 98 -100v-6q0 -45 -131 -197q-95 -132 -902 -1172q-37 -22 -74 -22q-94 26 -94 94zM152 1350q0 73 110 90q0 3 72 19q45 0 80 -56l-5 -66v-649l5 -39q-23 -69 -77 -69q-43 0 -72 53v652l-31 -7h-29 q-53 28 -53 72zM834 563q0 186 197 270l74 12q194 0 275 -209l3 -44v-42q0 -111 -163 -268l-143 -165h227l20 5q71 -23 71 -61v-22q-14 -65 -68 -65h-417q-58 0 -72 72q0 30 190 236q204 227 204 247l4 27v29q-26 113 -125 113q-88 0 -126 -97q0 -79 -59 -100h-20 q-47 0 -72 62z" />
<glyph unicode="&#xbe;" horiz-adv-x="1541" d="M110 867q0 38 52 69h27q67 0 75 -107q35 -93 117 -93h12q90 0 122 108l3 26q0 86 -104 123q-93 0 -93 83q16 67 91 67q52 0 72 80v22q0 50 -74 76h-17q-63 0 -87 -73v-36q-28 -53 -68 -53h-14q-65 12 -65 67v8q0 164 186 230l51 4q144 0 216 -146q18 -42 18 -77v-22 q0 -96 -58 -151q92 -64 92 -208q0 -198 -220 -271l-58 -4h-8q-187 0 -264 220zM212 64v23q0 34 149 219q808 1052 875 1131q31 23 62 23h12q80 0 98 -99v-6q0 -45 -131 -197q-95 -132 -898 -1166q-37 -22 -73 -22q-94 26 -94 94zM819 283v29q339 435 386 505q25 36 63 36 q49 0 75 -63l-3 -44v-384h56q61 0 73 -83q-27 -64 -76 -64h-53v-193q-31 -52 -75 -52q-72 14 -72 75v170h-309q-65 14 -65 68zM1045 362h148v195z" />
<glyph unicode="&#xbf;" horiz-adv-x="977" d="M26 81q0 261 257 416q90 81 90 246q46 62 101 62q102 -18 102 -102v-7q0 -273 -257 -424q-86 -82 -86 -198q0 -148 155 -228q58 -21 101 -21q146 0 227 147q18 30 31 140q50 60 101 60q101 -24 101 -102q0 -225 -221 -383q-123 -69 -239 -69q-229 0 -378 197 q-85 120 -85 266zM343 972v9q24 129 128 129h11q107 0 128 -135q-23 -128 -132 -128h-4q-109 0 -131 125z" />
<glyph unicode="&#xc0;" horiz-adv-x="1220" d="M0 72v9l131 354q338 878 368 980q48 53 91 53q93 0 131 -161q458 -1191 463 -1226v-13q0 -81 -100 -98h-6q-90 0 -123 150l-163 421h-400l-205 -537q-45 -34 -78 -34h-10q-99 18 -99 102zM405 1742q26 94 102 94h7q62 0 156 -136q67 -71 67 -116q-18 -103 -101 -103h-16 q-52 0 -162 153q-53 45 -53 108zM474 749h241l-123 320z" />
<glyph unicode="&#xc1;" horiz-adv-x="1212" d="M0 72v8l130 353q337 874 367 976q46 53 91 53q92 0 130 -161q456 -1186 461 -1220v-13q0 -81 -100 -98h-5q-91 0 -124 149l-161 420h-399l-203 -535q-45 -34 -78 -34h-10q-99 18 -99 102zM430 1574v6q0 49 122 184q41 64 100 64h6q99 -19 99 -94v-15q0 -44 -85 -136 q-73 -109 -133 -109h-12q-80 0 -97 100zM472 746h239l-121 317z" />
<glyph unicode="&#xc2;" horiz-adv-x="1212" d="M0 72v8l130 353q337 874 367 976q46 53 91 53q92 0 130 -161q456 -1186 461 -1220v-13q0 -81 -100 -98h-5q-91 0 -124 149l-161 420h-399l-203 -535q-45 -34 -78 -34h-10q-99 18 -99 102zM358 1559q0 47 123 187q44 65 99 65h30q51 0 148 -132q67 -71 67 -117v-5 q-15 -100 -102 -100h-7q-56 0 -123 93q-71 -93 -122 -93h-11q-83 0 -102 102zM472 746h239l-121 317z" />
<glyph unicode="&#xc3;" horiz-adv-x="1216" d="M0 72v8l130 353q337 874 367 976q46 53 91 53q92 0 130 -161q456 -1186 461 -1220v-13q0 -81 -100 -98h-5q-91 0 -124 149l-161 420h-399l-203 -535q-45 -34 -78 -34h-10q-99 18 -99 102zM298 1637v8q0 99 164 117l17 3q91 0 202 -72l20 -2l75 22h13q100 -17 100 -102v-4 q0 -96 -150 -120l-40 -4q-91 0 -194 73l-17 2l-84 -23q-106 20 -106 102zM472 746h239l-121 317z" />
<glyph unicode="&#xc4;" horiz-adv-x="1225" d="M0 72v8l130 353q337 874 367 976q46 53 91 53q92 0 130 -161q456 -1186 461 -1220v-13q0 -81 -100 -98h-5q-91 0 -124 149l-161 420h-399l-203 -535q-45 -34 -78 -34h-10q-99 18 -99 102zM343 1639v11q0 73 95 94h17q95 -21 95 -94v-11q0 -86 -107 -102q-100 19 -100 102 zM472 746h239l-121 317zM629 1635v24q27 85 98 85h15q79 0 94 -107q0 -77 -104 -101q-103 19 -103 99z" />
<glyph unicode="&#xc5;" horiz-adv-x="1219" d="M0 72v9l130 353q338 877 368 979q48 53 91 53q93 0 131 -161q457 -1190 462 -1224v-13q0 -81 -100 -98h-6q-90 0 -123 149l-162 421h-400l-204 -536q-45 -34 -78 -34h-10q-99 18 -99 102zM390 1670q0 132 153 188l38 4h15q127 0 182 -152l4 -39v-11q0 -124 -145 -182 l-45 -8q-120 0 -182 117q-20 42 -20 83zM473 748h240l-122 319zM531 1666q10 -55 53 -55q58 9 58 51v10q-8 49 -45 49h-16q-41 0 -50 -55z" />
<glyph unicode="&#xc6;" horiz-adv-x="1565" d="M0 78q0 32 246 463l496 891q40 33 68 33h595q69 0 95 -101q-21 -106 -107 -106h-470v-508h363q96 -21 96 -91v-19q0 -81 -100 -98h-359v-364h474q83 0 102 -103q0 -83 -103 -105h-578q-83 0 -102 103v469h-233q-9 -11 -154 -281l-147 -257q-39 -34 -76 -34h-4 q-86 0 -102 108zM600 750h116v207z" />
<glyph unicode="&#xc7;" horiz-adv-x="1399" d="M13 727q0 382 348 622q186 113 382 113q233 0 425 -142q28 -37 28 -73q-18 -101 -104 -101q-25 0 -146 66q-112 41 -203 41q-249 0 -430 -228q-92 -152 -92 -298q0 -291 274 -463q120 -63 241 -63h11q153 0 312 98l26 6h14q97 -17 97 -100v-4q0 -116 -318 -197l-42 -4 v-31q112 -74 112 -198q0 -180 -210 -230l-55 4h-53l-65 -4q-89 29 -89 93v18q18 94 97 94h130q40 0 40 25v4q0 17 -46 26q-65 31 -65 85v114q-125 12 -302 120q-317 246 -317 607z" />
<glyph unicode="&#xc8;" horiz-adv-x="1039" d="M0 72v1290q15 100 72 100v11l52 -11h733l15 4q95 0 110 -114q-21 -97 -113 -97h-662v-450h423l53 3q76 0 99 -102q0 -72 -85 -109l-82 4h-408v-424h681q78 0 95 -111q-29 -96 -99 -96h-785q-99 18 -99 102zM283 1765q28 94 102 94h8q61 0 155 -136q67 -71 67 -116 q-18 -103 -101 -103h-15q-54 0 -162 153q-54 45 -54 108z" />
<glyph unicode="&#xc9;" d="M0 72v1290q15 100 72 100v11l52 -11h733l15 4q95 0 110 -114q-21 -97 -113 -97h-662v-450h423l53 3q76 0 99 -102q0 -72 -85 -109l-82 4h-408v-424h681q78 0 95 -111q-29 -96 -99 -96h-785q-99 18 -99 102zM283 1612q0 40 124 182q44 65 99 65h7q102 -20 102 -106 q0 -44 -96 -151q-69 -98 -119 -98h-22q-79 0 -95 108z" />
<glyph unicode="&#xca;" d="M0 72v1290q15 100 72 100v11l52 -11h733l15 4q95 0 110 -114q-21 -97 -113 -97h-662v-450h423l53 3q76 0 99 -102q0 -72 -85 -109l-82 4h-408v-424h681q78 0 95 -111q-29 -96 -99 -96h-785q-99 18 -99 102zM268 1578v18q0 44 174 231l46 10h22q61 0 140 -113 q83 -91 83 -128v-18q-20 -95 -91 -95h-26q-47 0 -116 92q-63 -92 -115 -92h-26q-71 0 -91 95z" />
<glyph unicode="&#xcb;" horiz-adv-x="1027" d="M0 72v1290q15 100 72 100v11l52 -11h733l15 4q95 0 110 -114q-21 -97 -113 -97h-662v-450h423l53 3q76 0 99 -102q0 -72 -85 -109l-82 4h-408v-424h681q78 0 95 -111q-29 -96 -99 -96h-785q-99 18 -99 102zM238 1629v11q0 73 95 94h17q95 -21 95 -94v-11q0 -86 -106 -102 q-101 19 -101 102zM525 1625v24q27 85 98 85h15q79 0 95 -107q0 -77 -105 -101q-103 18 -103 99z" />
<glyph unicode="&#xcc;" horiz-adv-x="657" d="M110 72v6q21 99 94 99h-7v1073h15q-90 0 -102 107v6q0 68 101 99l22 -5h133l18 5q106 -24 106 -110q-18 -102 -102 -102h15v-1073h-7q73 0 94 -99v-9q-18 -99 -102 -99h-179q-99 18 -99 102zM144 1732v22q0 75 102 94q63 0 147 -120q78 -84 78 -135q-20 -102 -105 -102 q-61 0 -130 102q-92 104 -92 139z" />
<glyph unicode="&#xcd;" horiz-adv-x="657" d="M140 72v7q21 98 94 98h-7v1077h15q-90 0 -102 107v6q0 70 101 99l23 -5h132l18 5q107 -23 107 -109q-18 -103 -102 -103h15v-1077h-7q73 0 94 -98v-10q-18 -99 -102 -99h-180q-99 18 -99 102zM182 1611q0 40 123 182q44 65 99 65h7q102 -20 102 -106q0 -44 -96 -151 q-69 -98 -119 -98h-22q-79 0 -94 108z" />
<glyph unicode="&#xce;" horiz-adv-x="657" d="M100 1580v4q0 47 119 181q48 68 96 68h30q64 0 159 -139q64 -66 64 -113q-18 -103 -102 -103h-7q-59 0 -125 95q-64 -95 -125 -95h-9q-100 17 -100 102zM145 72v7q21 98 95 98h-8v1077h15q-90 0 -102 108v6q0 68 101 99l23 -5h133l18 5q106 -24 106 -110 q-18 -103 -101 -103h15v-1077h-8q75 0 94 -98v-9q-17 -100 -101 -100h-181q-99 18 -99 102z" />
<glyph unicode="&#xcf;" horiz-adv-x="657" d="M80 1615q22 98 94 98h18q95 -20 95 -90v-19q0 -80 -102 -99q-105 21 -105 110zM140 72v6q21 99 94 99h-7v1073h15q-90 0 -102 107v6q0 68 101 99l23 -5h132l18 5q106 -23 106 -110q-18 -102 -101 -102h15v-1073h-8q75 0 94 -99v-8q-17 -100 -101 -100h-180 q-99 18 -99 102zM366 1608v11q0 73 95 94h17q95 -21 95 -94v-11q0 -86 -106 -102q-101 19 -101 102z" />
<glyph unicode="&#xd0;" horiz-adv-x="1275" d="M0 723v15q0 73 99 94h52v526q21 99 94 99h221l34 3q346 0 593 -301q149 -204 149 -448q0 -389 -364 -639q-188 -102 -374 -102h-252q-76 0 -101 94v561h-56q-95 21 -95 98zM357 177h125q345 0 503 314q50 107 50 224q0 290 -272 468q-113 71 -364 71h-42v-422h256 q98 -18 98 -98v-14q-18 -95 -98 -95h-256v-448z" />
<glyph unicode="&#xd1;" horiz-adv-x="1288" d="M0 64v1300q21 98 94 98h15q65 0 105 -82l788 -1010v997q18 95 98 95h11q81 0 98 -98v-1295q-18 -99 -102 -99h-4q-68 0 -142 119l-754 962v-983q0 -81 -98 -98h-7q-77 0 -102 94zM299 1603v7q0 99 164 117l17 4q91 0 203 -73l21 -2l69 22h19q100 -15 100 -102v-4 q0 -96 -151 -120l-40 -4q-91 0 -194 73l-18 2l-84 -23q-106 20 -106 103z" />
<glyph unicode="&#xd2;" horiz-adv-x="1519" d="M0 717q0 356 312 599q205 141 432 141q376 0 629 -348q114 -198 114 -399q0 -372 -336 -619q-192 -121 -400 -121h-15q-383 0 -626 356q-110 181 -110 391zM206 706q0 -258 229 -434q141 -96 301 -96h19q251 0 426 225q100 143 100 313q0 292 -268 462q-130 75 -269 75 q-267 0 -442 -233q-96 -137 -96 -312zM582 1753q22 98 94 98h22q49 0 125 -105q89 -98 89 -146q-19 -102 -105 -102h-3q-63 0 -144 124q-78 76 -78 131z" />
<glyph unicode="&#xd3;" horiz-adv-x="1532" d="M0 719q0 357 313 600q205 142 433 142q377 0 631 -349q114 -198 114 -400q0 -373 -337 -620q-192 -122 -401 -122h-15q-384 0 -628 357q-110 182 -110 392zM207 708q0 -259 229 -435q141 -96 302 -96h19q252 0 428 225q99 143 99 314q0 292 -268 463q-131 75 -270 75 q-268 0 -443 -233q-96 -138 -96 -313zM584 1605q0 52 115 175q47 76 99 76h18q99 -21 99 -101q0 -51 -129 -190q-32 -62 -101 -62q-82 0 -101 102z" />
<glyph unicode="&#xd4;" horiz-adv-x="1523" d="M0 717q0 356 312 599q205 141 432 141q376 0 629 -348q114 -198 114 -399q0 -372 -336 -619q-192 -121 -400 -121h-15q-383 0 -626 356q-110 181 -110 391zM206 706q0 -258 229 -434q141 -96 301 -96h19q251 0 426 225q100 143 100 313q0 292 -268 462q-130 75 -269 75 q-267 0 -442 -233q-96 -137 -96 -312zM507 1592q0 47 122 187q45 64 99 64h31q50 0 146 -132q68 -71 68 -116v-7q-17 -98 -102 -98h-7q-57 0 -123 93q-71 -93 -121 -93h-12q-82 0 -101 102z" />
<glyph unicode="&#xd5;" horiz-adv-x="1528" d="M0 717q0 356 312 599q205 141 432 141q376 0 629 -348q114 -198 114 -399q0 -372 -336 -619q-192 -121 -400 -121h-15q-383 0 -626 356q-110 181 -110 391zM206 706q0 -258 229 -434q141 -96 301 -96h19q251 0 426 225q100 143 100 313q0 292 -268 462q-130 75 -269 75 q-267 0 -442 -233q-96 -137 -96 -312zM443 1675v11q0 81 105 104q33 12 72 12h18q81 0 179 -65l21 -6h10l79 24q106 -21 106 -106q0 -102 -171 -124h-28q-80 0 -178 66l-21 5h-11l-72 -19h-14q-95 20 -95 98z" />
<glyph unicode="&#xd6;" horiz-adv-x="1540" d="M0 719q0 357 313 600q205 142 433 142q377 0 631 -349q114 -198 114 -400q0 -373 -337 -620q-192 -122 -401 -122h-15q-384 0 -628 357q-110 182 -110 392zM207 708q0 -259 229 -435q141 -96 302 -96h19q252 0 428 225q99 143 99 314q0 292 -268 463q-131 75 -270 75 q-268 0 -443 -233q-96 -138 -96 -313zM429 1619v23q0 78 107 94q77 0 101 -105q-24 -106 -105 -106q-103 23 -103 94zM855 1619v23q0 78 107 94q77 0 101 -105q-24 -106 -106 -106q-102 23 -102 94z" />
<glyph unicode="&#xd7;" d="M222 420v24q0 61 110 152l41 44q-151 149 -151 183v32q22 113 116 113h15q62 0 175 -134l20 -18q148 152 183 152h39q84 0 111 -118q0 -71 -156 -212q151 -139 151 -180l6 -23q-29 -126 -127 -126q-65 0 -179 134l-25 21q-132 -150 -198 -150h-29q-102 32 -102 106z" />
<glyph unicode="&#xd8;" horiz-adv-x="1561" d="M0 77q0 52 129 159q4 12 23 25q-152 194 -152 456q0 355 312 598q205 141 431 141q278 0 490 -187q138 142 182 142h12q97 -25 97 -101v-7q0 -57 -115 -147l-42 -41q119 -182 119 -406q0 -371 -335 -618q-192 -121 -400 -121h-15q-236 0 -435 146q-147 -142 -174 -142 l-19 -4h-7q-85 0 -101 107zM206 706q0 -184 101 -305l776 730q-155 119 -340 119q-266 0 -441 -232q-96 -138 -96 -312zM453 258q117 -82 283 -82h18q252 0 427 225q99 142 99 312q0 135 -65 258z" />
<glyph unicode="&#xd9;" horiz-adv-x="1103" d="M0 535v824q21 99 94 99h18q95 -20 95 -91v-802q0 -242 134 -322q85 -66 190 -66q201 0 303 207q21 64 21 136v839q18 99 98 99h14q95 -18 95 -98v-878q0 -239 -227 -416q-145 -96 -293 -96h-26q-249 0 -432 243q-84 132 -84 322zM369 1740v8q0 79 102 101q67 0 166 -142 q60 -58 60 -106v-8q0 -83 -103 -101q-64 0 -158 135q-67 69 -67 113z" />
<glyph unicode="&#xda;" horiz-adv-x="1107" d="M0 535v824q21 99 94 99h18q95 -20 95 -91v-802q0 -242 134 -322q85 -66 190 -66q201 0 303 207q21 64 21 136v839q18 99 98 99h14q95 -18 95 -98v-878q0 -239 -227 -416q-145 -96 -293 -96h-26q-249 0 -432 243q-84 132 -84 322zM369 1593v8q0 48 100 154q60 94 129 94 q99 -21 99 -101v-8q0 -47 -101 -153q-59 -95 -125 -95q-102 22 -102 101z" />
<glyph unicode="&#xdb;" horiz-adv-x="1124" d="M0 537v828q21 98 94 98h18q95 -20 95 -90v-806q0 -243 135 -323q86 -67 191 -67q202 0 305 208q21 65 21 137v843q17 98 98 98h14q95 -18 95 -98v-881q0 -240 -228 -417q-145 -97 -294 -97h-26q-250 0 -434 244q-84 132 -84 323zM310 1570v7q0 50 132 194q0 44 100 55h10 q65 0 159 -135q68 -70 68 -121q-23 -99 -95 -99h-19q-57 0 -118 91q-2 0 -4 1q-72 -84 -88 -84l-23 -8h-24q-80 0 -98 99z" />
<glyph unicode="&#xdc;" horiz-adv-x="1128" d="M0 537v828q21 98 94 98h18q95 -20 95 -90v-806q0 -243 135 -323q86 -67 191 -67q202 0 305 208q21 65 21 137v843q17 98 98 98h14q95 -18 95 -98v-881q0 -240 -228 -417q-145 -97 -294 -97h-26q-250 0 -434 244q-84 132 -84 323zM284 1615v11q0 74 95 95h17 q95 -21 95 -95v-11q0 -86 -106 -102q-101 19 -101 102zM571 1611v24q27 86 98 86h15q79 0 95 -108q0 -77 -105 -101q-103 19 -103 99z" />
<glyph unicode="&#xdd;" horiz-adv-x="1107" d="M0 1362q23 101 95 101h16q69 0 105 -88l320 -478q353 531 372 545q28 21 52 21h23q69 0 94 -98q0 -46 -135 -230l-301 -450v-604q-13 -111 -94 -111h-16q-72 0 -98 86v626q0 5 -154 234l-273 411zM406 1580q0 40 123 182q45 65 100 65h7q102 -20 102 -105q0 -45 -98 -152 q-68 -98 -117 -98h-23q-78 0 -94 108z" />
<glyph unicode="&#xde;" horiz-adv-x="1100" d="M20 73v1282q12 111 94 111h19q95 -20 95 -91v-250h360q317 0 422 -278q21 -65 21 -120v-18q0 -214 -208 -345q-107 -53 -188 -53l-26 4h-381v-247q0 -81 -100 -98h-6q-83 0 -102 103zM228 523h405q140 0 186 161l4 37q0 133 -145 186q-39 10 -101 10h-349v-394z" />
<glyph unicode="&#xdf;" horiz-adv-x="1061" d="M20 79v942q0 304 286 414q58 20 103 20h41q192 0 327 -181q74 -109 74 -234q0 -96 -60 -220v-31q0 -26 116 -156q97 -118 97 -255v-15q0 -237 -241 -360q-76 -33 -156 -33h-3q-199 0 -329 176l-4 39q22 99 101 99h7q47 0 110 -70q59 -38 118 -38q133 0 185 145l6 48v5 q0 84 -100 189q-117 121 -117 241q0 63 55 188q5 11 5 37v33q0 101 -119 168q-37 19 -90 19q-145 0 -199 -159l-7 -103v-912q0 -80 -98 -98h-7q-82 0 -101 102z" />
<glyph unicode="&#xe0;" horiz-adv-x="1118" d="M0 503q0 296 289 468q124 58 241 58q300 0 475 -293q54 -121 54 -247v-423q0 -79 -96 -96h-7q-67 0 -99 79v9l1 23q-118 -111 -314 -111h-29q-270 0 -449 270q-66 131 -66 263zM202 496q0 -199 201 -301q62 -23 112 -23h29q165 0 273 167q40 78 40 150v14q0 192 -191 294 q-66 30 -136 30h-4q-201 0 -304 -211q-20 -65 -20 -109v-11zM408 1305v15q0 71 85 95h29q47 0 169 -160q36 -38 36 -77v-8q0 -81 -100 -99q-63 0 -129 100q-90 99 -90 134z" />
<glyph unicode="&#xe1;" horiz-adv-x="1114" d="M0 503q0 296 289 468q124 58 241 58q300 0 475 -293q54 -121 54 -247v-423q0 -79 -96 -96h-7q-67 0 -99 79v9l1 23q-118 -111 -314 -111h-29q-270 0 -449 270q-66 131 -66 263zM202 496q0 -199 201 -301q62 -23 112 -23h29q165 0 273 167q40 78 40 150v14q0 192 -191 294 q-66 30 -136 30h-4q-201 0 -304 -211q-20 -65 -20 -109v-11zM408 1167v11q0 44 120 179q46 62 99 62q100 -23 100 -99v-7q0 -42 -86 -139q-68 -103 -137 -103h-4q-70 0 -92 96z" />
<glyph unicode="&#xe2;" horiz-adv-x="1140" d="M0 506q0 297 291 470q124 58 241 58q302 0 478 -294q54 -122 54 -249v-425q0 -79 -97 -96h-6q-68 0 -100 79v11l1 21q-120 -111 -315 -111h-30q-271 0 -451 271q-66 132 -66 265zM203 498q0 -200 202 -301q62 -24 112 -24h30q166 0 274 168q40 78 40 150v15 q0 192 -192 295q-66 30 -137 30h-4q-202 0 -305 -212q-20 -65 -20 -110v-11zM304 1176q0 49 109 165q48 74 112 80l1 1h11l1 -1q71 -8 145 -116q77 -82 77 -132q-18 -100 -103 -100q-56 0 -125 93q-64 -93 -128 -93q-100 19 -100 103z" />
<glyph unicode="&#xe3;" horiz-adv-x="1122" d="M0 508q0 298 292 472q125 58 242 58q303 0 479 -296q55 -121 55 -249v-427q0 -79 -97 -96h-7q-67 0 -99 79v10l1 24q-120 -113 -317 -113h-30q-272 0 -452 273q-67 132 -67 265zM203 500q0 -201 203 -303q63 -24 113 -24h30q167 0 275 169q41 79 41 151v15 q0 193 -193 296q-67 31 -138 31h-4q-203 0 -306 -213q-21 -66 -21 -111v-11zM265 1258v11q0 79 102 103q33 12 71 12h19q79 0 174 -65l21 -5h10l77 23q105 -21 105 -105q0 -100 -168 -122h-28q-78 0 -174 65l-21 5h-11l-70 -18h-14q-93 18 -93 96z" />
<glyph unicode="&#xe4;" horiz-adv-x="1136" d="M0 506q0 297 291 470q124 58 241 58q302 0 478 -294q54 -122 54 -249v-425q0 -79 -97 -96h-6q-68 0 -100 79v11l1 21q-120 -111 -315 -111h-30q-271 0 -451 271q-66 132 -66 265zM203 498q0 -200 202 -301q62 -24 112 -24h30q166 0 274 168q40 78 40 150v15 q0 192 -192 295q-66 30 -137 30h-4q-202 0 -305 -212q-20 -65 -20 -110v-11zM289 1173v11q0 71 93 92h17q93 -21 93 -92v-11q0 -85 -104 -100q-99 18 -99 100zM568 1169v22q26 85 96 85h15q77 0 92 -105q0 -75 -102 -99q-101 18 -101 97z" />
<glyph unicode="&#xe5;" horiz-adv-x="1131" d="M0 506q0 297 291 470q124 58 241 58q302 0 478 -294q54 -122 54 -249v-425q0 -79 -97 -96h-6q-68 0 -100 79v11l1 21q-120 -111 -315 -111h-30q-271 0 -451 271q-66 132 -66 265zM203 498q0 -200 202 -301q62 -24 112 -24h30q166 0 274 168q40 78 40 150v15 q0 192 -192 295q-66 30 -137 30h-4q-202 0 -305 -212q-20 -65 -20 -110v-11zM333 1258v13q0 146 175 203l38 3q124 0 193 -127q21 -45 21 -90q0 -144 -166 -204l-42 -5h-16q-139 0 -198 166zM497 1252q12 -43 39 -43h18q40 0 48 52q-9 53 -48 53q-57 -9 -57 -48v-14z" />
<glyph unicode="&#xe6;" horiz-adv-x="1961" d="M0 507q0 297 290 469q124 58 240 58q266 0 432 -223q88 133 271 196q89 23 159 23q296 0 468 -286q58 -120 58 -226v-50q-17 -96 -99 -96h-726q36 -85 115 -139q87 -57 180 -57q81 0 188 54l29 5q102 -24 102 -104q0 -119 -268 -157l-54 -4q-205 0 -325 111v-12 q0 -89 -105 -99h-5q-58 0 -92 83l1 31q-118 -110 -314 -110h-29q-271 0 -450 270q-66 131 -66 263zM202 500q0 -199 201 -300q63 -24 113 -24h29q165 0 273 168q40 77 40 149v14q0 192 -191 295q-66 30 -137 30h-3q-202 0 -305 -211q-20 -65 -20 -110v-11zM1071 574h636 q-14 75 -105 171q-102 79 -214 79q-171 0 -277 -160q-40 -75 -40 -90z" />
<glyph unicode="&#xe7;" horiz-adv-x="986" d="M9 498q0 258 228 431q145 97 300 97q205 0 373 -156q17 -30 17 -56v-6q-17 -96 -99 -96h-4q-36 0 -132 73q-72 36 -144 36h-22q-192 0 -292 -203q-23 -69 -23 -123q0 -198 204 -300q60 -23 129 -23q115 0 234 100l39 9h15q78 0 95 -96v-7q0 -95 -255 -192l-54 -8v-6 q109 -72 109 -194q0 -177 -206 -226l-54 4h-53l-63 -4q-88 29 -88 92v17q18 93 96 93h127q39 0 39 24v4q0 16 -45 25q-64 31 -64 84v90q-71 10 -210 104q-197 177 -197 413z" />
<glyph unicode="&#xe8;" horiz-adv-x="1127" d="M0 502q0 293 275 466q135 66 253 66q307 0 477 -291q59 -115 59 -248v-22q-18 -100 -100 -100h-733q29 -95 160 -166q77 -30 145 -30q77 0 187 55h32q93 -18 93 -96v-11q0 -117 -292 -155h-28q-286 0 -458 268q-70 127 -70 264zM214 576h640q0 35 -81 144 q-110 104 -215 104h-41q-160 0 -263 -158q-37 -63 -40 -90zM407 1301v14q0 70 83 96h31q47 0 170 -161q36 -38 36 -77v-8q0 -82 -101 -99q-63 0 -129 100q-90 99 -90 135z" />
<glyph unicode="&#xe9;" horiz-adv-x="1118" d="M0 502q0 293 275 466q135 66 253 66q307 0 477 -291q59 -115 59 -248v-22q-18 -100 -100 -100h-733q29 -95 160 -166q77 -30 145 -30q77 0 187 55h32q93 -18 93 -96v-11q0 -117 -292 -155h-28q-286 0 -458 268q-70 127 -70 264zM214 576h640q0 35 -81 144 q-110 104 -215 104h-41q-160 0 -263 -158q-37 -63 -40 -90zM407 1162v11q0 44 120 180q46 62 100 62q100 -23 100 -100v-7q0 -41 -87 -139q-68 -103 -137 -103h-4q-71 0 -92 96z" />
<glyph unicode="&#xea;" horiz-adv-x="1144" d="M0 502q0 293 275 466q135 66 253 66q307 0 477 -291q59 -115 59 -248v-22q-18 -100 -100 -100h-733q29 -95 160 -166q77 -30 145 -30q77 0 187 55h32q93 -18 93 -96v-11q0 -117 -292 -155h-28q-286 0 -458 268q-70 127 -70 264zM214 576h640q0 35 -81 144 q-110 104 -215 104h-41q-160 0 -263 -158q-37 -63 -40 -90zM304 1176q0 49 109 165q48 74 112 80l1 1h11l1 -1q71 -8 145 -116q77 -82 77 -132q-18 -100 -103 -100q-56 0 -125 93q-64 -93 -128 -93q-100 19 -100 103z" />
<glyph unicode="&#xeb;" horiz-adv-x="1122" d="M0 501q0 292 275 465q134 66 252 66q306 0 476 -290q59 -115 59 -248v-22q-18 -100 -100 -100h-731q29 -96 159 -166q77 -30 145 -30q77 0 186 55h32q93 -18 93 -96v-11q0 -116 -291 -154h-28q-285 0 -457 267q-70 127 -70 264zM214 575h638q0 35 -81 143 q-109 104 -215 104h-40q-159 0 -263 -158q-36 -62 -39 -89zM289 1190v11q0 71 93 92h17q92 -21 92 -92v-11q0 -83 -104 -100q-98 19 -98 100zM567 1186v24q26 83 95 83h15q77 0 92 -105q0 -75 -102 -99q-100 18 -100 97z" />
<glyph unicode="&#xec;" horiz-adv-x="514" d="M90 1293v15q0 70 85 96h29q47 0 170 -161q36 -39 36 -78v-7q0 -82 -100 -100q-64 0 -130 100q-90 101 -90 135zM164 70v851q12 112 107 112q96 -23 96 -92v-875q0 -79 -97 -96h-6q-81 0 -100 100z" />
<glyph unicode="&#xed;" horiz-adv-x="514" d="M120 1149v11q0 44 121 180q46 63 99 63q101 -23 101 -100v-7q0 -42 -87 -140q-69 -104 -138 -104h-4q-71 0 -92 97zM164 71v854q12 112 108 112q95 -25 95 -92v-879q0 -79 -96 -96h-7q-81 0 -100 101z" />
<glyph unicode="&#xee;" horiz-adv-x="514" d="M30 1151q0 48 109 165q49 75 111 81l1 1h11l1 -1q74 -8 149 -117q77 -83 77 -132q-18 -101 -104 -101q-57 0 -124 93q-66 -93 -130 -93q-101 19 -101 104zM159 71v858q12 113 108 113q96 -25 96 -93v-882q0 -80 -97 -97h-6q-82 0 -101 101z" />
<glyph unicode="&#xef;" horiz-adv-x="514" d="M20 1199v11q0 72 93 93h17q93 -21 93 -93v-11q0 -83 -104 -100q-99 19 -99 100zM163 71v854q12 113 108 113q96 -25 96 -93v-879q0 -79 -97 -96h-7q-81 0 -100 101zM300 1195v23q26 85 96 85h14q78 0 93 -106q0 -75 -103 -99q-100 18 -100 97z" />
<glyph unicode="&#xf0;" horiz-adv-x="1118" d="M0 502q0 259 229 434q65 43 131 67q-51 14 -67 93v7q0 69 126 129l20 12q-29 43 -29 71v24q26 83 96 83h15q53 0 94 -69q131 80 163 80h10q93 -20 93 -96v-14q0 -62 -158 -144l263 -405q78 -131 78 -272q0 -299 -282 -469q-124 -63 -239 -63h-29q-216 0 -401 202 q-113 159 -113 330zM207 495q0 -184 178 -286q63 -32 136 -32h22q190 0 291 198q23 61 23 120v18q0 127 -118 241q-91 73 -211 73q-208 0 -305 -219q-16 -52 -16 -95v-18zM479 1031q27 3 55 3l44 -5l-29 44q-40 -25 -70 -42z" />
<glyph unicode="&#xf1;" horiz-adv-x="1108" d="M0 70v849q11 113 107 113q96 -25 96 -92v-13q118 105 317 105q219 0 389 -182q124 -153 124 -323v-465q0 -73 -96 -92h-10q-97 17 -97 100v409q0 254 -216 333q-53 14 -94 14h-11q-181 0 -280 -188q-26 -57 -26 -188v-384q0 -79 -97 -96h-6q-81 0 -100 100zM256 1266v11 q0 79 102 102q33 12 71 12h18q79 0 174 -64l20 -6h11l75 23q105 -20 105 -104q0 -101 -167 -121h-28q-78 0 -173 64l-21 5h-10l-70 -18h-14q-93 18 -93 96z" />
<glyph unicode="&#xf2;" horiz-adv-x="1118" d="M0 502q0 259 229 434q147 98 303 98q206 0 373 -156q159 -166 159 -376q0 -299 -282 -469q-124 -63 -239 -63h-29q-216 0 -401 202q-113 159 -113 330zM207 495q0 -184 178 -286q63 -32 136 -32h22q190 0 291 198q23 61 23 120v18q0 152 -140 258q-83 56 -189 56 q-208 0 -305 -219q-16 -52 -16 -95v-18zM410 1312v14q0 70 85 96h30q46 0 169 -160q37 -39 37 -78v-8q0 -83 -102 -99q-63 0 -128 100q-91 99 -91 135z" />
<glyph unicode="&#xf3;" horiz-adv-x="1118" d="M0 500q0 258 228 432q146 97 302 97q204 0 371 -155q158 -166 158 -374q0 -298 -281 -468q-123 -62 -238 -62h-29q-214 0 -398 201q-113 159 -113 329zM206 492q0 -182 177 -284q63 -32 136 -32h21q190 0 290 197q23 61 23 119v18q0 152 -140 257q-82 56 -187 56 q-207 0 -304 -218q-16 -52 -16 -95v-18zM408 1167v11q0 44 120 179q46 62 99 62q100 -23 100 -99v-7q0 -42 -86 -139q-68 -103 -137 -103h-4q-70 0 -92 96z" />
<glyph unicode="&#xf4;" horiz-adv-x="1118" d="M0 500q0 258 228 432q146 97 302 97q204 0 371 -155q158 -166 158 -374q0 -298 -281 -468q-123 -62 -238 -62h-29q-214 0 -398 201q-113 159 -113 329zM206 492q0 -182 177 -284q63 -32 136 -32h21q190 0 290 197q23 61 23 119v18q0 152 -140 257q-82 56 -187 56 q-207 0 -304 -218q-16 -52 -16 -95v-18zM303 1170q0 49 108 164q46 74 109 80l1 1h11l1 -1q73 -8 147 -115q76 -82 76 -131q-17 -101 -103 -101q-56 0 -122 93q-65 -93 -128 -93q-100 21 -100 103z" />
<glyph unicode="&#xf5;" horiz-adv-x="1118" d="M0 502q0 259 229 434q147 98 303 98q206 0 373 -156q159 -166 159 -376q0 -299 -282 -469q-124 -63 -239 -63h-29q-216 0 -401 202q-113 159 -113 330zM207 495q0 -184 178 -286q63 -32 136 -32h22q190 0 291 198q23 61 23 120v18q0 152 -140 258q-83 56 -189 56 q-208 0 -305 -219q-16 -52 -16 -95v-18zM264 1253v11q0 79 102 102q33 12 71 12h18q79 0 173 -64l21 -5h11l76 23q104 -22 104 -104q0 -102 -167 -122h-27q-78 0 -175 64l-20 6h-10l-70 -19h-14q-93 18 -93 96z" />
<glyph unicode="&#xf6;" horiz-adv-x="1114" d="M0 500q0 258 228 432q146 97 302 97q204 0 371 -155q158 -166 158 -374q0 -298 -281 -468q-123 -62 -238 -62h-29q-214 0 -398 201q-113 159 -113 329zM206 492q0 -182 177 -284q63 -32 136 -32h21q190 0 290 197q23 61 23 119v18q0 152 -140 257q-82 56 -187 56 q-207 0 -304 -218q-16 -52 -16 -95v-18zM288 1167v11q0 71 93 92h17q92 -21 92 -92v-11q0 -83 -104 -100q-98 19 -98 100zM565 1163v22q26 85 96 85h14q77 0 92 -105q0 -75 -102 -99q-100 18 -100 97z" />
<glyph unicode="&#xf7;" d="M150 716v16q0 78 103 98h614q103 -19 103 -106v-12q0 -73 -98 -98h-623q-99 19 -99 102zM422 408v20q0 100 131 130h11q113 0 134 -140v-6q0 -105 -138 -135q-138 30 -138 131zM422 1024v12q30 126 130 126h4q117 0 142 -127v-22q-28 -127 -130 -127h-10 q-136 14 -136 138z" />
<glyph unicode="&#xf8;" horiz-adv-x="1161" d="M42 78q0 45 88 130q-88 121 -88 291q0 257 228 431q145 97 301 97q155 0 277 -81q78 96 137 96h4q84 0 99 -105q0 -44 -91 -131q102 -125 102 -307q0 -298 -281 -467q-122 -62 -237 -62h-29q-146 0 -278 92q-73 -88 -126 -88h-14q-77 0 -92 104zM248 491q0 -71 29 -134 l426 440q-35 24 -136 24q-207 0 -303 -217q-16 -52 -16 -95v-18zM417 210q56 -34 143 -34h21q189 0 289 196q23 61 23 119v18q0 98 -41 151z" />
<glyph unicode="&#xf9;" horiz-adv-x="1109" d="M0 519v399q11 114 107 114q96 -25 96 -93v-391q0 -234 129 -311q83 -64 184 -64q195 0 294 200q20 65 20 131v427q19 101 107 101q95 -23 95 -100v-870q0 -73 -96 -92h-10q-96 17 -96 99v8q-138 -107 -303 -107h-25q-242 0 -420 236q-82 128 -82 313zM409 1309v14 q0 70 85 96h29q47 0 170 -161q36 -38 36 -77v-8q0 -82 -101 -99q-63 0 -129 100q-90 99 -90 135z" />
<glyph unicode="&#xfa;" horiz-adv-x="1105" d="M0 522v401q11 113 107 113q96 -23 96 -92v-393q0 -235 130 -313q84 -65 186 -65q195 0 295 202q20 65 20 132v429q19 100 106 100q97 -22 97 -99v-875q0 -73 -97 -92h-9q-97 17 -97 100v8q-138 -108 -304 -108h-26q-243 0 -422 237q-82 129 -82 315zM411 1176v10 q0 45 121 181q46 62 100 62q100 -22 100 -99v-8q0 -41 -87 -139q-68 -104 -138 -104h-3q-71 0 -93 97z" />
<glyph unicode="&#xfb;" horiz-adv-x="1114" d="M0 524v405q12 113 108 113q96 -25 96 -93v-395q0 -237 131 -315q84 -65 186 -65q197 0 297 202q20 65 20 133v432q20 101 108 101q96 -23 96 -101v-878q0 -74 -97 -93h-10q-97 18 -97 100v8q-139 -108 -306 -108h-26q-244 0 -423 238q-83 129 -83 316zM306 1185 q0 49 110 166q45 72 107 81l1 1h16l1 -1q74 -11 147 -117q77 -83 77 -132q-16 -102 -104 -102q-56 0 -124 94q-66 -94 -130 -94q-101 20 -101 104z" />
<glyph unicode="&#xfc;" horiz-adv-x="1109" d="M0 519v400q11 113 107 113q96 -25 96 -92v-391q0 -235 129 -312q83 -64 185 -64q194 0 293 200q20 65 20 132v427q21 100 107 100q96 -22 96 -99v-871q0 -73 -96 -92h-10q-97 17 -97 100v6q-138 -106 -303 -106h-25q-242 0 -420 236q-82 128 -82 313zM289 1171v11 q0 71 93 92h17q93 -21 93 -92v-11q0 -85 -105 -100q-98 19 -98 100zM567 1167v22q26 85 96 85h14q77 0 93 -105q0 -75 -103 -99q-100 18 -100 97z" />
<glyph unicode="&#xfd;" horiz-adv-x="990" d="M19 930v13q21 100 103 100q85 0 135 -166q172 -407 221 -525q263 641 283 664q36 31 75 31q101 -19 101 -100v-5q-5 -33 -365 -893q-172 -424 -197 -457q-26 -22 -69 -32q-104 23 -104 93v19q0 19 163 412zM430 1183v10q0 44 120 180q46 63 100 63q100 -23 100 -100v-7 q0 -43 -87 -139q-68 -104 -137 -104h-4q-71 0 -92 97z" />
<glyph unicode="&#xfe;" horiz-adv-x="1131" d="M10 -346v1661q12 109 93 109h17q93 -20 93 -89v-412q119 114 331 114q207 0 374 -156q160 -167 160 -378q0 -300 -284 -471q-123 -63 -239 -63h-29q-188 0 -313 113v-439q0 -71 -100 -93q-83 0 -103 104zM217 496q0 -184 179 -287q63 -32 137 -32h22q191 0 293 199 q23 62 23 120v18q0 153 -142 260q-83 56 -189 56q-209 0 -306 -220q-17 -52 -17 -96v-18z" />
<glyph unicode="&#xff;" horiz-adv-x="990" d="M10 913v13q19 100 103 100q85 0 134 -166q171 -404 220 -522q262 638 281 661q36 31 76 31q100 -19 100 -100v-5q-5 -33 -363 -889q-171 -422 -196 -455q-26 -22 -70 -32q-103 23 -103 93v18q0 19 163 411zM236 1168v11q0 71 93 92h17q93 -21 93 -92v-11q0 -83 -104 -100 q-99 19 -99 100zM514 1164v22q26 85 95 85h15q77 0 92 -105q0 -75 -102 -99q-100 18 -100 97z" />
<glyph unicode="&#x152;" horiz-adv-x="2157" d="M84 721q0 356 257 600q170 144 361 144q293 0 439 -221v124q15 100 72 100v11l52 -11h737l15 4q95 0 110 -114q-21 -98 -113 -98h-665v-452h424l54 4q76 0 99 -103q0 -73 -86 -109l-82 4h-409v-426h683q79 0 96 -112q-29 -96 -99 -96h-789q-99 18 -99 102v114 q-6 -10 -99 -92q-160 -124 -334 -124h-13q-321 0 -521 360q-90 181 -90 391zM264 710q0 -261 189 -439q114 -94 242 -94h16q203 0 345 223q83 146 83 318q0 294 -220 466q-106 74 -217 74q-215 0 -358 -231q-80 -140 -80 -317z" />
<glyph unicode="&#x153;" horiz-adv-x="2025" d="M44 514q0 263 232 440q148 99 307 99q209 0 378 -158q52 -54 62 -70q41 67 171 148q135 66 253 66q307 0 477 -291q59 -115 59 -248v-22q-18 -100 -100 -100h-733q29 -95 160 -166q77 -30 145 -30q77 0 187 55h32q93 -18 93 -96v-11q0 -117 -292 -155h-28 q-282 0 -427 220q-46 -74 -184 -157q-125 -63 -242 -63h-30q-218 0 -405 204q-115 162 -115 335zM253 507q0 -187 181 -290q64 -33 138 -33h22q193 0 296 201q23 62 23 122v18q0 155 -143 262q-83 57 -191 57q-211 0 -310 -222q-16 -52 -16 -97v-18zM1133 581h640 q0 35 -81 144q-110 104 -215 104h-41q-160 0 -263 -158q-37 -63 -40 -90z" />
<glyph unicode="&#x178;" horiz-adv-x="1149" d="M40 1362q23 101 95 101h16q69 0 105 -88l320 -478q353 531 372 545q28 21 52 21h23q69 0 94 -98q0 -46 -135 -230l-301 -450v-604q-13 -111 -94 -111h-16q-72 0 -98 86v626q0 5 -154 234l-273 411zM332 1619q22 98 94 98h18q95 -20 95 -90v-19q0 -80 -103 -99 q-104 21 -104 110zM618 1612v11q0 73 94 94h18q95 -21 95 -94v-11q0 -86 -106 -102q-101 19 -101 102z" />
<glyph unicode="&#x2c6;" horiz-adv-x="1024" d="M313 1191v12q0 50 126 186q45 72 104 72h28q64 0 159 -139q71 -71 71 -119v-15q-21 -99 -102 -99h-12q-56 0 -130 100q-74 -100 -130 -100h-15q-99 21 -99 102z" />
<glyph unicode="&#x2dc;" horiz-adv-x="1024" d="M298 1597v8q0 99 164 117l17 3q91 0 202 -72l20 -2l75 22h13q100 -17 100 -102v-4q0 -96 -150 -120l-40 -4q-91 0 -194 73l-17 2l-84 -23q-106 20 -106 102z" />
<glyph unicode="&#x2000;" horiz-adv-x="931" />
<glyph unicode="&#x2001;" horiz-adv-x="1862" />
<glyph unicode="&#x2002;" horiz-adv-x="931" />
<glyph unicode="&#x2003;" horiz-adv-x="1862" />
<glyph unicode="&#x2004;" horiz-adv-x="620" />
<glyph unicode="&#x2005;" horiz-adv-x="465" />
<glyph unicode="&#x2006;" horiz-adv-x="310" />
<glyph unicode="&#x2007;" horiz-adv-x="310" />
<glyph unicode="&#x2008;" horiz-adv-x="232" />
<glyph unicode="&#x2009;" horiz-adv-x="372" />
<glyph unicode="&#x200a;" horiz-adv-x="103" />
<glyph unicode="&#x2010;" horiz-adv-x="670" d="M68 598q28 100 107 100h400q83 0 106 -110q-25 -106 -106 -106h-400q-92 0 -107 116z" />
<glyph unicode="&#x2011;" horiz-adv-x="670" d="M68 598q28 100 107 100h400q83 0 106 -110q-25 -106 -106 -106h-400q-92 0 -107 116z" />
<glyph unicode="&#x2012;" horiz-adv-x="670" d="M68 598q28 100 107 100h400q83 0 106 -110q-25 -106 -106 -106h-400q-92 0 -107 116z" />
<glyph unicode="&#x2013;" horiz-adv-x="1108" d="M84 435q18 103 72 103v7l71 -7h717l36 4q85 0 108 -107q0 -75 -89 -113l-74 4h-678l-69 -4q-94 33 -94 113z" />
<glyph unicode="&#x2014;" horiz-adv-x="2048" d="M0 503q18 103 72 103v7l71 -7h1821l36 4q85 0 108 -107q0 -75 -89 -113l-74 4h-1782l-69 -4q-94 33 -94 113z" />
<glyph unicode="&#x2018;" horiz-adv-x="557" d="M176 1293q0 150 159 284l58 22q59 -17 59 -64v-14q-59 -141 -60 -238q0 -52 46 -129l6 -28q0 -92 -111 -113q-126 0 -157 280z" />
<glyph unicode="&#x2019;" horiz-adv-x="557" d="M185 1054v26q60 144 60 230v12q0 54 -48 136v31q21 99 94 99h28q110 0 142 -264v-22q0 -143 -157 -273q-38 -21 -67 -21q-33 13 -52 46z" />
<glyph unicode="&#x201a;" horiz-adv-x="557" d="M180 -258q60 144 60 230v12q0 54 -48 136v31q21 99 94 99h28q110 0 142 -264v-22q0 -143 -157 -273q-38 -21 -67 -21q-33 13 -52 46v26z" />
<glyph unicode="&#x201c;" horiz-adv-x="910" d="M224 1314q0 150 159 284l58 22q59 -17 59 -64v-14q-59 -141 -60 -238q0 -52 46 -129l6 -28q0 -92 -111 -113q-126 0 -157 280zM512 1262v70q0 120 147 251q37 27 77 27q52 -22 52 -72q-64 -142 -64 -238q0 -53 52 -144v-23q-19 -103 -102 -103h-16q-107 0 -146 232z" />
<glyph unicode="&#x201d;" horiz-adv-x="910" d="M220 1077v26q60 144 60 230v12q0 54 -48 136v31q21 99 94 99h28q110 0 142 -264v-22q0 -143 -157 -273q-38 -21 -67 -21q-33 13 -52 46zM516 1097v10q60 141 60 242q0 54 -48 132v44q25 90 102 90h12q121 0 150 -272v-10q0 -146 -158 -278l-50 -20q-68 0 -68 62z" />
<glyph unicode="&#x201e;" horiz-adv-x="910" d="M202 -243q60 144 60 230v12q0 54 -48 136v31q21 99 94 99h28q110 0 142 -264v-22q0 -143 -157 -273q-38 -21 -67 -21q-33 13 -52 46v26zM498 -239q60 141 60 242q0 54 -48 132v44q25 90 102 90h12q121 0 150 -272v-10q0 -146 -158 -278l-50 -20q-68 0 -68 62v10z" />
<glyph unicode="&#x2022;" horiz-adv-x="1024" d="M216 718q0 123 87 209t210 86q122 0 208.5 -86.5t86.5 -208.5t-87.5 -209.5t-209.5 -87.5q-123 0 -209 87t-86 210z" />
<glyph unicode="&#x2026;" horiz-adv-x="2048" d="M130 137q0 110 118 157q19 10 51 10q129 0 165 -151v-28q0 -94 -113 -145q-20 -10 -52 -10h-4q-137 0 -165 167zM803 133q0 110 118 157q19 10 51 10q129 0 165 -151v-28q0 -94 -113 -145q-20 -10 -52 -10h-4q-137 0 -165 167zM1494 137q0 110 118 157q19 10 51 10 q129 0 165 -151v-28q0 -94 -113 -145q-20 -10 -52 -10h-4q-137 0 -165 167z" />
<glyph unicode="&#x202f;" horiz-adv-x="372" />
<glyph unicode="&#x2039;" horiz-adv-x="631" d="M168 443v48q0 53 158 167q51 55 100 55h10q104 -16 104 -106v-4q0 -61 -101 -133q101 -74 101 -135v-7q-18 -103 -102 -103h-20q-42 0 -238 177z" />
<glyph unicode="&#x203a;" horiz-adv-x="631" d="M92 323v4q0 62 101 133q-101 73 -101 135v7q21 107 110 107q50 0 186 -126q76 -46 76 -100v-36q0 -62 -123 -147q-87 -83 -139 -83h-7q-103 19 -103 106z" />
<glyph unicode="&#x205f;" horiz-adv-x="465" />
<glyph unicode="&#x20ac;" horiz-adv-x="1193" d="M0 729q0 394 359 642q193 116 396 116q236 0 445 -148q22 -42 22 -66v-7q0 -92 -110 -103h-11l-139 71q-127 40 -207 40q-250 0 -436 -222q-40 -61 -52 -90h701q101 -17 101 -103v-7q-18 -100 -103 -100h-751l-2 -23l2 -28h753q101 -15 101 -103v-7q-18 -99 -103 -99 h-700q68 -168 267 -262q111 -47 214 -47h12q159 0 332 108h35q96 -21 96 -99v-12q0 -103 -279 -186q-84 -24 -177 -24h-19q-375 0 -627 347q-120 202 -120 412z" />
<glyph unicode="&#x2122;" horiz-adv-x="1497" d="M154 1412q14 59 60 59h438q59 -11 59 -62v-7q0 -51 -67 -60h-147v-539q0 -51 -61 -62h-4q-52 0 -64 62v539h-152q-62 12 -62 70zM761 795v608q7 67 60 67h8q50 0 67 -66l204 -456q12 43 127 304l90 194q24 24 48 24h8q53 0 60 -67v-608q-12 -63 -64 -63h-5q-61 11 -61 62 v307q-147 -333 -156 -346q-25 -23 -50 -23q-53 0 -83 94l-123 276v-308q0 -51 -61 -62h-5q-52 0 -64 63z" />
<glyph unicode="&#xe000;" horiz-adv-x="1035" d="M0 0v1035h1035v-1035h-1035z" />
</font>
</defs>
</svg>
