<?xml version="1.0" encoding="UTF-8"?>
<svg width="400" height="100" version="1.1" xmlns="http://www.w3.org/2000/svg" xmlns:xlink="http://www.w3.org/1999/xlink">
 <defs>
  <linearGradient id="a">
   <stop stop-color="#2a8bed" offset="0"/>
   <stop stop-color="#bbdaf9" offset=".59575"/>
   <stop stop-color="#fff" offset="1"/>
  </linearGradient>
  <linearGradient id="i" x1="61.75" x2="48.5" y1="186.75" y2="190.75" gradientTransform="matrix(1.3184,0,0,1.3184,-45.088,-178.01)" gradientUnits="userSpaceOnUse">
   <stop stop-color="#2a8bed" offset="0"/>
   <stop stop-color="#bbdaf9" offset=".59575"/>
   <stop stop-color="#fff" offset="1"/>
  </linearGradient>
  <linearGradient id="h" x1="111.25" x2="95.25" y1="182" y2="188.25" gradientTransform="matrix(1.3184,0,0,1.3184,-45.088,-178.01)" gradientUnits="userSpaceOnUse" xlink:href="#a"/>
  <linearGradient id="g" x1="142.75" x2="129.75" y1="161.5" y2="164.25" gradientTransform="matrix(1.3184,0,0,1.3184,-45.088,-178.01)" gradientUnits="userSpaceOnUse">
   <stop stop-color="#2a8bed" offset="0"/>
   <stop stop-color="#bbdaf9" offset=".59575"/>
   <stop stop-color="#fff" offset="1"/>
  </linearGradient>
  <linearGradient id="f" x1="182.75" x2="172" y1="169.5" y2="171.25" gradientTransform="matrix(1.3184,0,0,1.3184,-45.088,-178.01)" gradientUnits="userSpaceOnUse">
   <stop stop-color="#2a8bed" offset="0"/>
   <stop stop-color="#bbdaf9" offset=".59575"/>
   <stop stop-color="#fff" offset="1"/>
  </linearGradient>
  <linearGradient id="e" x1="204.75" x2="191.5" y1="171.25" y2="175.25" gradientTransform="matrix(1.3184,0,0,1.3184,-45.088,-178.01)" gradientUnits="userSpaceOnUse">
   <stop stop-color="#2a8bed" offset="0"/>
   <stop stop-color="#bbdaf9" offset=".59575"/>
   <stop stop-color="#fff" offset="1"/>
  </linearGradient>
  <linearGradient id="d" x1="309.75" x2="296" y1="172.5" y2="173.5" gradientTransform="matrix(1.3184,0,0,1.3184,-45.088,-178.01)" gradientUnits="userSpaceOnUse">
   <stop stop-color="#2a8bed" offset="0"/>
   <stop stop-color="#bbdaf9" offset=".59575"/>
   <stop stop-color="#fff" offset="1"/>
  </linearGradient>
  <linearGradient id="c" x1="111.25" x2="95.25" y1="182" y2="188.25" gradientTransform="matrix(1.3184,0,0,1.3184,121.28,-178.01)" gradientUnits="userSpaceOnUse" xlink:href="#a"/>
  <linearGradient id="b" x1="111.25" x2="95.25" y1="182" y2="188.25" gradientTransform="matrix(1.3184,0,0,1.3184,171.74,-178.01)" gradientUnits="userSpaceOnUse" xlink:href="#a"/>
 </defs>
 <g fill="#808185">
  <path d="m23.406 39.686q1.9041 0 3.7288 0.72652 1.8644 0.72652 3.2131 2.0989 1.3487 1.332 1.9438 2.9868l4.6809 13.723 3.8478-11.423q2.8165-8.355 8.9254-8.355 1.3487 0 3.2528 0.60542 2.1421 0.68618 3.6098 2.4218t2.6578 5.3278l3.8082 11.423 4.7205-13.723q0.55536-1.6145 1.9041-2.9868 1.3884-1.3723 3.1735-2.0989 1.7851-0.72652 3.7685-0.72652 1.8247 0.1209 3.6495 1.0091 2.3008 1.1302 3.6098 3.3097 1.3487 2.1796 1.3487 4.9646 0 2.4218-1.071 4.6013l-12.416 25.872q-3.0148 6.2966-8.9254 6.2966-2.6578-0.1213-4.7999-1.6952-2.1421-1.6145-3.3321-4.4802l-4.7205-11.826-4.7205 11.826q-0.71403 1.897-1.9041 3.2694-1.1901 1.332-2.7768 2.0989-1.5867 0.76688-3.3321 0.80725-2.9751 0-5.1569-1.4531-2.1818-1.4934-3.8082-4.8435l-12.416-25.872q-1.1504-2.4621-1.1504-4.6013 0-2.6639 1.3487-4.8839 1.3487-2.2603 3.6892-3.3905 1.8247-0.88799 3.6495-1.0091z"/>
  <path d="m133.25 60.028q0 4.0363-1.7057 5.6911-1.7057 1.6549-5.6726 1.6549h-21.143q0.15866 0.24221 1.4677 1.5741 1.1504 0.88796 2.1818 1.3319 1.071 0.40365 2.8561 0.68619 1.7851 0.2422 4.3238 0.2422 2.4594-0.1209 6.2279-1.1705 2.8958-0.72652 4.0858-0.72652 3.2131 0 5.1172 1.897 1.9438 1.897 1.9438 4.682 0 1.0091-0.15866 1.5741-0.43636 1.5338-1.3884 2.7446-0.91237 1.2109-2.4594 2.1796-1.5074 0.92833-4.2842 1.9374-3.4115 1.0494-6.9816 1.4934-2.4991 0.3229-5.3552 0.3229-5.9106 0-10.869-1.7356-4.9189-1.7759-8.4494-5.005-3.5305-3.229-5.3552-7.5881-1.8247-4.3592-1.8247-9.5256 0.11902-4.5609 1.9834-8.7183 1.9041-4.1977 5.0776-7.1845 3.2131-3.0272 7.6163-4.7628t9.5204-1.7356q6.7833 0.1209 12.099 3.1886 3.2528 1.9374 5.7122 4.8031 2.4991 2.8254 3.8875 6.014 1.428 3.1483 1.5471 6.1351zm-28.363-1.6548h9.6791q0-0.48438-0.0794-0.80726-0.59501-3.9959-5.5139-3.9959-2.8958 0.72652-3.9272 4.0766-0.15866 0.48434-0.15866 0.72654z"/>
  <path d="m145.86 85.981q-3.7288 0-6.3073-2.6236-2.5784-2.6236-2.5784-6.7002v-47.466q0-3.7537 2.6181-6.458t6.347-2.785q2.5388 0 4.6015 1.2916 2.1024 1.2512 3.2925 3.3905 1.19 2.0989 1.19 4.6417v11.988q0.19835-0.08069 1.3884-0.48435 3.7685-1.2512 6.9816-1.2512 1.7851 0 3.7288 0.44398 4.4429 0.84763 7.9337 3.229 3.4908 2.341 5.8312 6.014t3.2925 8.355q0.51569 2.5428 0.51569 4.8839 0 5.7718-2.3801 10.817-2.3404 5.0453-6.3469 8.355-4.0065 3.2694-8.6874 4.117-2.3008 0.40361-3.9668 0.40361-6.4659 0-10.314-4.2784v-0.32291zm8.5287-22.724q0.0397 3.1886 1.8247 5.1664 1.7851 1.9374 4.3239 1.9374 0.51569 0 1.3091-0.16147 1.309-0.28254 2.3801-1.1705 1.1107-0.88796 1.7454-2.341 0.6347-1.453 0.67436-3.2694 0-3.5519-1.9041-5.5297t-5.1569-1.9778q-1.9834 0.36328-3.3718 1.8971-1.3487 1.4934-1.7454 3.8748-0.0794 0.60542-0.0794 1.5741z"/>
  <path d="m186.72 42.511q2.3404-2.1392 5.5536-2.1392h0.79338v-3.9959q0-3.7941 2.6974-6.6598 2.6181-2.6639 6.3073-2.6639 3.7288 0 6.4263 2.7446 2.6974 2.9868 2.6974 6.7809v3.7941h1.0314q3.0941 0 5.3552 2.2199 2.3008 2.341 2.3008 5.5296 0 0.88799-0.23803 1.8163-0.23804 0.92836-0.7537 1.8163-0.47602 0.84762-1.1107 1.5741-2.3404 2.3814-5.5536 2.5025h-1.1107v20.988q0 3.9555-2.6974 6.7002-2.5388 2.7043-6.347 2.7043-3.7288 0-6.3866-2.7043-2.6974-2.8657-2.6974-6.7809v-21.069h-0.63472q-3.4115 0-5.8709-2.5025-2.1024-2.1392-2.1024-5.126 0-3.2694 2.3404-5.5297z"/>
  <path d="m228.97 86.062q-3.7288 0-6.3866-2.5832-2.6578-2.6235-2.6578-6.4176v-27.931q0-3.8344 2.6578-6.5387t6.3866-2.7043l8.37 5.7718v-0.40365l0.47602-0.60542 0.9917-1.0494q3.2132-3.4308 6.9023-3.5519 1.309 0 2.2611 0.32291 2.3801 0.60544 4.0065 2.341 1.6661 1.7356 2.1024 3.9959 0.15869 1.3723 0.15869 2.0181 0 2.9464-1.9834 5.0857-1.9834 2.0989-6.3073 3.5922-0.43635 0.16147-0.75369 0.28254-0.31733 0.1213-0.87269 0.36328-2.0231 0.80726-3.3322 1.6548-1.2694 0.84762-1.9438 1.897-0.63468 1.0494-0.91237 2.5832-0.23803 1.4934-0.23803 4.117v8.1129q0 2.6236-1.19 4.8435-1.1901 2.1796-3.2528 3.4712-2.0628 1.2916-4.4825 1.3319z"/>
  <path d="m357.41 83.035q-5.2362-3.3097-5.2362-7.1442 0-1.1705 0.35699-2.0585 0.67439-2.1796 2.5388-3.4308 1.8644-1.2916 4.5222-1.2916 1.6264 0 3.9668 0.76688l1.6264 0.48435 1.1504 0.40364q2.6974 1.1301 4.8792 1.4127h1.4677q1.071 0 1.428-0.72652 0-1.2512-0.87269-1.8163-0.0396-0.04048-0.15869-0.08069-0.11919-0.08069-0.23804-0.1209-0.0794-0.08069-0.15869-0.1213l-0.75369-0.28254-1.6264-0.40361-2.1024-0.64582-1.5471-0.40361q-3.6495-1.0091-6.0693-2.1796-2.3801-1.2109-3.7685-2.7043-1.3487-1.4934-2.2611-3.6326-0.91236-2.3007-0.91236-4.6417 0-3.8748 2.4198-7.2653 2.4198-3.4308 6.9023-5.4489 4.5222-2.0181 10.512-2.0181 4.6412 0 8.2907 1.0091 5.7519 1.6145 7.8147 4.3995 1.0314 1.4127 1.0314 3.4712 0 1.9777-1.2297 3.673-1.2297 1.6549-3.3322 2.1796-0.95203 0.2422-1.9437 0.2422-1.5471 0-4.0462-0.64582l-2.4594-0.60541-1.1901-0.32291-1.309-0.24221q-0.6347-0.16147-0.91239-0.16147-2.3404 0-2.6578 0.08069l-0.1587 0.16147-0.23803 0.2422q-0.27769 0.28254-0.27769 0.52472 0 0.52471 0.83305 1.1301 0.15869 0.08069 0.27769 0.16147 0.11892 0.08069 0.27767 0.16147l0.7537 0.28254 1.19 0.40361 2.8561 0.96873 2.0231 0.60541 1.7851 0.64582q2.5388 0.80726 5.3949 2.7446 2.6974 1.897 4.0858 4.7224 1.428 2.785 1.428 5.7718 0 6.2965-5.5139 10.817-5.1172 4.1977-13.686 4.1977-1.1107 0-3.5702-0.16147-7.3386-0.56508-11.583-3.1079z"/>
  <path d="m299.62 60.028q0 4.0363-1.7057 5.6911-1.7057 1.6549-5.6726 1.6549h-21.143q0.15866 0.24221 1.4677 1.5741 1.1504 0.88796 2.1818 1.3319 1.071 0.40365 2.8561 0.68619 1.7851 0.2422 4.3238 0.2422 2.4594-0.1209 6.2279-1.1705 2.8958-0.72652 4.0858-0.72652 3.2131 0 5.1172 1.897 1.9438 1.897 1.9438 4.682 0 1.0091-0.15866 1.5741-0.43636 1.5338-1.3884 2.7446-0.91238 1.2109-2.4594 2.1796-1.5074 0.92833-4.2842 1.9374-3.4115 1.0494-6.9816 1.4934-2.4991 0.3229-5.3552 0.3229-5.9106 0-10.869-1.7356-4.9189-1.7759-8.4494-5.005-3.5305-3.229-5.3552-7.5881-1.8247-4.3592-1.8247-9.5256 0.11906-4.5609 1.9834-8.7183 1.9041-4.1977 5.0775-7.1845 3.2131-3.0272 7.6163-4.7628t9.5204-1.7356q6.7833 0.1209 12.099 3.1886 3.2528 1.9374 5.7122 4.8031 2.4991 2.8254 3.8875 6.014 1.4281 3.1483 1.5471 6.1351zm-28.363-1.6548h9.6791q0-0.48438-0.0794-0.80726-0.59502-3.9959-5.5139-3.9959-2.8958 0.72652-3.9272 4.0766-0.15866 0.48434-0.15866 0.72654z"/>
  <path d="m350.08 60.028q0 4.0363-1.7057 5.6911-1.7057 1.6549-5.6726 1.6549h-21.143q0.15866 0.24221 1.4677 1.5741 1.1504 0.88796 2.1818 1.3319 1.071 0.40365 2.8561 0.68619 1.7851 0.2422 4.3238 0.2422 2.4594-0.1209 6.2279-1.1705 2.8958-0.72652 4.0858-0.72652 3.2131 0 5.1172 1.897 1.9438 1.897 1.9438 4.682 0 1.0091-0.15866 1.5741-0.43636 1.5338-1.3884 2.7446-0.91237 1.2109-2.4594 2.1796-1.5074 0.92833-4.2842 1.9374-3.4115 1.0494-6.9816 1.4934-2.4991 0.3229-5.3552 0.3229-5.9106 0-10.869-1.7356-4.9189-1.7759-8.4494-5.005-3.5305-3.229-5.3552-7.5881-1.8247-4.3592-1.8247-9.5256 0.11905-4.5609 1.9834-8.7183 1.9041-4.1977 5.0776-7.1845 3.2131-3.0272 7.6163-4.7628t9.5204-1.7356q6.7833 0.1209 12.099 3.1886 3.2528 1.9374 5.7122 4.8031 2.4991 2.8254 3.8875 6.014 1.4281 3.1483 1.5471 6.1351zm-28.363-1.6548h9.6791q0-0.48438-0.0794-0.80726-0.59502-3.9959-5.5139-3.9959-2.8958 0.72652-3.9272 4.0766-0.15866 0.48434-0.15866 0.72654z"/>
 </g>
 <g stroke="#000" stroke-linecap="round" stroke-linejoin="round">
  <path d="m17.58 34.092q1.9041 0 3.7288 0.72652 1.8644 0.72652 3.2131 2.0989 1.3487 1.332 1.9438 2.9868l4.6809 13.723 3.8478-11.423q2.8165-8.355 8.9254-8.355 1.3487 0 3.2528 0.60542 2.1421 0.68618 3.6098 2.4218t2.6578 5.3278l3.8082 11.423 4.7205-13.723q0.55536-1.6145 1.9041-2.9868 1.3884-1.3723 3.1735-2.0989 1.7851-0.72652 3.7685-0.72652 1.8247 0.1209 3.6495 1.0091 2.3008 1.1302 3.6098 3.3097 1.3487 2.1796 1.3487 4.9646 0 2.4218-1.071 4.6013l-12.416 25.872q-3.0148 6.2966-8.9254 6.2966-2.6578-0.1213-4.7999-1.6952-2.1421-1.6145-3.3321-4.4802l-4.7205-11.826-4.7205 11.826q-0.71403 1.897-1.9041 3.2694-1.1901 1.332-2.7768 2.0989-1.5867 0.76688-3.3321 0.80725-2.9751 0-5.1569-1.4531-2.1818-1.4934-3.8082-4.8435l-12.416-25.872q-1.1504-2.4621-1.1504-4.6013 0-2.6639 1.3487-4.8839 1.3487-2.2603 3.6892-3.3905 1.8247-0.88799 3.6495-1.0091z" fill="url(#i)"/>
  <path d="m127.42 54.435q0 4.0363-1.7057 5.6911-1.7057 1.6549-5.6726 1.6549h-21.143q0.15866 0.24221 1.4677 1.5741 1.1504 0.88796 2.1818 1.3319 1.071 0.40365 2.8561 0.68619 1.7851 0.2422 4.3238 0.2422 2.4594-0.1209 6.2279-1.1705 2.8958-0.72652 4.0858-0.72652 3.2131 0 5.1172 1.897 1.9438 1.897 1.9438 4.682 0 1.0091-0.15866 1.5741-0.43636 1.5338-1.3884 2.7446-0.91238 1.2109-2.4594 2.1796-1.5074 0.92833-4.2842 1.9374-3.4115 1.0494-6.9816 1.4934-2.4991 0.3229-5.3552 0.3229-5.9106 0-10.869-1.7356-4.9189-1.7759-8.4494-5.005-3.5305-3.229-5.3552-7.5881-1.8247-4.3592-1.8247-9.5256 0.11902-4.5609 1.9834-8.7183 1.9041-4.1977 5.0776-7.1845 3.2131-3.0272 7.6163-4.7628t9.5204-1.7356q6.7833 0.1209 12.099 3.1886 3.2528 1.9374 5.7122 4.8031 2.4991 2.8254 3.8875 6.014 1.4281 3.1483 1.5471 6.1351zm-28.363-1.6548h9.6791q0-0.48438-0.0794-0.80726-0.59502-3.9959-5.5139-3.9959-2.8958 0.72652-3.9272 4.0766-0.15866 0.48434-0.15866 0.72654z" fill="url(#h)"/>
  <path d="m140.04 80.388q-3.7288 0-6.3073-2.6236-2.5784-2.6236-2.5784-6.7002v-47.466q0-3.7537 2.6181-6.458t6.3469-2.785q2.5388 0 4.6015 1.2916 2.1024 1.2512 3.2925 3.3905 1.19 2.0989 1.19 4.6417v11.988q0.19834-0.08069 1.3884-0.48435 3.7685-1.2512 6.9816-1.2512 1.7851 0 3.7288 0.44398 4.4429 0.84763 7.9337 3.229 3.4908 2.341 5.8313 6.014 2.3404 3.673 3.2925 8.355 0.51569 2.5428 0.51569 4.8839 0 5.7718-2.3801 10.817-2.3404 5.0453-6.3469 8.355-4.0065 3.2694-8.6874 4.117-2.3008 0.40361-3.9668 0.40361-6.466 0-10.314-4.2784v-0.32291zm8.5287-22.724q0.0397 3.1886 1.8247 5.1664 1.7851 1.9374 4.3239 1.9374 0.51569 0 1.3091-0.16147 1.309-0.28254 2.3801-1.1705 1.1107-0.88796 1.7454-2.341 0.6347-1.453 0.67436-3.2694 0-3.5519-1.9041-5.5297t-5.1569-1.9778q-1.9834 0.36328-3.3718 1.8971-1.3487 1.4934-1.7454 3.8748-0.0794 0.60542-0.0794 1.5741z" fill="url(#g)"/>
  <path d="m180.89 36.917q2.3404-2.1392 5.5536-2.1392h0.79337v-3.9959q0-3.7941 2.6974-6.6598 2.6181-2.6639 6.3073-2.6639 3.7288 0 6.4263 2.7446 2.6974 2.9868 2.6974 6.7809v3.7941h1.0314q3.0941 0 5.3552 2.2199 2.3008 2.341 2.3008 5.5296 0 0.88799-0.23803 1.8163-0.23804 0.92836-0.7537 1.8163-0.47602 0.84762-1.1107 1.5741-2.3404 2.3814-5.5536 2.5025h-1.1107v20.988q0 3.9555-2.6974 6.7002-2.5388 2.7043-6.3469 2.7043-3.7288 0-6.3866-2.7043-2.6974-2.8657-2.6974-6.7809v-21.069h-0.63471q-3.4115 0-5.8709-2.5025-2.1024-2.1392-2.1024-5.126 0-3.2694 2.3404-5.5297z" fill="url(#f)"/>
  <path d="m223.14 80.469q-3.7288 0-6.3866-2.5832-2.6578-2.6235-2.6578-6.4176v-27.931q0-3.8344 2.6578-6.5387t6.3866-2.7043l8.37 5.7718v-0.40365l0.47601-0.60542 0.99171-1.0494q3.2132-3.4308 6.9023-3.5519 1.309 0 2.2611 0.32291 2.3801 0.60544 4.0065 2.341 1.6661 1.7356 2.1024 3.9959 0.15869 1.3723 0.15869 2.0181 0 2.9464-1.9834 5.0857-1.9834 2.0989-6.3073 3.5922-0.43634 0.16147-0.75369 0.28254-0.31733 0.1213-0.87269 0.36328-2.0231 0.80726-3.3322 1.6548-1.2694 0.84762-1.9438 1.897-0.63467 1.0494-0.91236 2.5832-0.23803 1.4934-0.23803 4.117v8.1129q0 2.6236-1.19 4.8435-1.1901 2.1796-3.2528 3.4712-2.0628 1.2916-4.4826 1.3319z" fill="url(#e)"/>
  <path d="m351.59 77.441q-5.2362-3.3097-5.2362-7.1442 0-1.1705 0.35699-2.0585 0.67439-2.1796 2.5388-3.4308 1.8644-1.2916 4.5222-1.2916 1.6264 0 3.9668 0.76688l1.6264 0.48435 1.1504 0.40364q2.6974 1.1301 4.8792 1.4127h1.4677q1.071 0 1.428-0.72652 0-1.2512-0.87269-1.8163-0.0395-0.04048-0.15868-0.08069-0.11919-0.08069-0.23805-0.1209-0.0794-0.08069-0.15868-0.1213l-0.75369-0.28254-1.6264-0.40361-2.1024-0.64582-1.5471-0.40361q-3.6495-1.0091-6.0692-2.1796-2.3801-1.2109-3.7685-2.7043-1.3487-1.4934-2.2611-3.6326-0.91237-2.3007-0.91237-4.6417 0-3.8748 2.4198-7.2653 2.4198-3.4308 6.9023-5.4489 4.5222-2.0181 10.512-2.0181 4.6412 0 8.2907 1.0091 5.7519 1.6145 7.8147 4.3995 1.0314 1.4127 1.0314 3.4712 0 1.9777-1.2297 3.673-1.2297 1.6549-3.3322 2.1796-0.95203 0.2422-1.9437 0.2422-1.5471 0-4.0462-0.64582l-2.4594-0.60541-1.1901-0.32291-1.309-0.24221q-0.6347-0.16147-0.91239-0.16147-2.3404 0-2.6578 0.08069l-0.1587 0.16147-0.23803 0.2422q-0.27768 0.28254-0.27768 0.52472 0 0.52471 0.83305 1.1301 0.15868 0.08069 0.27768 0.16147 0.11892 0.08069 0.27768 0.16147l0.7537 0.28254 1.19 0.40361 2.8561 0.96873 2.0231 0.60541 1.7851 0.64582q2.5388 0.80726 5.3949 2.7446 2.6974 1.897 4.0858 4.7224 1.428 2.785 1.428 5.7718 0 6.2965-5.5139 10.817-5.1172 4.1977-13.686 4.1977-1.1107 0-3.5702-0.16147-7.3386-0.56508-11.583-3.1079z" fill="url(#d)"/>
  <path d="m293.79 54.435q0 4.0363-1.7057 5.6911-1.7057 1.6549-5.6726 1.6549h-21.143q0.15866 0.24221 1.4677 1.5741 1.1504 0.88796 2.1818 1.3319 1.071 0.40365 2.8561 0.68619 1.7851 0.2422 4.3238 0.2422 2.4594-0.1209 6.2279-1.1705 2.8958-0.72652 4.0858-0.72652 3.2131 0 5.1172 1.897 1.9438 1.897 1.9438 4.682 0 1.0091-0.15866 1.5741-0.43636 1.5338-1.3884 2.7446-0.91238 1.2109-2.4594 2.1796-1.5074 0.92833-4.2842 1.9374-3.4115 1.0494-6.9816 1.4934-2.4991 0.3229-5.3552 0.3229-5.9106 0-10.869-1.7356-4.9189-1.7759-8.4494-5.005-3.5305-3.229-5.3552-7.5881-1.8247-4.3592-1.8247-9.5256 0.11905-4.5609 1.9834-8.7183 1.9041-4.1977 5.0776-7.1845 3.2131-3.0272 7.6163-4.7628t9.5204-1.7356q6.7833 0.1209 12.099 3.1886 3.2528 1.9374 5.7122 4.8031 2.4991 2.8254 3.8875 6.014 1.4281 3.1483 1.5471 6.1351zm-28.363-1.6548h9.6791q0-0.48438-0.0794-0.80726-0.59502-3.9959-5.5139-3.9959-2.8958 0.72652-3.9272 4.0766-0.15866 0.48434-0.15866 0.72654z" fill="url(#c)"/>
  <path d="m344.25 54.435q0 4.0363-1.7057 5.6911-1.7057 1.6549-5.6726 1.6549h-21.143q0.15866 0.24221 1.4677 1.5741 1.1504 0.88796 2.1818 1.3319 1.071 0.40365 2.8561 0.68619 1.7851 0.2422 4.3238 0.2422 2.4594-0.1209 6.228-1.1705 2.8958-0.72652 4.0858-0.72652 3.2131 0 5.1172 1.897 1.9438 1.897 1.9438 4.682 0 1.0091-0.15866 1.5741-0.43636 1.5338-1.3884 2.7446-0.91238 1.2109-2.4594 2.1796-1.5074 0.92833-4.2842 1.9374-3.4115 1.0494-6.9816 1.4934-2.4991 0.3229-5.3552 0.3229-5.9106 0-10.869-1.7356-4.9189-1.7759-8.4494-5.005-3.5305-3.229-5.3552-7.5881-1.8247-4.3592-1.8247-9.5256 0.11906-4.5609 1.9834-8.7183 1.9041-4.1977 5.0775-7.1845 3.2131-3.0272 7.6163-4.7628t9.5204-1.7356q6.7833 0.1209 12.099 3.1886 3.2528 1.9374 5.7122 4.8031 2.4991 2.8254 3.8875 6.014 1.4281 3.1483 1.5471 6.1351zm-28.363-1.6548h9.6791q0-0.48438-0.0794-0.80726-0.59502-3.9959-5.5139-3.9959-2.8958 0.72652-3.9272 4.0766-0.15866 0.48434-0.15866 0.72654z" fill="url(#b)"/>
 </g>
</svg>
